<svg width="40" height="44" viewBox="0 0 40 44" fill="none" xmlns="http://www.w3.org/2000/svg">
<path d="M18.1039 26.4213C17.9171 26.3432 17.739 26.2506 17.5647 26.1513C17.1979 25.9418 16.8582 25.6905 16.5547 25.3908C16.1075 24.9496 15.7567 24.436 15.5118 23.8643C15.2587 23.274 15.1304 22.6463 15.1304 21.9984C15.1304 21.3506 15.2587 20.7228 15.5123 20.132C15.7567 19.5609 16.1075 19.0478 16.5547 18.6065C16.8586 18.3068 17.1984 18.0551 17.5647 17.846C17.7385 17.7467 17.9166 17.6542 18.1029 17.5765C18.809 17.282 19.141 16.4759 18.8434 15.7758C18.5467 15.0761 17.7337 14.7462 17.0261 15.042C16.1158 15.4214 15.2984 15.9652 14.5962 16.6581C13.8934 17.3515 13.3422 18.1587 12.957 19.0573C12.5573 19.9896 12.355 20.9793 12.355 21.9984C12.355 23.0174 12.5578 24.0072 12.957 24.939C13.3423 25.8381 13.8935 26.6456 14.5967 27.3387C15.2979 28.0311 16.1159 28.5749 17.0261 28.9547C17.2018 29.0281 17.3842 29.0626 17.5643 29.0626C18.1063 29.0626 18.6203 28.7466 18.8439 28.221C19.141 27.5223 18.8095 26.7162 18.1039 26.4213L18.1039 26.4213Z" fill="#1E4DD8"/>
<path d="M25.405 16.659C24.7037 15.9666 23.8858 15.4223 22.9741 15.0425C22.2694 14.748 21.4544 15.077 21.1568 15.7762C20.8601 16.4758 21.1916 17.2825 21.8982 17.5769C22.085 17.6546 22.2626 17.7471 22.4364 17.8464C22.8032 18.0555 23.143 18.3077 23.4464 18.6074C23.8936 19.0481 24.2445 19.5617 24.4898 20.1329C24.7429 20.7232 24.8707 21.351 24.8707 21.9993C24.8707 22.6476 24.7429 23.2755 24.4898 23.8647C24.2445 24.4368 23.8936 24.9504 23.4454 25.3917C23.143 25.6909 22.8032 25.9427 22.4364 26.1522C22.2626 26.251 22.084 26.3441 21.8972 26.4217C21.1911 26.7162 20.8601 27.5228 21.1573 28.2225C21.3804 28.748 21.8953 29.0641 22.4368 29.0641C22.6164 29.0641 22.7993 29.0291 22.975 28.9562C23.8868 28.5754 24.7047 28.0316 25.4045 27.3401C26.1057 26.6481 26.6579 25.841 27.0441 24.9399C27.4429 24.0082 27.6456 23.0189 27.6456 21.9993C27.6456 20.9798 27.4429 19.9905 27.0441 19.0578C26.6574 18.1572 26.1057 17.3501 25.405 16.6591L25.405 16.659Z" fill="#1E4DD8"/>
<path d="M36.1826 25.4748V18.5242C37.0401 18.2912 37.8275 17.8461 38.4736 17.2088C39.458 16.2372 40 14.9453 40 13.5709C40 12.197 39.458 10.9051 38.4736 9.93253C37.4907 8.96288 36.1841 8.42866 34.7946 8.42866C33.4191 8.42866 32.1255 8.95376 31.146 9.90613L25.0365 6.42551C25.144 6.0107 25.2054 5.5815 25.2054 5.14225C25.2054 3.76839 24.6634 2.47641 23.679 1.50387C22.6961 0.534223 21.3895 0 20 0C18.611 0 17.3043 0.534223 16.3214 1.50436C15.3371 2.47593 14.7956 3.7679 14.7956 5.14225C14.7956 5.58151 14.857 6.01071 14.964 6.42551L8.85449 9.90613C7.87496 8.95423 6.58177 8.42915 5.20592 8.42915C3.81645 8.42915 2.51023 8.96338 1.52737 9.93302C0.542993 10.9046 0.000495306 12.1966 0.000495306 13.5714C0.000495306 14.9467 0.542535 16.2387 1.52688 17.2093C2.17296 17.8471 2.96083 18.2916 3.81793 18.5247V25.4753C2.96035 25.7083 2.17348 26.1529 1.52688 26.7902C0.542498 27.7618 0 29.0538 0 30.4286C0 31.8029 0.542039 33.0954 1.52638 34.0665C2.50931 35.0366 3.81595 35.5709 5.20493 35.5709C6.58041 35.5709 7.8735 35.0457 8.8535 34.0939L14.963 37.5745C14.8556 37.9888 14.7946 38.4185 14.7946 38.8578C14.7946 40.2321 15.3366 41.5241 16.3209 42.4961C17.3039 43.4658 18.6105 44 19.9995 44C21.3895 44 22.6952 43.4658 23.679 42.4956C24.6629 41.5241 25.2044 40.2321 25.2044 38.8582C25.2044 38.419 25.143 37.9898 25.0355 37.575L31.145 34.0944C32.1245 35.0467 33.4182 35.5718 34.7936 35.5718C36.1836 35.5718 37.4903 35.0371 38.4721 34.068C39.4565 33.0964 39.999 31.8044 39.999 30.4296C39.999 29.0552 39.4565 27.7628 38.4721 26.7912C37.8275 26.1524 37.04 25.7079 36.1826 25.4748ZM36.5146 32.118C35.5975 33.0238 33.9941 33.0243 33.0745 32.1175C32.6172 31.6662 32.365 31.0663 32.365 30.4285C32.365 29.7907 32.6172 29.1898 33.0745 28.739C33.5338 28.2858 34.145 28.0365 34.795 28.0365C35.4455 28.0365 36.0568 28.2858 36.5156 28.739C36.9734 29.1903 37.2255 29.7907 37.2255 30.4285C37.225 31.0658 36.9734 31.6657 36.5146 32.118L36.5146 32.118ZM18.2798 40.5465C17.8224 40.0952 17.5703 39.4949 17.5703 38.857C17.5703 38.2192 17.8224 37.6183 18.2798 37.1675C18.739 36.7144 19.3503 36.4645 20.0003 36.4645C20.6507 36.4645 21.262 36.7144 21.7208 37.1666C22.1786 37.6188 22.4308 38.2192 22.4308 38.857C22.4308 39.4944 22.1786 40.0948 21.7213 40.546C20.8032 41.4519 19.1989 41.4533 18.2799 40.5465L18.2798 40.5465ZM19.9998 33.7144C18.6248 33.7144 17.3317 34.2395 16.3512 35.1919L10.2417 31.7112C10.3492 31.2964 10.4106 30.8672 10.4106 30.428C10.4106 29.0536 9.86861 27.7612 8.88377 26.7896C8.23768 26.1523 7.45031 25.7077 6.59271 25.4747L6.5932 18.5241C7.45078 18.291 8.23765 17.846 8.88425 17.2092C9.86863 16.2381 10.4106 14.9461 10.4106 13.5708C10.4106 13.1315 10.3492 12.7023 10.2417 12.2875L16.3512 8.80653C17.3308 9.75844 18.6239 10.2835 19.9998 10.2835C21.3748 10.2835 22.6684 9.75841 23.6493 8.80653L29.7588 12.2872C29.6514 12.7015 29.5904 13.1312 29.5904 13.5704C29.5904 14.9458 30.1324 16.2377 31.1168 17.2088C31.7629 17.8461 32.5503 18.2907 33.4079 18.5237V25.4743C32.5512 25.7074 31.7634 26.1519 31.1168 26.7892C30.1324 27.7603 29.5904 29.0528 29.5904 30.4276C29.5904 30.8669 29.6519 31.2961 29.7588 31.7109L23.6493 35.1915C22.6688 34.2401 21.3753 33.7145 19.9998 33.7145L19.9998 33.7144ZM3.48466 32.1175C3.02731 31.6662 2.77468 31.0658 2.77468 30.4285C2.77468 29.7907 3.02683 29.1903 3.48466 28.739C3.94345 28.2858 4.5547 28.0364 5.20518 28.0364C5.85514 28.0364 6.46643 28.2858 6.9257 28.7385C7.38305 29.1898 7.63568 29.7902 7.63568 30.4285C7.63568 31.0663 7.38353 31.6667 6.92619 32.1175C6.00665 33.0234 4.40332 33.0243 3.48477 32.1175L3.48466 32.1175ZM2.77516 13.5702C2.77516 12.9324 3.02731 12.3325 3.48514 11.8807C3.94393 11.4275 4.55518 11.1781 5.20517 11.1781C5.85513 11.1781 6.46641 11.428 6.92569 11.8807C7.38304 12.3319 7.63567 12.9323 7.63567 13.5702C7.63567 14.208 7.38352 14.8084 6.92618 15.2592C6.00761 16.1655 4.4043 16.1665 3.48476 15.2592C3.02693 14.8084 2.77526 14.2085 2.77526 13.5702H2.77516ZM19.999 2.74956C20.6494 2.74956 21.2607 2.99941 21.7195 3.45163C22.1773 3.90385 22.4295 4.50424 22.4295 5.14161C22.4295 5.77941 22.1773 6.37981 21.72 6.8311C20.8024 7.73745 19.1981 7.73792 18.2786 6.83158C17.8212 6.38032 17.5691 5.77993 17.5691 5.1416C17.5691 4.5038 17.8212 3.90339 18.2786 3.4526C18.7383 2.99943 19.3496 2.74958 19.9991 2.74958L19.999 2.74956ZM34.7932 11.1786C35.4437 11.1786 36.055 11.4284 36.5138 11.8807C36.9716 12.3329 37.2237 12.9333 37.2237 13.5706C37.2237 14.2084 36.9716 14.8088 36.5142 15.2596C35.5961 16.166 33.9924 16.1669 33.0728 15.2596C32.6155 14.8084 32.3633 14.2085 32.3633 13.5706C32.3633 12.9328 32.6155 12.3324 33.0728 11.8816C33.5331 11.428 34.1438 11.1786 34.7933 11.1786L34.7932 11.1786Z" fill="#1E4DD8"/>
</svg>
