<svg width="40" height="44" viewBox="0 0 40 44" fill="none" xmlns="http://www.w3.org/2000/svg">
<path d="M20.0004 13.2707H34.6874L20.0004 2.29184L5.31343 13.2707H20.0004ZM2.03751 41.5139H37.9634V38.8323H2.03751V41.5139ZM38.9814 43.5556H1.01864C0.456119 43.5556 0 43.0982 0 42.5343V37.811C0 37.247 0.456135 36.7909 1.01864 36.7909H2.19038V33.088C2.19038 32.524 2.64652 32.0679 3.20784 32.0679H4.15625V15.3131H2.24509C1.93522 15.3119 1.62939 15.1705 1.42991 14.9023C1.09345 14.4502 1.18653 13.8115 1.63741 13.4742L19.3771 0.214196C19.7296 -0.0605047 20.2337 -0.0778714 20.6088 0.202105L38.3295 13.4502C38.5967 13.6344 38.7724 13.9422 38.7724 14.2929C38.7724 14.8569 38.3162 15.313 37.7549 15.313H35.8437V32.0678H36.7922C37.3534 32.0678 37.8096 32.5251 37.8096 33.0879V36.7908H38.9814C39.5439 36.7908 40 37.2481 40 37.8109V42.5342C40 43.0982 39.5439 43.5555 38.9814 43.5555L38.9814 43.5556ZM10.4379 32.068H16.8606V15.3132H10.4379V32.068ZM23.141 32.068H29.5637V15.3132H23.141V32.068ZM35.7736 34.1097H4.22726V36.7913H35.772V34.1097H35.7736ZM31.6 15.3126V32.0674H33.8077V15.3126H31.6ZM18.8969 15.3126V32.0674H21.1047V15.3126H18.8969ZM6.19384 15.3126V32.0674H8.40157V15.3126H6.19384ZM20.0005 5.46326C20.9156 5.46326 21.744 5.83531 22.3452 6.43684C22.9451 7.03834 23.3163 7.86896 23.3163 8.78762C23.3163 9.70509 22.9452 10.5356 22.3452 11.1384C21.7453 11.7399 20.9168 12.112 20.0005 12.112C19.0854 12.112 18.257 11.7399 17.6558 11.1384C17.0559 10.5369 16.6848 9.70628 16.6848 8.78762C16.6848 7.87015 17.0559 7.0396 17.6558 6.43684C18.2558 5.83535 19.0842 5.46326 20.0005 5.46326V5.46326ZM20.9051 7.88071C20.6738 7.64879 20.3543 7.50586 20.0005 7.50586C19.6467 7.50586 19.3276 7.64848 19.096 7.88071C18.8646 8.11263 18.7208 8.43291 18.7208 8.78762C18.7208 9.14234 18.8643 9.46229 19.096 9.69453C19.3273 9.92645 19.6467 10.0706 20.0005 10.0706C20.3543 10.0706 20.6734 9.92676 20.9051 9.69453C21.1364 9.46262 21.2802 9.14234 21.2802 8.78762C21.2802 8.43291 21.1367 8.11295 20.9051 7.88071V7.88071Z" fill="#1E4DD8"/>
</svg>
