<svg width="40" height="36" viewBox="0 0 40 36" fill="none" xmlns="http://www.w3.org/2000/svg">
<path d="M39.6368 13.2091H28.0136C27.8139 13.2091 27.6504 13.3725 27.6504 13.5723V15.7516C27.6504 15.9514 27.8139 16.1149 28.0136 16.1149H39.6368C39.8365 16.1149 40 15.9514 40 15.7516V13.5723C40 13.3725 39.8365 13.2091 39.6368 13.2091ZM33.5528 19.3839H28.0136C27.8139 19.3839 27.6504 19.5473 27.6504 19.7471V21.9264C27.6504 22.1262 27.8139 22.2897 28.0136 22.2897H33.5528C33.7526 22.2897 33.916 22.1262 33.916 21.9264V19.7471C33.916 19.5473 33.7526 19.3839 33.5528 19.3839ZM18.4018 9.14551H16.4359C16.1544 9.14551 15.9274 9.37252 15.9274 9.65402V20.9139C15.9274 21.0774 16.0046 21.2272 16.1362 21.3226L22.8967 26.2533C23.1237 26.4168 23.4416 26.3714 23.605 26.1444L24.7719 24.5507V24.5462C24.9353 24.3192 24.8854 24.0013 24.6583 23.8379L18.9058 19.679V9.65402C18.9103 9.37252 18.6788 9.14551 18.4018 9.14551Z" fill="#1E4DD8"/>
<path d="M33.2713 25.1001H30.647C30.3927 25.1001 30.1521 25.2318 30.0159 25.4497C29.4393 26.3623 28.7673 27.2068 27.9955 27.9787C26.6652 29.309 25.1169 30.3532 23.3962 31.0797C21.6118 31.8334 19.7185 32.2148 17.7662 32.2148C15.8093 32.2148 13.916 31.8334 12.1362 31.0797C10.4155 30.3532 8.86722 29.309 7.53692 27.9787C6.20661 26.6484 5.16234 25.1001 4.4359 23.3793C3.68221 21.5996 3.30082 19.7063 3.30082 17.7494C3.30082 15.7925 3.68221 13.9038 4.4359 12.1194C5.16234 10.3987 6.20661 8.85041 7.53692 7.52011C8.86722 6.1898 10.4155 5.14554 12.1362 4.41909C13.916 3.6654 15.8139 3.28402 17.7662 3.28402C19.7231 3.28402 21.6164 3.6654 23.3962 4.41909C25.1169 5.14554 26.6652 6.1898 27.9955 7.52011C28.7673 8.29196 29.4393 9.13645 30.0159 10.0491C30.1521 10.267 30.3927 10.3987 30.647 10.3987H33.2713C33.5846 10.3987 33.7843 10.0718 33.6436 9.79479C30.6833 3.90604 24.6811 0.0785699 17.9796 0.00138491C8.16802 -0.121203 0.0181922 7.91057 3.10184e-05 17.7131C-0.0181301 27.5337 7.941 35.5019 17.7617 35.5019C24.5494 35.5019 30.6515 31.6608 33.6436 25.704C33.7843 25.427 33.58 25.1001 33.2713 25.1001Z" fill="#1E4DD8"/>
</svg>
