<svg width="174" height="54" viewBox="0 0 174 54" fill="none" xmlns="http://www.w3.org/2000/svg">
<path fill-rule="evenodd" clip-rule="evenodd" d="M91.496 17.8584H68.3228V23.1734H76.4015L76.4015 45.4962H83.6298L83.6298 23.1734H91.496V17.8584Z" fill="white"/>
<path d="M117.114 30.0729H104.996V35.1752H110.418V40.4902C98.427 41.4256 99.1144 31.313 100.957 26.1398C105.889 19.4217 113.146 23.3406 116.158 26.1398H117.114V19.5492C115.329 18.2736 110.914 17.5296 108.929 17.317C95.323 16.1264 92.2758 26.2461 92.453 31.4548C92.9632 48.8028 109.107 46.8327 117.114 43.6792V30.0729Z" fill="white" stroke="#434343"/>
<path d="M122.217 17.7517V45.2832H129.232V35.9289L130.508 34.1218L137.736 45.2832H146.453L136.248 30.5076L145.921 17.7517H137.843L129.232 29.6572V17.7517H122.217Z" fill="white" stroke="#434343"/>
<path d="M148.26 17.7517V45.2832H155.276V35.9289L156.551 34.1218L163.779 45.2832H172.496L162.291 30.5076L171.964 17.7517H163.886L155.276 29.6572V17.7517H148.26Z" fill="white" stroke="#434343"/>
<path fill-rule="evenodd" clip-rule="evenodd" d="M26.771 0.0401544C26.771 0.0622393 26.762 0.0803088 26.7509 0.0803355C26.6362 0.0804694 26.0987 0.142896 25.9522 0.173119C25.8488 0.194427 25.6676 0.22987 25.5494 0.251875C25.4313 0.27388 25.2259 0.316925 25.093 0.347523C24.9601 0.378147 24.7789 0.419239 24.6903 0.438861C24.6017 0.458483 24.4628 0.494595 24.3816 0.519116C24.3003 0.54361 24.1554 0.586629 24.0594 0.61471C23.9634 0.642791 23.8245 0.685034 23.7506 0.708591C23.6768 0.732148 23.562 0.7681 23.4956 0.788472C23.2387 0.867281 23.0708 0.926736 22.5425 1.12601C22.1113 1.28869 21.7959 1.41563 21.5424 1.52857C21.4796 1.55652 21.3709 1.60425 21.3008 1.6346C21.0603 1.73868 21.0109 1.76203 20.4336 2.04471C19.8059 2.35211 19.7017 2.42233 18.9604 3.03736C17.3277 4.3919 15.9107 6.0953 15.1035 7.67369C14.7686 8.32866 14.5566 8.86365 14.3149 9.66382C14.286 9.75952 14.2376 9.91698 14.2074 10.0137C14.1772 10.1104 14.1525 10.2094 14.1525 10.2336C14.1525 10.2578 14.1326 10.3353 14.1083 10.4057C14.0839 10.4762 14.0491 10.6061 14.0308 10.6945C13.9882 10.8999 13.9183 11.1925 13.8709 11.3637C13.8505 11.4373 13.8257 11.5578 13.8159 11.6314C13.806 11.705 13.775 11.8548 13.747 11.9643C13.719 12.0739 13.6961 12.1986 13.6961 12.2416C13.6961 12.2845 13.6785 12.3877 13.6571 12.4708C13.6357 12.5539 13.6049 12.7303 13.5888 12.8628C13.5726 12.9953 13.5483 13.1459 13.5347 13.1974C13.521 13.2489 13.4969 13.4357 13.4811 13.6123C13.4652 13.789 13.4323 14.0721 13.4079 14.2414C13.3432 14.6898 13.3456 16.8746 13.4114 17.4002C13.4362 17.599 13.4677 17.8881 13.4814 18.0427C13.495 18.1973 13.5243 18.4262 13.5463 18.5513C13.5684 18.6765 13.5982 18.8572 13.6126 18.9529C13.6417 19.146 13.6752 19.3236 13.7541 19.7024C13.7832 19.8423 13.8153 19.9988 13.8254 20.0501C13.8488 20.1692 13.9236 20.1902 13.9501 20.0852C13.9687 20.0118 13.9786 19.9297 14.0575 19.1938C14.0789 18.995 14.1148 18.7481 14.1374 18.645C14.1599 18.542 14.1786 18.4159 14.1789 18.3648C14.1791 18.3137 14.2021 18.1752 14.23 18.0569C14.2579 17.9387 14.3078 17.7215 14.341 17.5742C14.4685 17.0082 14.7669 15.9856 14.9152 15.6067C14.9354 15.5551 14.9847 15.4226 15.0248 15.3122C15.0649 15.2018 15.1081 15.0912 15.1208 15.0665C15.1335 15.0418 15.1857 14.9153 15.2369 14.7854C15.4975 14.1238 15.9225 13.2698 16.3072 12.6352C16.7584 11.8908 17.5984 10.7083 18.1927 9.98093C18.7486 9.30053 19.465 8.55465 19.9919 8.10752C20.6529 7.54672 21.6145 6.88184 22.368 6.4648C22.4639 6.41169 22.5606 6.3573 22.5827 6.34396C22.649 6.30408 23.6331 5.81883 23.7708 5.75814C23.9777 5.66691 24.1172 5.60726 24.2742 5.54286C24.3554 5.50953 24.4581 5.46581 24.5024 5.44574C24.5918 5.40518 24.7619 5.34332 24.9454 5.28461C25.0118 5.26336 25.1042 5.22807 25.1508 5.20623C25.1973 5.18439 25.2577 5.16645 25.285 5.16637C25.3123 5.16626 25.3692 5.14825 25.4114 5.1263C25.4536 5.10432 25.5503 5.0693 25.6262 5.04845C25.7021 5.0276 25.8005 4.99794 25.8448 4.98254C25.9818 4.93489 26.186 4.87134 26.3683 4.8196C26.6768 4.73203 26.9153 4.6665 27.0529 4.63149C27.1268 4.61269 27.2647 4.57482 27.3595 4.5473C27.4543 4.5198 27.5521 4.49729 27.5768 4.49729C27.6015 4.49729 27.692 4.4732 27.7778 4.44375C27.9394 4.38834 28.1009 4.37225 28.0749 4.41417C28.0667 4.42737 27.9301 4.50404 27.7713 4.58456C27.485 4.7297 27.1524 4.90657 26.9455 5.02363C26.8865 5.05707 26.7959 5.10689 26.7442 5.13435C26.6925 5.16179 26.6049 5.21038 26.5495 5.24231C26.4942 5.27425 26.4096 5.32273 26.3616 5.35006C26.172 5.45802 25.7851 5.68589 25.6786 5.75228C25.6167 5.79082 25.4899 5.86961 25.3967 5.9273C24.9985 6.1739 24.1762 6.72629 23.7909 7.00603C22.8134 7.71574 22.1765 8.24899 21.48 8.94091C20.9043 9.51276 20.4201 10.0954 19.9446 10.7881C19.9193 10.825 19.801 10.9936 19.6818 11.1629C19.4587 11.4795 19.1575 11.9307 18.9704 12.2286C18.912 12.3215 18.8326 12.448 18.7939 12.5097C18.33 13.2486 17.9063 14.0845 17.5565 14.9508C17.5268 15.0244 17.4843 15.1268 17.4622 15.1784C17.44 15.2299 17.4059 15.3202 17.3864 15.3791C17.3669 15.438 17.3194 15.5705 17.2809 15.6736C16.8485 16.8303 16.4674 18.2988 16.2979 19.4615C16.2818 19.5719 16.2456 19.8142 16.2174 19.9999C16.1568 20.3984 16.152 20.5944 16.2016 20.6354C16.239 20.6664 16.3003 20.6293 16.3003 20.5757C16.3003 20.5327 16.629 19.9032 16.7841 19.6489C16.7976 19.6268 16.8579 19.5244 16.9182 19.4213C17.4225 18.5583 18.2058 17.472 18.9827 16.5583C19.9452 15.4264 21.3697 14.0453 22.3878 13.2569C22.4691 13.194 22.7063 13.0069 22.9149 12.8413C23.248 12.5769 23.7532 12.1994 23.952 12.0665C23.9889 12.0418 24.1762 11.9129 24.3681 11.7801C25.0313 11.3211 26.0276 10.7111 26.6368 10.3911C26.9724 10.2148 27.7296 9.83694 27.9541 9.73372C28.5895 9.44158 28.6824 9.40052 29.0464 9.25093C29.1387 9.21299 29.2852 9.15185 29.3719 9.11504C29.4587 9.07824 29.5423 9.04812 29.5577 9.04812C29.5731 9.04812 29.6199 9.0311 29.6617 9.01027C29.7447 8.96896 30.2293 8.78382 30.4223 8.71966C30.4888 8.69757 30.5855 8.66465 30.6371 8.64647C31.0647 8.49616 31.47 8.36962 32.0198 8.21481C32.1232 8.18571 32.2863 8.13825 32.3823 8.10939C32.4782 8.08051 32.573 8.05706 32.5929 8.05727C32.6127 8.05746 32.7094 8.03521 32.8077 8.0078C33.2148 7.89424 34.17 7.68978 34.6459 7.61434C34.7761 7.5937 34.893 7.57041 34.9057 7.56254C34.9185 7.5547 35.0597 7.52999 35.2195 7.50766C35.3793 7.48531 35.5523 7.45619 35.604 7.44291C35.6557 7.42963 35.7705 7.41143 35.8591 7.40249C35.9477 7.39352 36.1651 7.36338 36.3423 7.33548C36.5195 7.30759 36.7732 7.27193 36.9061 7.25622C37.039 7.24053 37.2444 7.21585 37.3626 7.20137C37.9983 7.12349 38.3344 7.08736 38.6244 7.06562C38.8016 7.05234 39.1278 7.02314 39.3493 7.00076C39.7162 6.96368 40.5589 6.91036 41.6851 6.85293C41.9213 6.84091 42.1177 6.82997 42.1214 6.82865C42.1479 6.81915 42.1203 6.69454 42.0902 6.68766C42.0693 6.68289 41.8892 6.48525 41.6899 6.24845C40.7284 5.10587 39.2646 3.7679 38.0606 2.93114C37.3559 2.44139 36.7988 2.0944 36.2349 1.79407C35.7606 1.54147 35.1757 1.25967 35.0402 1.21847C35.0033 1.20725 34.961 1.18892 34.9462 1.17773C34.9183 1.15653 34.3909 0.944886 34.1811 0.870654C33.504 0.631147 32.7301 0.416428 32.2454 0.333603C32.1333 0.314436 31.9944 0.286408 31.9367 0.271283C31.879 0.256185 31.7533 0.236268 31.6574 0.22706C31.5614 0.217824 31.3922 0.193517 31.2815 0.173012C31.1707 0.152533 30.9895 0.128922 30.8788 0.12057C30.3848 0.0832535 30.3418 0.0766413 30.3418 0.0380128C30.3418 0.00554125 30.0811 0 28.5564 0C26.9873 0 26.771 0.00487207 26.771 0.0401544ZM41.1615 7.95338C40.8884 7.96601 40.6069 7.98861 40.536 8.0036C40.4651 8.01862 40.3127 8.03088 40.1974 8.03088C40.082 8.03088 39.9225 8.04413 39.8429 8.0603C39.7634 8.07646 39.6379 8.09362 39.5641 8.09842C39.2721 8.11737 38.7424 8.19026 38.6085 8.22991C38.5307 8.25296 38.3961 8.2718 38.3095 8.2718C38.2228 8.2718 38.1193 8.28819 38.0794 8.30824C38.0395 8.32826 37.9261 8.35182 37.8274 8.3606C37.6536 8.37604 37.2105 8.47113 36.9306 8.55304C36.8555 8.57505 36.7639 8.59304 36.7271 8.59304C36.6483 8.59304 35.9219 8.79804 35.5845 8.9155C35.4549 8.96058 35.204 9.04633 35.0268 9.10602C34.8496 9.16569 34.6218 9.24937 34.5206 9.29194C34.4193 9.33453 34.3242 9.36936 34.3092 9.36936C34.2787 9.36936 33.9897 9.49552 33.5636 9.69495C33.4085 9.7675 33.2342 9.84741 33.1763 9.87249C33.1184 9.8976 32.9976 9.95756 32.9079 10.0058C32.8181 10.054 32.642 10.1431 32.5165 10.2038C32.391 10.2646 32.2246 10.3546 32.1468 10.404C32.069 10.4533 31.9983 10.4937 31.9898 10.4937C31.9812 10.4937 31.8576 10.5629 31.7151 10.6474C31.5726 10.7319 31.4258 10.8146 31.3889 10.8311C31.2955 10.8729 31.2183 10.9657 31.2368 11.0139C31.2699 11.0998 31.4733 11.0968 31.7245 11.0066C31.7688 10.9907 31.9923 10.94 32.2212 10.8939C32.45 10.8477 32.7055 10.7915 32.7888 10.7689C32.8721 10.7464 32.953 10.7357 32.9685 10.7453C32.9841 10.7549 33.079 10.7455 33.1795 10.7246C33.7385 10.6079 34.6797 10.5397 35.7114 10.5411C36.5737 10.5423 36.6121 10.544 37.3357 10.6113C37.9952 10.6727 38.3098 10.7148 38.866 10.8164C39.5982 10.95 40.9886 11.3317 41.8869 11.6458C42.1451 11.736 42.3986 11.8225 42.4502 11.8379C42.5019 11.8533 42.665 11.9166 42.8127 11.9786C42.9604 12.0406 43.1778 12.1308 43.296 12.1791C43.6076 12.3066 44.2676 12.6333 44.4193 12.7351C44.4911 12.7832 44.5576 12.8228 44.5672 12.8231C44.5852 12.8235 45.0245 13.0906 45.2583 13.2433C45.5183 13.413 46.0607 13.8025 46.2383 13.947C46.3378 14.0279 46.5014 14.1604 46.6019 14.2414C47.3672 14.8585 48.3914 15.8933 48.9599 16.6239C49.6619 17.5262 50.0897 18.1168 50.5366 18.8004C50.771 19.1591 50.7058 19.1235 50.1348 18.5811C49.8731 18.3324 49.5804 18.0659 49.4844 17.9888C49.3884 17.9116 49.2918 17.829 49.2696 17.8051C49.2115 17.7423 48.7855 17.3882 48.5074 17.1714C48.3761 17.069 48.2046 16.9311 48.1262 16.8648C47.9427 16.7098 47.7309 16.5471 47.6081 16.4668C47.5547 16.4319 47.4748 16.3705 47.4305 16.3304C47.3862 16.2903 47.2896 16.2173 47.2158 16.1681C47.1419 16.1189 47.0202 16.0357 46.9452 15.9832C46.6443 15.7724 46.3987 15.6067 46.3874 15.6067C46.3808 15.6067 46.2417 15.5163 46.0782 15.4059C45.9147 15.2955 45.7716 15.2045 45.76 15.2037C45.7485 15.2029 45.6243 15.131 45.4841 15.0439C44.5731 14.4784 43.3352 13.9509 42.1445 13.6211C41.9804 13.5757 41.7676 13.5151 41.6717 13.4864C41.5757 13.4578 41.4247 13.4192 41.336 13.4007C41.2474 13.3822 41.1508 13.3544 41.1212 13.3389C41.0917 13.3234 41.0132 13.3019 40.9468 13.2911C40.8803 13.2803 40.8076 13.2619 40.7852 13.2502C40.7267 13.2197 39.9025 13.0368 39.8233 13.0368C39.7867 13.0368 39.6953 13.0194 39.6201 12.9982C39.4153 12.9403 38.9055 12.8558 38.5573 12.8219C38.3875 12.8054 38.176 12.7809 38.0874 12.7675C37.8174 12.7267 37.1969 12.7086 36.141 12.7108C35.0901 12.713 34.9577 12.7177 34.5167 12.7687C34.369 12.7857 34.224 12.7996 34.1945 12.7994C34.0678 12.7987 33.3754 12.8825 33.228 12.9164C33.1394 12.9368 33.0065 12.9591 32.9326 12.966C32.8588 12.973 32.7078 12.9975 32.597 13.0206C32.4863 13.0438 32.3353 13.0743 32.2614 13.0885C31.5774 13.2203 31.5231 13.239 31.5231 13.3421C31.5231 13.4279 31.6043 13.4545 31.9795 13.4914C32.2605 13.5191 32.6134 13.5815 33.1206 13.6933C33.2239 13.716 33.3893 13.7523 33.488 13.7739C33.5866 13.7954 33.6992 13.8251 33.738 13.8399C33.7769 13.8546 33.8446 13.8666 33.8886 13.8666C33.9325 13.8666 34.0158 13.8907 34.0737 13.9202C34.1316 13.9496 34.2143 13.9737 34.2576 13.9737C34.3009 13.9737 34.389 13.9976 34.4533 14.0267C34.5177 14.0558 34.5973 14.0799 34.6302 14.0802C34.6632 14.0805 34.7659 14.11 34.8584 14.1457C34.951 14.1815 35.1295 14.2421 35.255 14.2805C35.3805 14.3189 35.5074 14.3618 35.5369 14.3757C35.6002 14.4057 35.9842 14.545 36.1947 14.6145C36.2759 14.6413 36.3786 14.6826 36.4229 14.7064C36.4672 14.7302 36.5214 14.7498 36.5433 14.7499C36.5652 14.75 36.6498 14.7814 36.7312 14.8197C36.9034 14.9006 36.9371 14.9156 37.3512 15.0954C37.5222 15.1696 37.7484 15.2728 37.8539 15.3248C37.9594 15.3767 38.0615 15.4193 38.0807 15.4193C38.1 15.4193 38.1434 15.4386 38.1771 15.4621C38.2108 15.4857 38.3917 15.5841 38.5791 15.6808C39.2356 16.0197 39.5881 16.213 39.846 16.3756C39.942 16.4361 40.099 16.5306 40.195 16.5856C40.5325 16.7789 41.4641 17.3755 41.7167 17.5601C41.8079 17.6268 41.9348 17.7144 41.9986 17.7548C42.0624 17.7953 42.1871 17.8821 42.2757 17.9477C42.3643 18.0134 42.5033 18.1157 42.5845 18.1752C42.9852 18.4688 43.0747 18.5388 43.7248 19.0676C44.6874 19.8505 46.205 21.3537 46.9302 22.2426C47.0429 22.3808 47.1862 22.5554 47.2486 22.6307C47.6403 23.1036 48.2244 23.8809 48.5179 24.32C48.5696 24.3973 48.7024 24.5916 48.813 24.7518C49.0249 25.0586 49.1746 25.2935 49.2714 25.4713C49.3035 25.5302 49.37 25.6347 49.4191 25.7036C49.4682 25.7724 49.5408 25.8929 49.5804 25.9713C49.62 26.0496 49.678 26.1499 49.7093 26.194C49.7797 26.2934 49.9903 26.6706 50.1054 26.9034C50.1527 26.9991 50.2148 27.1112 50.2434 27.1524C50.3172 27.2587 50.9611 28.5126 50.9611 28.55C50.9611 28.5595 51.0094 28.6483 51.0684 28.7474C51.1275 28.8465 51.1758 28.9424 51.1758 28.9604C51.1758 28.9785 51.2716 29.1886 51.3887 29.4274C51.6955 30.0532 52.231 31.2531 52.2814 31.4275C52.2963 31.479 52.3436 31.5952 52.3865 31.6856C52.4294 31.7761 52.4645 31.8589 52.4645 31.8697C52.4645 31.8899 52.53 32.0442 52.7143 32.4581C52.7733 32.5906 52.861 32.8135 52.909 32.9534C53.0051 33.2331 53.08 33.3211 53.1968 33.2919C53.2439 33.2801 53.2783 33.2375 53.3185 33.141C53.3494 33.067 53.4521 32.8831 53.5468 32.7323C53.7075 32.4765 53.9164 32.0897 54.2947 31.3478C54.3808 31.1788 54.4513 31.031 54.4513 31.0194C54.4513 31.0077 54.5108 30.8749 54.5834 30.7243C54.6561 30.5737 54.7419 30.3842 54.7742 30.3032C54.9298 29.9124 55.0831 29.5141 55.1758 29.2592C55.232 29.1046 55.2922 28.9419 55.3096 28.8978C55.3858 28.7041 55.7149 27.5489 55.7977 27.1845C55.9234 26.631 56.0727 25.7751 56.1152 25.3642C56.1304 25.217 56.1573 24.976 56.175 24.8288C56.2073 24.5587 56.216 23.027 56.1873 22.6605C56.1408 22.0674 56.0281 21.3115 55.9255 20.9039C55.9121 20.8507 55.9011 20.773 55.9011 20.7313C55.9011 20.6896 55.87 20.5404 55.8321 20.3998C55.717 19.9735 55.6947 19.8865 55.6329 19.6221C55.5571 19.2974 55.3815 18.7354 55.1438 18.0561C55.0408 17.7616 54.9378 17.4665 54.9148 17.4002C54.892 17.334 54.8628 17.2664 54.8501 17.2501C54.8373 17.2338 54.8028 17.1507 54.7734 17.0655C54.744 16.9802 54.691 16.8589 54.6556 16.7958C54.6203 16.7327 54.5274 16.5387 54.4491 16.3647C54.3709 16.1907 54.2609 15.9767 54.2046 15.8891C54.1483 15.8015 54.1023 15.7154 54.1023 15.6977C54.1023 15.68 54.0613 15.6048 54.0111 15.5306C53.961 15.4563 53.8801 15.3256 53.8313 15.2401C53.5689 14.7801 53.0176 13.9955 52.5581 13.4279C52.4402 13.2822 52.3075 13.1172 52.2632 13.0611C52.0817 12.8313 51.721 12.3992 51.6067 12.2747C51.2538 11.8901 50.9655 11.5913 50.5922 11.2228C50.1587 10.7951 49.8642 10.5775 49.122 10.1371C48.9595 10.0408 48.7783 9.93245 48.7192 9.89648C48.6602 9.8605 48.5092 9.78059 48.3836 9.71894C48.2581 9.65726 48.0878 9.57165 48.0052 9.52869C47.6377 9.33761 47.4817 9.26324 47.4472 9.26279C47.4269 9.26249 47.3484 9.22721 47.2727 9.18435C47.1971 9.14149 47.0204 9.06284 46.8802 9.0096C46.7399 8.95633 46.5707 8.88919 46.5043 8.86041C45.9211 8.60779 44.5887 8.21759 44.0343 8.13707C43.9235 8.12098 43.7967 8.09708 43.7524 8.08393C43.5795 8.03262 42.653 7.94816 42.1683 7.93954C41.8878 7.93453 41.4347 7.94077 41.1615 7.95338ZM11.9741 8.60506C11.9208 8.64109 11.8425 8.67908 11.8 8.68941C11.7075 8.71195 11.3628 8.84189 11.2126 8.91087C10.8623 9.07173 10.5903 9.19988 10.3535 9.31555C10.2058 9.38767 10.0155 9.47732 9.93063 9.51474C9.84571 9.55217 9.77625 9.59232 9.77625 9.60396C9.77625 9.61561 9.69469 9.65983 9.59503 9.70224C9.49537 9.74461 9.38964 9.79957 9.36011 9.82436C9.28002 9.89155 8.91779 10.0921 8.87655 10.0921C8.85682 10.0921 8.80653 10.1199 8.76481 10.1538C8.69401 10.2113 8.61956 10.2607 8.32284 10.4467C8.16677 10.5446 7.93037 10.7012 7.77713 10.8082C7.70861 10.8561 7.64691 10.8952 7.63999 10.8952C7.63309 10.8952 7.55818 10.9494 7.47353 11.0157C7.3889 11.0819 7.30758 11.1362 7.29282 11.1363C7.27805 11.1363 7.21764 11.1815 7.15858 11.2366C7.09951 11.2917 6.99373 11.3743 6.92349 11.4202C6.85326 11.4661 6.74453 11.5469 6.68186 11.5998C6.6192 11.6526 6.46356 11.7777 6.33601 11.8778C5.49916 12.5341 4.42661 13.64 3.72104 14.574C3.65513 14.6612 3.60122 14.7419 3.60122 14.7531C3.60122 14.7643 3.55289 14.8292 3.49383 14.8973C3.43476 14.9653 3.38643 15.0386 3.38643 15.0601C3.38643 15.0816 3.33996 15.1502 3.28318 15.2124C3.22639 15.2747 3.16719 15.363 3.15165 15.4088C3.1361 15.4546 3.07988 15.5488 3.0267 15.6183C2.97354 15.6878 2.93002 15.7601 2.93002 15.7791C2.93002 15.7981 2.90586 15.8442 2.87632 15.8817C2.84679 15.9191 2.82263 15.9662 2.82263 15.9864C2.82263 16.0066 2.77527 16.0859 2.71741 16.1626C2.65955 16.2394 2.60414 16.3388 2.59431 16.3835C2.57485 16.4718 2.48493 16.6416 2.34677 16.8508C2.29839 16.9241 2.25877 17.0085 2.25871 17.0382C2.25866 17.068 2.23637 17.1288 2.20918 17.1732C2.18198 17.2177 2.15148 17.2978 2.14144 17.3512C2.13137 17.4047 2.10654 17.4621 2.08624 17.479C2.06592 17.4957 2.04218 17.5378 2.03348 17.5723C2.02478 17.6069 1.97528 17.7099 1.92346 17.8013C1.87164 17.8927 1.82914 17.9814 1.82901 17.9984C1.82888 18.0154 1.79905 18.0895 1.76272 18.1632C1.7264 18.2368 1.6963 18.3285 1.69584 18.367C1.69539 18.4055 1.67085 18.4676 1.64132 18.5051C1.61178 18.5425 1.58754 18.6074 1.58743 18.6492C1.58735 18.6911 1.56327 18.7615 1.53392 18.8056C1.50458 18.8498 1.4805 18.9105 1.48042 18.9405C1.48031 18.9705 1.45743 19.0397 1.42957 19.0942C1.40172 19.1486 1.37063 19.2373 1.36051 19.2911C1.35036 19.345 1.32574 19.4143 1.30574 19.4453C1.28577 19.4763 1.26072 19.5498 1.25006 19.6087C1.23943 19.6676 1.20834 19.7578 1.18095 19.8091C1.15359 19.8604 1.1312 19.9361 1.1312 19.9773C1.1312 20.0186 1.11313 20.0798 1.09104 20.1134C1.06894 20.1471 1.03898 20.228 1.02446 20.2932C1.00996 20.3584 0.9619 20.5503 0.917682 20.7197C0.873463 20.889 0.829647 21.0877 0.820304 21.1614C0.810961 21.235 0.78116 21.3735 0.75407 21.4692C0.72698 21.5649 0.691004 21.7695 0.674144 21.9238C0.657256 22.0781 0.637228 22.2144 0.62963 22.2267C0.598915 22.2762 0.512197 23.4551 0.516975 23.758C0.517674 23.8022 0.517512 23.8745 0.516626 23.9186C0.515714 23.9628 0.510881 24.1917 0.505834 24.4272C0.500813 24.6628 0.505941 24.8818 0.517271 24.914C0.528574 24.9461 0.527795 25.0073 0.515526 25.05C0.500544 25.102 0.505699 25.1571 0.531205 25.2176C0.552066 25.2671 0.564228 25.3204 0.55816 25.3362C0.537997 25.3885 0.59274 26.6737 0.621495 26.8231C0.637066 26.9041 0.667002 27.1631 0.687997 27.3987C0.708992 27.6342 0.744807 27.8861 0.767601 27.9584C0.790368 28.0307 0.809108 28.1511 0.809216 28.2261C0.809323 28.3171 0.827123 28.3891 0.862724 28.4427C0.892069 28.4869 0.916151 28.5566 0.916232 28.5977C0.916339 28.6387 0.940583 28.7196 0.970116 28.7773C0.999648 28.835 1.02381 28.904 1.02381 28.9306C1.02381 28.9571 1.04797 29.0238 1.07751 29.0788C1.10704 29.1337 1.1312 29.1923 1.1312 29.2089C1.1312 29.2255 1.16033 29.3068 1.19596 29.3897C1.23159 29.4725 1.29938 29.6366 1.34666 29.7544C1.39391 29.8722 1.56448 30.2336 1.72567 30.5575C2.01673 31.1423 2.08307 31.2683 2.28945 31.6283C2.34854 31.7313 2.41709 31.8518 2.44176 31.896C2.52456 32.0442 2.77086 32.416 2.79688 32.432C2.81105 32.4408 2.82263 32.4666 2.82263 32.4894C2.82263 32.5123 2.87095 32.5885 2.93002 32.6589C2.98908 32.7292 3.03741 32.7991 3.03741 32.8141C3.03741 32.8292 3.08278 32.8998 3.13822 32.971C3.19367 33.0423 3.27523 33.1548 3.31945 33.2209C3.36367 33.2871 3.44518 33.3889 3.50054 33.4472C3.55593 33.5054 3.60122 33.564 3.60122 33.5772C3.60122 33.6685 4.64918 34.7921 5.04999 35.1306C5.17494 35.2361 5.29852 35.3405 5.32459 35.3626C5.35066 35.3847 5.42965 35.4485 5.5001 35.5045C5.81577 35.755 5.93466 35.8445 5.95162 35.8445C5.96803 35.8445 6.05472 35.9052 6.40734 36.1637C6.46668 36.2072 6.54526 36.2586 6.58196 36.2779C6.61866 36.2971 6.7151 36.3582 6.79624 36.4135C7.09253 36.6154 7.39817 36.8082 7.42214 36.8082C7.43565 36.8082 7.50432 36.8503 7.57472 36.9019C7.64511 36.9534 7.71366 36.9956 7.727 36.9956C7.74037 36.9956 7.87018 37.0678 8.01548 37.1562C8.16081 37.2445 8.29994 37.3168 8.32464 37.3168C8.34936 37.3168 8.41726 37.3514 8.47555 37.3936C8.60909 37.4905 8.94751 37.6648 9.00196 37.6648C9.02456 37.6648 9.06229 37.6859 9.08578 37.7117C9.12739 37.7572 9.23715 37.8212 9.37353 37.8794C9.41045 37.8952 9.47086 37.9254 9.50777 37.9466C9.54469 37.9679 9.60625 37.9854 9.64456 37.9856C9.68288 37.9859 9.73612 38.0101 9.76283 38.0396C9.78954 38.069 9.83674 38.0933 9.86767 38.0936C9.8986 38.0939 9.97603 38.1293 10.0397 38.1724C10.1034 38.2154 10.2122 38.2714 10.2813 38.2969C10.3506 38.3223 10.4253 38.3581 10.4475 38.3765C10.4696 38.3948 10.5361 38.418 10.5951 38.428C10.6542 38.438 10.7352 38.4691 10.7753 38.4972C10.8153 38.5252 10.8817 38.5483 10.9229 38.5484C10.9641 38.5485 11.0341 38.5725 11.0784 38.6017C11.1227 38.631 11.1933 38.655 11.2352 38.6551C11.2772 38.6552 11.3423 38.6794 11.3798 38.7088C11.4182 38.7389 11.4887 38.7624 11.5409 38.7624C11.5931 38.7624 11.6636 38.7858 11.702 38.8159C11.7403 38.846 11.8109 38.8694 11.8631 38.8694C11.9152 38.8694 11.9858 38.8929 12.0242 38.923C12.0617 38.9524 12.1302 38.9765 12.1765 38.9765C12.2227 38.9765 12.3026 38.9988 12.3541 39.0261C12.4055 39.0534 12.496 39.084 12.555 39.0941C12.6141 39.1043 12.6987 39.1289 12.743 39.1489C12.865 39.2041 13.3997 39.3245 13.5223 39.3245C13.5818 39.3245 13.6557 39.3422 13.6866 39.3638C13.7447 39.4044 13.8297 39.4223 14.3897 39.512C14.5718 39.5412 14.7297 39.5705 14.7405 39.5772C14.7611 39.5899 15.1534 39.6388 15.4949 39.6713C15.6056 39.6818 15.7844 39.7064 15.8921 39.7258C16.1281 39.7683 16.1617 39.7504 16.124 39.602C16.1102 39.548 16.0748 39.4908 16.0453 39.4751C16.0157 39.4593 15.9486 39.4189 15.8961 39.3854C15.8437 39.3519 15.7689 39.3245 15.7299 39.3245C15.691 39.3245 15.6522 39.3133 15.6437 39.2996C15.6261 39.2712 15.3113 39.1104 15.2733 39.1104C15.2596 39.1104 15.2176 39.0863 15.18 39.0568C15.1425 39.0274 15.0899 39.0033 15.0631 39.0033C15.0111 39.0033 14.7864 38.8917 14.7175 38.8317C14.6947 38.8118 14.6499 38.7876 14.618 38.7779C14.5861 38.7682 14.5454 38.7427 14.5275 38.7212C14.5096 38.6997 14.4686 38.6821 14.4363 38.6821C14.4041 38.6821 14.3368 38.6519 14.2867 38.6151C14.2367 38.5783 14.1859 38.5482 14.1738 38.5482C14.1618 38.5482 14.094 38.5076 14.0231 38.458C13.9523 38.4083 13.8662 38.3588 13.8318 38.3479C13.7974 38.337 13.715 38.2868 13.6486 38.2363C13.5823 38.1858 13.4903 38.1271 13.4442 38.1059C13.3982 38.0847 13.3001 38.0251 13.2262 37.9734C13.1524 37.9217 12.9487 37.7799 12.7736 37.6583C12.2275 37.2792 11.8986 37.0202 11.241 36.451C10.7076 35.9894 9.77856 35.0531 9.57489 34.7719C9.54536 34.7311 9.40038 34.5501 9.25272 34.3696C9.10505 34.1892 8.96611 34.0147 8.94397 33.9818C8.92182 33.949 8.79512 33.7794 8.66244 33.6051C8.33699 33.1773 8.05001 32.7765 7.95926 32.623C7.94189 32.5936 7.90868 32.5589 7.88543 32.546C7.86221 32.533 7.8432 32.4936 7.8432 32.4584C7.8432 32.4232 7.83163 32.3872 7.81745 32.3785C7.79122 32.3623 7.51729 31.9557 7.48338 31.8826C7.47315 31.8605 7.43522 31.7942 7.39911 31.7353C7.36302 31.6765 7.31596 31.5912 7.29456 31.5458C7.27316 31.5005 7.23684 31.4478 7.21383 31.4288C7.19082 31.4097 7.172 31.3734 7.172 31.348C7.172 31.3226 7.14784 31.2741 7.1183 31.2401C7.08877 31.2062 7.06461 31.1638 7.06461 31.1459C7.06461 31.1281 7.0412 31.0838 7.01258 31.0475C6.98396 31.0113 6.95257 30.9499 6.94283 30.9112C6.93308 30.8725 6.90894 30.8274 6.88918 30.811C6.86942 30.7947 6.84504 30.744 6.835 30.6984C6.82496 30.6528 6.79403 30.5783 6.76627 30.5329C6.73851 30.4875 6.71574 30.4342 6.71569 30.4145C6.71564 30.3947 6.69142 30.3479 6.66189 30.3105C6.63236 30.273 6.60792 30.2109 6.6076 30.1724C6.60728 30.1339 6.58338 30.0723 6.5545 30.0355C6.52561 29.9987 6.50171 29.9431 6.50139 29.9119C6.50107 29.8808 6.47664 29.8247 6.4471 29.7872C6.41757 29.7498 6.39314 29.685 6.39282 29.6431C6.3925 29.6012 6.36833 29.5145 6.33912 29.4503C6.30991 29.3861 6.28602 29.3194 6.28602 29.302C6.28602 29.2847 6.2614 29.2228 6.2313 29.1644C6.2012 29.1061 6.16944 29.0042 6.16072 28.9379C6.15199 28.8717 6.12224 28.7799 6.09462 28.734C6.06699 28.6881 6.04438 28.6081 6.04438 28.5562C6.04438 28.5044 6.02049 28.4094 5.99128 28.3452C5.96207 28.2811 5.93791 28.1864 5.93758 28.1348C5.93726 28.0833 5.91339 27.9689 5.88456 27.8805C5.82262 27.6909 5.75652 27.3828 5.70793 27.0573C5.6887 26.9285 5.65998 26.7627 5.64411 26.689C5.60725 26.5175 5.46122 25.3083 5.43891 24.9894C5.43375 24.9158 5.4236 24.7712 5.41638 24.6682C5.40414 24.4934 5.39984 23.1533 5.41037 22.7943C5.41297 22.706 5.42981 22.5914 5.44777 22.5398C5.46576 22.4881 5.47805 22.4038 5.4751 22.3524C5.47215 22.301 5.47217 22.1692 5.47515 22.0595C5.48313 21.7663 5.52748 21.8502 5.58915 22.275C5.6178 22.4723 5.67267 22.7782 5.71112 22.9549C5.74954 23.1316 5.79599 23.3546 5.81432 23.4504C5.83266 23.5463 5.86139 23.6503 5.87817 23.6815C5.89495 23.7128 5.92244 23.8271 5.93922 23.9356C5.95603 24.044 5.98492 24.1629 6.00341 24.1997C6.02194 24.2365 6.04511 24.3293 6.05491 24.4059C6.06473 24.4826 6.09631 24.597 6.12509 24.6603C6.1539 24.7235 6.17779 24.8234 6.17822 24.8823C6.17865 24.9432 6.20198 25.024 6.23232 25.0697C6.26489 25.1187 6.28572 25.1953 6.28583 25.2663C6.28596 25.3418 6.30484 25.4064 6.33971 25.4506C6.37547 25.4959 6.3936 25.5599 6.394 25.6422C6.3944 25.7234 6.41258 25.7886 6.4471 25.8327C6.47884 25.8731 6.49989 25.9419 6.50032 26.0067C6.50069 26.0655 6.52512 26.1532 6.5546 26.2014C6.58408 26.2496 6.60819 26.3221 6.60819 26.3624C6.60819 26.4027 6.63058 26.4777 6.65794 26.5291C6.68533 26.5804 6.71655 26.6705 6.72734 26.7294C6.73814 26.7883 6.76509 26.8567 6.78724 26.8813C6.80939 26.9059 6.83455 26.9781 6.84311 27.0418C6.85168 27.1055 6.88081 27.1938 6.90784 27.238C6.93488 27.2822 6.95705 27.3438 6.95711 27.375C6.95716 27.4061 6.98138 27.4622 7.01091 27.4997C7.04044 27.5371 7.06461 27.5973 7.06461 27.6335C7.06461 27.6697 7.08708 27.728 7.11454 27.7631C7.14201 27.7983 7.17093 27.8631 7.17879 27.9073C7.19528 27.9999 7.30922 28.2747 7.35287 28.3271C7.36914 28.3467 7.39132 28.3988 7.40214 28.4428C7.41296 28.4869 7.44413 28.5517 7.47141 28.5868C7.49871 28.622 7.52129 28.6701 7.52161 28.6939C7.52194 28.7177 7.54583 28.7673 7.57472 28.8041C7.60361 28.8409 7.6275 28.8894 7.62782 28.9119C7.62815 28.9344 7.64788 28.9805 7.67167 29.0144C7.69545 29.0482 7.75994 29.1623 7.81501 29.2679C7.96455 29.5547 8.05922 29.7182 8.12932 29.8105C8.16392 29.856 8.19222 29.9013 8.19222 29.911C8.19222 29.9207 8.2489 30.0099 8.31819 30.1092C8.38746 30.2085 8.48605 30.35 8.53727 30.4236C8.58847 30.4973 8.71605 30.6707 8.82073 30.8092C8.92544 30.9476 9.02878 31.0861 9.05042 31.117C9.14557 31.2529 9.3498 31.518 9.58711 31.8137C10.0685 32.4133 10.1278 32.4841 10.1668 32.5059C10.1883 32.5179 10.2058 32.5392 10.2058 32.5532C10.2058 32.6537 11.6285 34.1185 12.0583 34.4605C12.1838 34.5604 12.341 34.6928 12.4075 34.7547C12.474 34.8167 12.5888 34.9129 12.6625 34.9686C12.7363 35.0243 12.9012 35.1508 13.0289 35.2497C13.3662 35.5108 13.6102 35.6904 13.7025 35.7454C13.7469 35.7719 13.8356 35.8321 13.8996 35.8792C14.1493 36.0631 14.6286 36.3795 14.6894 36.4006C14.7116 36.4083 14.7539 36.4353 14.7834 36.4606C14.8515 36.5189 15.3233 36.793 15.5351 36.8972C15.6237 36.9409 15.7828 37.0285 15.8887 37.0921C15.9945 37.1556 16.1153 37.2161 16.1571 37.2266C16.199 37.237 16.3432 37.3088 16.4778 37.3862C16.6122 37.4636 16.7693 37.54 16.8268 37.5561C16.8842 37.5722 16.9547 37.6032 16.9834 37.6251C17.0361 37.6653 17.2002 37.6784 17.2781 37.6486C17.385 37.6076 17.3188 37.5102 16.8843 37.069C16.6443 36.8253 16.4178 36.5865 16.3809 36.5383C16.3439 36.4901 16.2707 36.4016 16.2181 36.3416C16.135 36.2469 15.9968 36.0779 15.6694 35.6704C15.6251 35.6153 15.5707 35.5429 15.5486 35.5096C15.5264 35.4762 15.4531 35.3783 15.3857 35.292C15.1943 35.047 14.445 33.9495 14.3311 33.7475C14.2092 33.531 14.1891 33.4979 14.0917 33.3521C14.0365 33.2696 13.9914 33.1902 13.9914 33.1756C13.9914 33.161 13.9672 33.1272 13.9377 33.1006C13.9082 33.074 13.884 33.0314 13.884 33.006C13.884 32.9807 13.8661 32.9451 13.8442 32.927C13.8223 32.9089 13.7612 32.808 13.7084 32.7029C13.615 32.5169 13.5501 32.3929 13.5035 32.3109C13.4909 32.2888 13.4567 32.2226 13.4276 32.1637C13.3984 32.1048 13.3636 32.0385 13.3502 32.0164C13.3369 31.9943 13.3126 31.9462 13.2964 31.9093C13.2802 31.8725 13.2568 31.8244 13.2444 31.8023C13.1613 31.6537 13.1054 31.5319 13.1054 31.4994C13.1054 31.4785 13.082 31.4318 13.0534 31.3955C13.0248 31.3593 12.9927 31.2944 12.9821 31.2514C12.9716 31.2084 12.9407 31.1445 12.9134 31.1093C12.8861 31.0742 12.8638 31.0219 12.8638 30.9931C12.8638 30.9643 12.8396 30.9101 12.8101 30.8726C12.7805 30.8352 12.7563 30.7851 12.7562 30.7613C12.7561 30.7376 12.732 30.682 12.7027 30.6378C12.6733 30.5936 12.649 30.5334 12.6486 30.5039C12.6481 30.4745 12.6242 30.4203 12.5953 30.3835C12.5664 30.3467 12.5425 30.2864 12.542 30.2496C12.5416 30.2128 12.5172 30.1466 12.4879 30.1024C12.4586 30.0582 12.4344 29.998 12.4343 29.9686C12.4341 29.9391 12.4099 29.8756 12.3804 29.8274C12.3509 29.7792 12.3268 29.7248 12.3268 29.7067C12.3268 29.6885 12.2966 29.6171 12.2597 29.5479C12.2228 29.4788 12.1926 29.3919 12.1926 29.3547C12.1926 29.3176 12.1685 29.2478 12.139 29.1996C12.1095 29.1514 12.0853 29.0837 12.0853 29.0492C12.0852 29.0147 12.061 28.9559 12.0315 28.9185C12.002 28.881 11.9778 28.8154 11.9778 28.7726C11.9778 28.7299 11.9536 28.6476 11.9241 28.5899C11.8946 28.5322 11.8704 28.4632 11.8704 28.4367C11.8704 28.4101 11.8478 28.3463 11.8202 28.2949C11.7925 28.2435 11.7608 28.1474 11.7496 28.0813C11.7384 28.0152 11.7066 27.9191 11.679 27.8677C11.6514 27.8163 11.6288 27.7483 11.6288 27.7165C11.6288 27.6848 11.6049 27.6063 11.5757 27.5421C11.5464 27.478 11.5224 27.3953 11.5222 27.3585C11.5221 27.3217 11.4983 27.2193 11.4693 27.131C11.3673 26.8193 11.2823 26.5094 11.15 25.9665C10.9129 24.9937 10.8764 24.8303 10.8767 24.7446C10.8769 24.6983 10.8537 24.5839 10.8253 24.4903C10.7968 24.3967 10.766 24.2358 10.7567 24.1328C10.7474 24.0297 10.7171 23.849 10.6892 23.7312C10.6614 23.6135 10.6334 23.3837 10.627 23.2206C10.6201 23.0434 10.6009 22.898 10.5793 22.8592C10.5549 22.8153 10.5372 22.6301 10.5244 22.2857C10.514 22.0059 10.4899 21.6807 10.4707 21.5629C10.4456 21.4088 10.4357 20.9922 10.4357 20.0772C10.4356 18.835 10.4631 18.2135 10.5594 17.2798C10.5746 17.1325 10.5903 16.9338 10.5944 16.8381C10.5985 16.7424 10.6156 16.6041 10.6324 16.5308C10.6492 16.4575 10.6616 16.3189 10.6599 16.2229C10.658 16.1096 10.6719 16.0202 10.6997 15.9681C10.7288 15.9134 10.7425 15.8172 10.7426 15.667C10.7427 15.5219 10.7603 15.3935 10.794 15.2922C10.8222 15.2075 10.8525 15.0319 10.8614 14.902C10.8703 14.7722 10.8943 14.6336 10.9147 14.5942C10.9351 14.5548 10.9605 14.402 10.9711 14.2548C10.9833 14.0868 11.0047 13.971 11.0285 13.944C11.0494 13.9202 11.0784 13.7939 11.093 13.6629C11.1076 13.532 11.1375 13.3795 11.1594 13.324C11.1813 13.2685 11.1992 13.1765 11.1992 13.1195C11.1992 13.0625 11.2231 12.9634 11.2523 12.8992C11.2815 12.835 11.3061 12.7222 11.3069 12.6486C11.3077 12.575 11.3317 12.4485 11.3603 12.3675C11.3889 12.2866 11.4126 12.1815 11.4131 12.134C11.4136 12.0866 11.4369 11.9962 11.4649 11.9333C11.5173 11.8155 11.612 11.4133 11.6431 11.1763C11.6527 11.1027 11.6726 11.0279 11.6872 11.0102C11.7019 10.9925 11.7301 10.9082 11.75 10.8228C11.7699 10.7375 11.8178 10.5593 11.8564 10.4268C11.895 10.2942 11.9793 9.98104 12.0436 9.73075C12.108 9.48045 12.1873 9.18532 12.2199 9.07489C12.3305 8.69942 12.3254 8.61646 12.1887 8.56894C12.0783 8.53056 12.0859 8.52927 11.9741 8.60506ZM27.273 16.5529C27.264 16.5763 27.1891 16.5948 27.0588 16.6058C26.9485 16.6151 26.8236 16.6359 26.7811 16.652C26.7387 16.6681 26.6193 16.6977 26.516 16.7176C26.3 16.7594 26.0423 16.8248 25.9253 16.8676C25.881 16.8838 25.7844 16.9132 25.7105 16.9329C25.533 16.9802 25.3344 17.048 25.193 17.1094C25.1298 17.1368 25.0603 17.1593 25.0385 17.1593C25.0167 17.1593 24.9538 17.1834 24.8987 17.2128C24.8436 17.2423 24.7847 17.2664 24.7678 17.2664C24.7398 17.2664 24.673 17.2941 24.301 17.46C23.8289 17.6706 22.9937 18.1101 22.6633 18.3217C22.3549 18.5193 22.1386 18.6649 21.925 18.8186C21.6239 19.0353 21.6792 18.9922 21.3477 19.2675C20.3152 20.1251 19.6191 21.0593 18.9992 22.4195C18.9589 22.5079 18.9095 22.6163 18.8893 22.6605C18.8555 22.7344 18.838 22.7807 18.7427 23.0486C18.7243 23.1001 18.6884 23.1965 18.6628 23.2628C18.6372 23.329 18.5911 23.4676 18.5603 23.5706C18.5295 23.6737 18.4803 23.8363 18.451 23.932C18.4217 24.0277 18.3898 24.1542 18.3802 24.2131C18.3706 24.272 18.3457 24.3684 18.3247 24.4272C18.3038 24.4861 18.2754 24.6066 18.2617 24.6949C18.2479 24.7833 18.2178 24.9214 18.1948 25.0019C18.1717 25.0824 18.1528 25.198 18.1528 25.2587C18.1528 25.3194 18.1346 25.4282 18.1124 25.5005C18.0902 25.5727 18.0602 25.7644 18.0458 25.9263C18.0314 26.0883 18.0013 26.3292 17.9789 26.4617C17.9565 26.5942 17.9382 26.8183 17.9381 26.9596C17.938 27.3604 17.9096 27.6262 17.867 27.6262C17.8372 27.6262 17.8306 27.7805 17.8306 28.4828C17.8306 29.2264 17.836 29.3395 17.8709 29.3395C17.8931 29.3395 17.9118 29.3425 17.9124 29.3462C17.9131 29.3499 17.9245 29.6239 17.9378 29.9552C17.9511 30.2875 17.9806 30.6515 18.0037 30.7673C18.0266 30.8827 18.0456 31.0574 18.0459 31.1555C18.0462 31.2535 18.0654 31.4181 18.0886 31.5212C18.1117 31.6243 18.1405 31.8135 18.1524 31.9418C18.1643 32.0701 18.1951 32.2418 18.2208 32.3233C18.2653 32.4644 18.2719 32.4715 18.3579 32.4715C18.416 32.4715 18.4482 32.4586 18.4482 32.4352C18.4482 32.4152 18.5841 32.2695 18.7502 32.1113C18.9163 31.9532 19.2455 31.635 19.4818 31.4043C19.9825 30.9152 20.6248 30.2949 21.1209 29.8213C21.4324 29.5239 21.9948 28.9813 23.535 27.4919C23.7865 27.2488 24.1614 26.8877 24.3681 26.6897C24.8775 26.2016 25.358 25.7378 26.422 24.7071C27.9829 23.195 28.5456 22.6607 28.5871 22.6514C28.6265 22.6426 28.7522 22.7192 28.8976 22.8406C28.9376 22.8741 29.104 23.0038 29.2673 23.1289C29.4306 23.2541 29.6892 23.4528 29.8419 23.5706C29.9947 23.6884 30.2452 23.8805 30.3985 23.9975C30.5519 24.1144 30.8345 24.3311 31.0264 24.479C31.2184 24.6269 31.3875 24.7572 31.4023 24.7685C31.4171 24.7798 31.5579 24.8883 31.7154 25.0097C32.1673 25.3581 32.5877 25.6812 32.882 25.9061C33.6522 26.495 33.7998 26.6104 33.8312 26.6482C33.8501 26.6708 33.8882 26.6893 33.9159 26.6893C33.965 26.6893 33.9663 26.5854 33.9663 22.7296C33.9663 19.5857 33.9594 18.7676 33.9327 18.7588C33.9085 18.7508 33.8966 18.64 33.89 18.3617C33.8827 18.055 33.872 17.966 33.8379 17.9279C33.7916 17.8762 33.5322 17.7487 33.0266 17.5292C32.9602 17.5003 32.8861 17.4664 32.8621 17.4537C32.8381 17.4411 32.7173 17.3925 32.5937 17.3459C32.47 17.2993 32.3145 17.24 32.248 17.2142C32.1032 17.1578 31.9029 17.0897 31.7379 17.0406C31.6715 17.0209 31.5808 16.9918 31.5365 16.976C31.3601 16.9132 31.1797 16.8597 31.026 16.8247C30.9372 16.8045 30.83 16.7749 30.7879 16.7589C30.7457 16.7429 30.6371 16.7183 30.5466 16.7041C30.4561 16.6899 30.316 16.6601 30.2353 16.6378C30.1545 16.6154 30.0303 16.5971 29.9592 16.5971C29.8691 16.5971 29.8253 16.585 29.8146 16.557C29.8011 16.5221 29.6348 16.5168 28.543 16.5168C27.5153 16.5168 27.2844 16.5234 27.273 16.5529ZM39.1211 23.3086C39.0989 23.3162 38.96 23.4396 38.8123 23.583C38.6647 23.7263 38.1814 24.1848 37.7384 24.6018C37.2954 25.0189 36.812 25.4754 36.6642 25.6164C36.5164 25.7575 36.2087 26.0475 35.9804 26.261C35.2401 26.9533 34.555 27.5996 34.0066 28.1228C33.7112 28.4045 33.0712 29.0074 32.5843 29.4624C32.0974 29.9175 31.5538 30.4273 31.3762 30.5953C29.6908 32.19 28.8245 32.9948 28.7863 33.0014C28.7612 33.0058 28.6612 32.9455 28.564 32.8676C28.4667 32.7896 28.149 32.5391 27.8579 32.3109C27.5668 32.0827 27.1144 31.7273 26.8526 31.5212C26.5908 31.3151 26.1361 30.9577 25.8422 30.727C25.5483 30.4963 25.2427 30.2553 25.163 30.1916C25.0834 30.1278 24.9867 30.0518 24.9482 30.0228C24.8693 29.9632 23.9084 29.2042 23.6871 29.0267C23.5296 28.9004 23.4827 28.8869 23.4474 28.958C23.4344 28.984 23.4274 30.9061 23.4315 33.2842C23.4382 37.1634 23.4429 37.568 23.4819 37.611C23.5376 37.6724 24.0506 37.9242 24.5158 38.1185C24.6265 38.1648 24.7474 38.2189 24.7843 38.2388C24.8212 38.2586 24.8937 38.2875 24.9454 38.303C24.997 38.3185 25.1239 38.3629 25.2273 38.4017C25.3306 38.4405 25.4817 38.4937 25.5629 38.52C25.6441 38.5464 25.7407 38.5806 25.7777 38.596C25.8424 38.6232 26.0806 38.6942 26.5025 38.812C26.8499 38.9091 27.4054 39.0193 27.9456 39.0984C28.0084 39.1076 28.0597 39.1261 28.0597 39.1395C28.0597 39.1757 29.6099 39.1715 29.622 39.1353C29.6272 39.1196 29.7279 39.095 29.8457 39.0807C30.1995 39.0376 30.6919 38.9508 30.8983 38.8951C31.0051 38.8663 31.1105 38.8427 31.1327 38.8427C31.1699 38.8427 31.3595 38.788 31.6574 38.6914C31.7238 38.6699 31.8265 38.6405 31.8856 38.626C32.0058 38.5967 32.2321 38.5137 32.3986 38.4378C32.4593 38.4102 32.5224 38.3876 32.5389 38.3876C32.5664 38.3876 32.6388 38.3576 32.9356 38.2234C32.9963 38.1959 33.054 38.1734 33.0639 38.1734C33.1123 38.1734 34.0529 37.701 34.3959 37.5045C36.2612 36.4354 37.3423 35.3315 38.2236 33.5958C38.369 33.3094 38.5039 33.0135 38.5567 32.8653C38.584 32.7886 38.6388 32.6415 38.6786 32.5384C38.7183 32.4354 38.7671 32.2968 38.7871 32.2306C38.807 32.1643 38.8409 32.0559 38.8624 31.9897C38.9933 31.5864 39.0137 31.5159 39.0137 31.4667C39.0137 31.4368 39.0379 31.3437 39.0674 31.2599C39.0969 31.1762 39.1211 31.0732 39.1211 31.0311C39.1211 30.9891 39.144 30.8774 39.1719 30.7828C39.1999 30.6883 39.235 30.5267 39.25 30.4236C39.2651 30.3206 39.2958 30.1218 39.3185 29.9819C39.4243 29.3282 39.4507 29.0801 39.5006 28.2687C39.5441 27.5626 39.551 27.2398 39.5371 26.5554C39.5277 26.0916 39.5085 25.5917 39.4945 25.4445C39.4804 25.2973 39.4563 25.0143 39.441 24.8157C39.4256 24.617 39.3957 24.3641 39.3745 24.2535C39.3532 24.1429 39.3359 24.0103 39.3359 23.9588C39.336 23.7958 39.2513 23.3974 39.2055 23.3452C39.1812 23.3175 39.1432 23.3011 39.1211 23.3086ZM45.2603 25.904C45.2205 25.9437 45.2471 26.0555 45.3297 26.1954C45.3777 26.2767 45.4411 26.3839 45.4706 26.4337C45.5708 26.6024 46.021 27.4462 46.021 27.4653C46.021 27.4758 46.0654 27.5674 46.1196 27.669C46.1738 27.7706 46.239 27.908 46.2646 27.9742C46.2901 28.0405 46.362 28.2151 46.4244 28.3624C46.6681 28.9384 46.8923 29.5871 47.095 30.3032C47.1221 30.3989 47.1696 30.5615 47.2005 30.6646C47.2315 30.7676 47.2566 30.8725 47.2564 30.8975C47.2562 30.9225 47.2746 31.0129 47.2974 31.0983C47.3687 31.3657 47.447 31.7519 47.485 32.0233C47.5051 32.167 47.53 32.2981 47.5404 32.3148C47.5605 32.3474 47.6059 32.7473 47.6721 33.4754C47.7421 34.2451 47.7329 36.9088 47.6593 37.2097C47.6467 37.2613 47.6228 37.4721 47.6062 37.6782C47.5896 37.8843 47.5651 38.1012 47.5516 38.16C47.5382 38.2189 47.5134 38.3514 47.4964 38.4545C47.3994 39.0429 47.0557 40.2588 46.8041 40.9039C46.4291 41.8653 45.8825 42.9764 45.4534 43.6497C45.3964 43.739 45.3498 43.8199 45.3498 43.8294C45.3498 43.8388 45.2754 43.9524 45.1844 44.0818C45.0933 44.2112 44.9689 44.3893 44.9078 44.4777C44.735 44.7275 44.5944 44.9264 44.5388 44.9997C44.5109 45.0365 44.4287 45.1449 44.3562 45.2406C44.1653 45.4926 44.0631 45.6226 43.8198 45.9232C43.7006 46.0705 43.5324 46.2813 43.446 46.3917C43.2642 46.6239 43.1565 46.73 43.1296 46.7032C43.112 46.6857 43.1902 46.5174 43.3861 46.1508C43.5107 45.9174 43.785 45.3409 43.8062 45.2674C43.8169 45.2306 43.8492 45.1617 43.8779 45.1143C43.9067 45.0669 43.9587 44.9585 43.9935 44.8734C44.0283 44.7882 44.1252 44.556 44.2088 44.3572C44.2924 44.1584 44.3726 43.9478 44.387 43.8891C44.4014 43.8305 44.4286 43.7642 44.4473 43.7419C44.4853 43.6968 44.6908 43.1844 44.7213 43.0589C44.732 43.0147 44.7564 42.9545 44.7753 42.925C44.7943 42.8956 44.8222 42.8233 44.8374 42.7644C44.8525 42.7055 44.9387 42.4345 45.0289 42.1621C45.1191 41.8897 45.2087 41.6127 45.2279 41.5464C45.2471 41.4801 45.2873 41.3416 45.3173 41.2385C45.3473 41.1355 45.3852 40.997 45.4014 40.9307C45.4176 40.8644 45.4664 40.6777 45.5096 40.5158C45.5529 40.3538 45.5961 40.1551 45.6056 40.0741C45.6151 39.9931 45.6388 39.8666 45.6584 39.793C45.678 39.7194 45.708 39.5688 45.7251 39.4584C45.7423 39.3479 45.7678 39.1853 45.782 39.097C45.8715 38.5371 45.8993 37.1135 45.8481 35.7106C45.8029 34.472 45.6481 33.3063 45.4003 32.3377C45.1981 31.5474 45.1501 31.3665 45.1089 31.2401C45.0824 31.1591 45.0278 30.9845 44.9875 30.8519C44.8916 30.5365 44.7835 30.2262 44.7403 30.1426C44.7213 30.1057 44.7057 30.0535 44.7056 30.0264C44.7056 29.9994 44.6632 29.8813 44.6115 29.7641C44.5598 29.6469 44.5175 29.5353 44.5175 29.5162C44.5175 29.497 44.4893 29.4283 44.4549 29.3635C44.4204 29.2988 44.3836 29.2111 44.373 29.1688C44.3624 29.1265 44.3078 28.994 44.2516 28.8743C44.1954 28.7547 44.1294 28.6017 44.1048 28.5342C44.0803 28.4668 44.0302 28.3711 43.9935 28.3216C43.9569 28.2721 43.9269 28.2146 43.9269 28.1939C43.9269 28.1555 43.7373 27.7733 43.6586 27.653C43.6345 27.6162 43.5804 27.5081 43.5385 27.4129C43.4261 27.1577 43.2344 26.8552 43.1727 26.8357C43.0591 26.7998 43.0079 26.9237 43.0708 27.0824C43.0872 27.1238 43.1113 27.2481 43.1243 27.3585C43.1373 27.4689 43.1596 27.6376 43.1739 27.7333C43.2134 27.998 43.2836 29.0807 43.2954 29.6072C43.3101 30.2623 43.2324 31.976 43.1728 32.3109C43.1584 32.3919 43.1403 32.5424 43.1326 32.6455C43.1179 32.8429 43.0961 33.0002 43.0286 33.3951C43.0059 33.5276 42.9874 33.688 42.9873 33.7515C42.9873 33.815 42.9749 33.8899 42.9599 33.9179C42.9449 33.9459 42.9146 34.0746 42.8925 34.2039C42.8055 34.7137 42.6336 35.4897 42.5409 35.7915C42.5205 35.8581 42.4868 35.9906 42.4662 36.086C42.429 36.2581 42.2585 36.876 42.156 37.2097C42.0282 37.6263 41.8773 38.0897 41.8301 38.2105C41.802 38.2824 41.7787 38.3607 41.7782 38.3845C41.7778 38.4083 41.7477 38.488 41.7113 38.5616C41.675 38.6352 41.6452 38.717 41.6451 38.7434C41.6449 38.7697 41.6224 38.836 41.5949 38.8906C41.5675 38.9452 41.5363 39.0259 41.5257 39.0698C41.5151 39.1138 41.4659 39.2463 41.4164 39.3643C41.3668 39.4823 41.2817 39.6873 41.2271 39.8198C41.0233 40.3147 40.8851 40.6308 40.7533 40.9039C40.4947 41.4397 40.1879 42.042 40.1366 42.1145C40.1082 42.1545 40.0244 42.314 39.9502 42.4687C39.8761 42.6235 39.805 42.7565 39.7924 42.7644C39.7797 42.7722 39.6638 42.9561 39.5347 43.173C39.1503 43.8194 39.0851 43.9203 38.571 44.6651C38.14 45.2896 37.9034 45.6119 37.6082 45.9765C37.5366 46.065 37.4104 46.2217 37.3278 46.3248C37.0168 46.7125 36.7261 47.0508 36.4699 47.3233C36.3923 47.4057 36.3289 47.4832 36.3289 47.4955C36.3289 47.5078 36.2292 47.6169 36.1074 47.738C35.9856 47.8591 35.6866 48.1627 35.4429 48.4126C34.7655 49.1075 33.3134 50.4727 32.9085 50.7953C32.8161 50.8689 32.6086 51.0444 32.4473 51.1852C31.9862 51.5878 31.7856 51.7561 31.6842 51.8252C31.6325 51.8604 31.5404 51.9322 31.4794 51.9847C31.4185 52.0372 31.2977 52.1374 31.211 52.2074C30.8743 52.4788 30.4889 52.7971 30.476 52.8143C30.4687 52.8242 30.4082 52.8636 30.3418 52.9019C30.1804 52.9948 30.1181 53.0682 30.1181 53.1656C30.1181 53.2774 30.1489 53.2991 30.3453 53.3262C30.4394 53.3392 30.6553 53.3867 30.8251 53.4319C31.1769 53.5254 31.3396 53.5613 31.55 53.5915C31.6312 53.6031 31.7882 53.6334 31.899 53.6586C32.1272 53.7107 32.3264 53.7437 32.6373 53.781C32.7554 53.7951 32.9185 53.8196 32.9998 53.8354C33.081 53.8512 33.2622 53.8748 33.4025 53.8877C33.5428 53.9006 33.869 53.9312 34.1274 53.9555C34.7524 54.0144 36.5063 54.0149 37.0941 53.9564C37.3156 53.9343 37.6236 53.9036 37.7787 53.8883C37.9337 53.8728 38.1089 53.8491 38.168 53.8355C38.2271 53.8219 38.3841 53.7961 38.517 53.7781C38.6499 53.7601 38.7994 53.7291 38.8492 53.7092C38.899 53.6893 38.9803 53.673 39.0299 53.673C39.2615 53.673 40.8845 53.2111 41.1015 53.0835C41.151 53.0544 41.2242 53.0306 41.2642 53.0306C41.3043 53.0306 41.3791 53.002 41.4305 52.9672C41.4819 52.9324 41.5663 52.8951 41.618 52.8843C41.6696 52.8735 41.7365 52.8492 41.7665 52.8303C41.7966 52.8114 41.9536 52.7388 42.1156 52.6691C42.2775 52.5992 42.4281 52.5268 42.4502 52.5081C42.4724 52.4894 42.6234 52.4105 42.7858 52.3327C43.088 52.1881 43.1577 52.1494 43.5463 51.91C43.6692 51.8343 43.7762 51.7724 43.7842 51.7724C43.8137 51.7724 44.2723 51.4886 44.5578 51.2937C45.5936 50.5864 46.0164 50.2691 46.517 49.8233C47.1245 49.2824 47.9821 48.3881 48.2694 47.9962C48.3172 47.9309 48.4114 47.8112 48.4785 47.7302C48.5457 47.6492 48.6429 47.5227 48.6944 47.4491C48.746 47.3755 48.8425 47.243 48.9088 47.1546C49.0531 46.9623 49.3057 46.5974 49.4173 46.4202C49.4616 46.3498 49.5462 46.223 49.6052 46.1383C49.7519 45.9283 50.12 45.3318 50.184 45.2004C50.2128 45.1416 50.2916 45.0033 50.3592 44.8933C50.542 44.5958 50.8374 44.0182 50.9003 43.8352C51.1157 43.2085 51.3481 42.323 51.4285 41.8224C51.4503 41.6871 51.4799 41.5305 51.4945 41.4744C51.534 41.3224 51.5786 41.031 51.5786 40.9249C51.5786 40.8736 51.5903 40.7967 51.6046 40.754C51.6312 40.675 51.6531 40.4519 51.728 39.4985C51.7766 38.8805 51.763 37.8846 51.6988 37.357C51.6133 36.6547 51.602 36.573 51.5616 36.3665C51.4649 35.8714 51.2627 35.1216 51.161 34.8808C51.1392 34.8292 51.1045 34.7268 51.0838 34.6532C51.0048 34.372 50.4372 32.934 50.3547 32.8061C50.3357 32.7767 50.2766 32.6442 50.2234 32.5117C50.1701 32.3792 50.0987 32.2286 50.0648 32.177C50.0308 32.1255 49.9821 32.0231 49.9565 31.9495C49.9308 31.8759 49.8871 31.7795 49.8593 31.7353C49.8315 31.6912 49.744 31.5225 49.6649 31.3606C49.5858 31.1986 49.4463 30.9421 49.3549 30.7905C49.2635 30.6389 49.157 30.4522 49.1181 30.3756C49.0356 30.2127 48.8185 29.8698 48.7248 29.7544C48.689 29.7102 48.6392 29.6343 48.6142 29.5856C48.5891 29.537 48.5059 29.4139 48.4292 29.3121C48.3525 29.2104 48.2414 29.0595 48.1823 28.9769C48.1232 28.8943 48.036 28.7764 47.9884 28.715C47.9408 28.6536 47.8542 28.5371 47.7959 28.4561C47.5628 28.1318 46.8875 27.3693 46.4211 26.9034C45.5276 26.0111 45.3266 25.838 45.2603 25.904ZM5.45878 36.7777C5.42983 36.796 5.43153 36.8925 5.46831 37.3194C5.55433 38.3182 5.68725 39.2225 5.85551 39.9536C5.88598 40.0861 5.92215 40.2497 5.93584 40.3171C5.97149 40.4928 6.10828 41.0104 6.19347 41.2921C6.23355 41.4246 6.28816 41.6113 6.31482 41.707C6.36267 41.8788 6.52206 42.3549 6.59265 42.5369C6.61262 42.5884 6.66183 42.7209 6.702 42.8313C6.89036 43.3493 7.39763 44.4671 7.61308 44.8391C7.63443 44.8759 7.73814 45.0566 7.84357 45.2406C8.12419 45.7304 8.44175 46.219 8.72891 46.6028C8.81029 46.7115 8.89999 46.832 8.92826 46.8705C8.95656 46.909 9.02389 46.9887 9.07788 47.0476C9.1319 47.1064 9.19819 47.1908 9.22517 47.2349C9.25218 47.2791 9.32604 47.3695 9.38932 47.4357C9.45257 47.502 9.59417 47.6525 9.70393 47.7703C10.097 48.1922 10.638 48.713 10.8904 48.9128C10.9938 48.9945 11.1025 49.0888 11.1321 49.1222C11.2545 49.2608 11.8435 49.7292 12.4026 50.1328C12.5403 50.2321 12.7155 50.3588 12.7919 50.4141C13.1083 50.6433 13.7018 51.0239 13.978 51.1746C14.1404 51.2633 14.3518 51.3811 14.4478 51.4366C14.5438 51.4921 14.6702 51.5546 14.7288 51.5755C14.7874 51.5964 14.885 51.6425 14.9458 51.678C15.0066 51.7135 15.1502 51.7798 15.2651 51.8253C15.3799 51.8708 15.5179 51.9314 15.5716 51.9601C15.6889 52.0226 16.1202 52.1895 16.2332 52.2161C16.2775 52.2265 16.3586 52.2574 16.4133 52.2848C16.4681 52.3122 16.547 52.3345 16.5886 52.3345C16.6302 52.3345 16.6932 52.3547 16.7285 52.3794C16.7638 52.4041 16.8526 52.4337 16.9258 52.4453C16.999 52.4568 17.08 52.4853 17.1058 52.5085C17.1315 52.5318 17.2116 52.5616 17.2836 52.5746C17.3556 52.5877 17.4689 52.6163 17.5353 52.6383C17.6018 52.6602 17.7588 52.7041 17.8843 52.7357C18.1266 52.7969 18.3516 52.8595 18.6361 52.945C18.7321 52.9739 18.9858 53.03 19.1999 53.0696C19.414 53.1093 19.6556 53.1582 19.7369 53.1782C19.9576 53.2327 20.2951 53.2952 20.4618 53.3125C20.7484 53.3423 20.8821 53.3786 20.945 53.3786C21.003 53.3808 20.9735 53.3808 21.003 53.3808C21.0328 53.3808 21.0164 53.3808 21.0524 53.3786C21.1193 53.3786 21.2178 53.3808 21.2715 53.3808C21.2921 53.3807 21.2581 53.3808 21.2849 53.3808C21.3386 53.3808 21.3519 53.3649 21.4954 53.3715C21.6192 53.3772 22.6876 53.2972 22.8109 53.2731C22.8848 53.2586 23.0841 53.2281 23.2539 53.2052C23.6705 53.1491 23.8882 53.1139 24.0325 53.0791C24.099 53.0631 24.244 53.0343 24.3547 53.0151C24.4655 52.9959 24.6104 52.9668 24.6769 52.9505C24.7433 52.9341 24.8605 52.9092 24.9373 52.8952C25.0141 52.8811 25.1108 52.8561 25.1521 52.8397C25.1935 52.8233 25.2998 52.7946 25.3884 52.7759C25.477 52.7573 25.5857 52.7288 25.63 52.7127C25.6743 52.6966 25.8434 52.6419 26.0059 52.5913C26.8495 52.3281 27.7884 51.9243 28.4893 51.5231C28.8003 51.3451 29.5275 50.8528 29.6445 50.7411C29.6829 50.7043 29.7636 50.6413 29.8236 50.6009C29.9333 50.5273 30.1422 50.3599 30.6121 49.9689C31.2839 49.4099 32.368 48.3646 32.9732 47.6922C33.2804 47.3508 33.3594 47.2599 33.6268 46.9405C33.6762 46.8816 33.7371 46.7936 33.7622 46.745C33.7874 46.6964 33.8252 46.6501 33.8462 46.642C33.8672 46.634 33.9201 46.5714 33.9638 46.5029C34.0075 46.4344 34.0834 46.3229 34.1323 46.2552C34.4187 45.8593 34.4679 45.7898 34.5167 45.712C34.5462 45.6648 34.6006 45.5852 34.6375 45.5351C34.6744 45.4849 34.7288 45.4056 34.7583 45.3588C34.7878 45.3119 34.8474 45.221 34.8907 45.1567C34.934 45.0924 35.0374 44.9133 35.1204 44.7588C35.2035 44.6042 35.3163 44.4086 35.3712 44.3241C35.426 44.2397 35.5264 44.053 35.5942 43.9092C35.662 43.7654 35.7405 43.6155 35.7687 43.576C35.7969 43.5365 35.8374 43.4548 35.8587 43.3946C35.8946 43.293 35.9392 43.196 36.2257 42.5958C36.3319 42.3732 36.3423 42.2692 36.2582 42.2692C36.1836 42.2692 36.1233 42.3193 35.9134 42.5556C35.3211 43.2228 34.6456 43.8905 34.1107 44.3376C34.0091 44.4225 33.8654 44.543 33.7913 44.6053C33.2887 45.0279 32.0703 45.8639 31.6037 46.1062C31.5224 46.1484 31.4379 46.1989 31.4157 46.2184C31.3936 46.238 31.2788 46.3041 31.1607 46.3654C31.0425 46.4266 30.8432 46.5302 30.7177 46.5956C30.5281 46.6944 30.2889 46.8032 29.5766 47.1147C29.4697 47.1615 28.9016 47.3799 28.7444 47.4346C28.6558 47.4655 28.4753 47.5274 28.3433 47.5722C28.2113 47.617 28.07 47.6709 28.0292 47.6919C27.9884 47.713 27.9212 47.7303 27.8798 47.7304C27.8385 47.7304 27.7684 47.7545 27.7241 47.7837C27.6798 47.813 27.6073 47.8373 27.563 47.8377C27.5187 47.8381 27.4316 47.8615 27.3695 47.8896C27.3074 47.9177 27.1986 47.9491 27.1279 47.9593C27.0571 47.9695 26.969 47.993 26.9321 48.0117C26.8952 48.0303 26.8046 48.0576 26.7308 48.0725C26.6569 48.0874 26.5482 48.1183 26.4891 48.1412C26.4301 48.1642 26.3358 48.1834 26.2797 48.1841C26.2236 48.1847 26.1451 48.202 26.1052 48.2224C26.0653 48.2429 25.9542 48.2729 25.8582 48.2891C25.7622 48.3053 25.6293 48.331 25.5629 48.3462C25.4964 48.3613 25.3197 48.3899 25.1701 48.4098C25.0205 48.4296 24.8875 48.4523 24.8746 48.4603C24.8483 48.4765 24.3096 48.5239 23.858 48.5497C23.2068 48.5869 21.955 48.5517 21.3477 48.4791C20.9668 48.4335 20.3674 48.3453 20.1664 48.3053C19.8777 48.2478 19.6999 48.215 19.4512 48.1733C19.3309 48.1532 19.2079 48.1236 19.1777 48.1074C19.1476 48.0914 19.1009 48.0784 19.0741 48.0786C19.0473 48.0788 18.9469 48.0551 18.8509 48.026C18.7549 47.9968 18.5676 47.9414 18.4347 47.9028C18.3018 47.8642 18.1266 47.8112 18.0454 47.7851C17.9642 47.7589 17.8072 47.7099 17.6964 47.6761C17.5135 47.6203 17.4185 47.5889 17.1326 47.4898C17.0809 47.4719 16.9782 47.4389 16.9044 47.4164C16.8306 47.3939 16.7568 47.3649 16.7404 47.352C16.7241 47.339 16.6455 47.3054 16.5659 47.2773C15.9667 47.066 15.8603 47.0191 15.886 46.9777C15.9054 46.9464 16.1157 46.9645 16.3943 47.0216C16.5676 47.0571 16.7698 47.0823 17.3742 47.1439C17.4997 47.1567 17.8682 47.1854 18.1931 47.2077C18.518 47.23 18.8623 47.2539 18.9583 47.2608C19.3181 47.2866 21.4791 47.2958 21.737 47.2727C21.8847 47.2594 22.0789 47.2439 22.1685 47.2383C22.6025 47.211 22.8484 47.1877 22.9586 47.1634C23.0251 47.1488 23.2123 47.1209 23.3748 47.1015C23.6728 47.0659 23.976 47.0102 24.2473 46.9413C24.3285 46.9207 24.5218 46.8716 24.6769 46.8322C24.8319 46.7928 25.0011 46.7452 25.0528 46.7264C25.1044 46.7076 25.2555 46.6593 25.3884 46.619C25.5213 46.5787 25.6979 46.5171 25.781 46.4821C25.8641 46.4471 25.9513 46.4185 25.9749 46.4185C25.9985 46.4185 26.0695 46.3957 26.1327 46.3678C26.1958 46.3399 26.3321 46.2901 26.4354 46.2572C26.5388 46.2242 26.6475 46.1825 26.6771 46.1645C26.7066 46.1465 26.7912 46.1128 26.865 46.0895C27.0931 46.0177 27.2978 45.9433 27.3511 45.9128C27.3791 45.8967 27.4961 45.8473 27.6111 45.8029C27.7262 45.7585 27.9092 45.6801 28.018 45.6286C28.1267 45.5772 28.224 45.5351 28.2342 45.5351C28.2534 45.5351 28.7618 45.298 28.9054 45.2221C28.9497 45.1986 29.0826 45.1291 29.2008 45.0676C29.6285 44.8447 30.1305 44.5406 30.6371 44.1976C30.7036 44.1526 30.8439 44.0587 30.9489 43.9889C31.3446 43.7258 32.1198 43.1451 32.4459 42.8673C32.5216 42.8029 32.6724 42.675 32.7808 42.5832C33.3786 42.0776 34.6759 40.773 34.7081 40.6451C34.7461 40.4941 34.6614 40.4643 34.4898 40.5684C34.3391 40.6598 33.56 41.0422 33.3408 41.1324C33.2405 41.1737 33.1522 41.2175 33.1446 41.2297C33.137 41.2419 33.1119 41.2519 33.0888 41.2519C33.0657 41.2519 32.9788 41.2809 32.8957 41.3164C32.5245 41.4748 31.7791 41.7447 31.5154 41.8163C31.4152 41.8435 31.3193 41.8743 31.3023 41.8847C31.2853 41.8952 31.2103 41.919 31.1355 41.9376C31.0607 41.9562 30.9452 41.9892 30.8788 42.0108C30.5461 42.1191 30.3938 42.1621 30.3436 42.1621C30.3132 42.1621 30.2188 42.1851 30.1338 42.2132C30.0489 42.2413 29.9256 42.2719 29.8599 42.2813C29.7942 42.2906 29.7268 42.3096 29.7101 42.3233C29.6935 42.3371 29.5911 42.3609 29.4827 42.3763C29.3742 42.3916 29.2725 42.4145 29.2565 42.427C29.2406 42.4396 29.1551 42.4584 29.0665 42.4686C28.9779 42.4789 28.8088 42.5092 28.6907 42.5361C28.5725 42.5629 28.3853 42.5991 28.2745 42.6165C28.1638 42.6339 28.0127 42.659 27.9389 42.6722C27.8651 42.6854 27.702 42.7091 27.5765 42.7248C27.451 42.7405 27.2697 42.7654 27.1737 42.7801C27.0778 42.7948 26.8724 42.8183 26.7173 42.8323C26.5623 42.8464 26.375 42.8647 26.3012 42.8731C26.0902 42.8971 25.7837 42.9169 24.8699 42.9658C24.2749 42.9976 22.7981 43.0062 22.3277 42.9806C22.1653 42.9718 21.827 42.9515 21.5759 42.9355C21.3249 42.9195 21.0772 42.9067 21.0256 42.9071C20.9739 42.9074 20.8427 42.8905 20.7341 42.8695C20.6254 42.8485 20.4558 42.8313 20.3571 42.8313C20.2585 42.8313 20.1103 42.8138 20.028 42.7925C19.9457 42.7711 19.7529 42.7408 19.5995 42.7251C19.4462 42.7095 19.2621 42.679 19.1905 42.6574C19.1188 42.6358 18.9799 42.6112 18.8817 42.6026C18.7179 42.5885 18.4041 42.5253 18.1407 42.4534C18.0184 42.42 17.4511 42.3028 17.2534 42.2701C17.1796 42.2579 17.0648 42.2292 16.9984 42.2064C16.9319 42.1837 16.7809 42.1389 16.6628 42.1071C16.4271 42.0436 16.0669 41.94 15.8573 41.8756C15.1607 41.6613 14.9413 41.591 14.8237 41.5443C14.7572 41.5178 14.5337 41.4362 14.327 41.3627C14.1203 41.2893 13.9149 41.2103 13.8706 41.1872C13.8263 41.1641 13.7584 41.1451 13.7198 41.145C13.6812 41.1449 13.6194 41.1211 13.5824 41.0922C13.5455 41.0632 13.4381 41.0104 13.3439 40.9749C13.0271 40.8555 12.8786 40.7924 12.6087 40.6623C12.4611 40.5912 12.2933 40.5186 12.2359 40.501C12.1785 40.4834 12.0892 40.4404 12.0375 40.4054C11.9858 40.3704 11.9346 40.3418 11.9237 40.3418C11.8988 40.3418 11.039 39.9236 10.7696 39.7805C10.6589 39.7216 10.5139 39.6491 10.4475 39.6193C10.381 39.5895 10.2783 39.5349 10.2192 39.4979C10.1602 39.4609 10.0092 39.3812 9.88365 39.3206C9.75813 39.2601 9.63697 39.1946 9.61441 39.1751C9.57197 39.1384 9.32054 38.9958 8.97081 38.8103C8.86007 38.7515 8.66072 38.6361 8.52782 38.5539C8.30375 38.4152 8.14266 38.3217 7.76166 38.1091C7.67991 38.0635 7.58326 38.0049 7.54688 37.9789C7.44835 37.9084 6.85884 37.5321 6.60376 37.3769C6.46206 37.2907 6.12002 37.08 5.97283 36.9883C5.93098 36.9622 5.83798 36.899 5.76616 36.8477C5.63911 36.7572 5.53046 36.7324 5.45878 36.7777Z" fill="white"/>
</svg>
