<svg width="40" height="45" viewBox="0 0 40 45" fill="none" xmlns="http://www.w3.org/2000/svg">
<path fill-rule="evenodd" clip-rule="evenodd" d="M38.2456 5.82782C35.7341 5.79905 32.0782 5.46201 28.0367 4.02077C25.1858 3.00428 22.9497 1.72503 21.297 0.590981V0.547296H21.2351C21.0932 0.449629 20.948 0.350535 20.8149 0.255005C20.5777 0.084529 20.289 0 20.0002 0C19.7115 0 19.4216 0.0845281 19.1856 0.255005C19.0525 0.350544 18.9073 0.449629 18.7646 0.547296H18.7031V0.59027C17.0516 1.72432 14.8148 3.0043 11.9638 4.0207C7.9223 5.46197 4.26564 5.79901 1.75448 5.82774C1.14409 5.83485 0.632971 6.23405 0.544135 6.76713C-0.238356 11.4467 -1.72852 25.9077 9.09116 37.3737C12.205 40.6735 15.6466 42.9891 18.703 44.6168V44.7397H18.9277C19.2583 44.913 19.629 45 19.9993 45C20.3701 45 20.7404 44.913 21.0705 44.7397H21.2969V44.6161C24.3544 42.9884 27.7932 40.6735 30.907 37.3737C41.7279 25.9077 40.2386 11.4468 39.4561 6.76715C39.3661 6.23406 38.855 5.83485 38.2454 5.82776L38.2456 5.82782ZM11.0834 35.907C1.84519 26.1176 2.1644 13.8252 2.9598 8.08628C6.39771 7.93285 9.74844 7.28149 12.9347 6.14568C14.9649 5.42151 16.8921 4.49983 18.7028 3.41242V41.8791C15.8149 40.1864 13.2435 38.1953 11.0833 35.9067L11.0834 35.907ZM28.9143 35.907C26.7547 38.1968 24.184 40.1867 21.2965 41.8787V3.41297C23.1072 4.50047 25.0348 5.4214 27.065 6.14558C30.2513 7.28136 33.6012 7.93272 37.0399 8.08619C37.8345 13.8248 38.1537 26.1175 28.9142 35.9069L28.9143 35.907Z" fill="#1E4DD8"/>
</svg>
