<svg width="128" height="40" viewBox="0 0 128 40" fill="none" xmlns="http://www.w3.org/2000/svg">
<path fill-rule="evenodd" clip-rule="evenodd" d="M67.1891 13.1868H50.0779V17.1114H56.0432L56.0432 33.5947H61.3807L61.3807 17.1114H67.1891V13.1868Z" fill="#434343"/>
<path d="M86.1057 22.2061H77.1576V25.9737H81.1607V29.8983C72.3068 30.589 72.8144 23.1218 74.1749 19.3019C77.8169 14.3412 83.1753 17.2349 85.3993 19.3019H86.1057V14.4354C84.787 13.4935 81.527 12.9441 80.0618 12.7871C70.0148 11.908 67.7647 19.3804 67.8955 23.2265C68.2723 36.0364 80.1926 34.5817 86.1057 32.2531V22.2061Z" fill="#434343" stroke="#434343"/>
<path d="M89.8733 13.1082V33.4376H95.0538V26.5303L95.9957 25.1959L101.333 33.4376H107.769L100.234 22.5272L107.377 13.1082H101.412L95.0538 21.8993V13.1082H89.8733Z" fill="#434343" stroke="#434343"/>
<path d="M109.104 13.1082V33.4376H114.284V26.5303L115.226 25.1959L120.564 33.4376H127L119.465 22.5272L126.608 13.1082H120.642L114.284 21.8993V13.1082H109.104Z" fill="#434343" stroke="#434343"/>
<path fill-rule="evenodd" clip-rule="evenodd" d="M19.3958 0.0296502C19.3958 0.0459579 19.3891 0.0593004 19.3809 0.0593202C19.2962 0.059419 18.8994 0.105515 18.7911 0.127832C18.7148 0.143566 18.581 0.169738 18.4938 0.185986C18.4065 0.202234 18.2549 0.234019 18.1567 0.256613C18.0586 0.279226 17.9248 0.309568 17.8594 0.324057C17.794 0.338546 17.6914 0.365212 17.6314 0.383318C17.5714 0.401405 17.4644 0.43317 17.3935 0.453905C17.3226 0.474641 17.22 0.505833 17.1655 0.523228C17.111 0.540623 17.0262 0.567169 16.9772 0.582212C16.7875 0.640405 16.6635 0.684308 16.2734 0.831452C15.955 0.951575 15.7221 1.04531 15.5349 1.12871C15.4886 1.14934 15.4083 1.18459 15.3565 1.207C15.1789 1.28385 15.1425 1.30109 14.7162 1.50983C14.2527 1.73681 14.1757 1.78866 13.6284 2.2428C12.4228 3.243 11.3765 4.50081 10.7804 5.6663C10.5331 6.14993 10.3766 6.54497 10.1981 7.13582C10.1768 7.20649 10.1411 7.32276 10.1188 7.39417C10.0964 7.46561 10.0782 7.53869 10.0782 7.55658C10.0782 7.57445 10.0635 7.63163 10.0455 7.68366C10.0275 7.73569 10.0018 7.83161 9.98832 7.89684C9.95689 8.04855 9.90527 8.26463 9.87024 8.39101C9.85517 8.44537 9.83689 8.53432 9.82962 8.58868C9.82234 8.64304 9.79947 8.75368 9.77879 8.83454C9.75809 8.91541 9.74116 9.00752 9.74116 9.03925C9.74116 9.07097 9.72822 9.14711 9.7124 9.20849C9.69656 9.26985 9.67386 9.40011 9.66194 9.49796C9.65003 9.5958 9.63205 9.70699 9.62199 9.74504C9.61192 9.78309 9.59412 9.92097 9.58243 10.0514C9.57073 10.1819 9.5464 10.3909 9.52838 10.5159C9.48063 10.847 9.48241 12.4603 9.53094 12.8484C9.54928 12.9952 9.57255 13.2087 9.58264 13.3228C9.59273 13.437 9.6143 13.606 9.63058 13.6984C9.64688 13.7908 9.6689 13.9242 9.67953 13.9949C9.701 14.1375 9.72576 14.2687 9.78398 14.5484C9.80549 14.6517 9.82918 14.7672 9.83664 14.8051C9.85392 14.8931 9.90918 14.9086 9.92878 14.831C9.94246 14.7769 9.94978 14.7162 10.0081 14.1728C10.0238 14.026 10.0503 13.8437 10.067 13.7676C10.0837 13.6915 10.0975 13.5984 10.0977 13.5607C10.0978 13.523 10.1149 13.4207 10.1354 13.3334C10.156 13.246 10.1929 13.0856 10.2174 12.9769C10.3116 12.559 10.5319 11.8039 10.6414 11.5241C10.6563 11.486 10.6927 11.3882 10.7223 11.3066C10.7519 11.2251 10.7838 11.1434 10.7932 11.1252C10.8026 11.107 10.8411 11.0136 10.8789 10.9176C11.0713 10.4291 11.3852 9.79849 11.6692 9.32994C12.0024 8.7802 12.6227 7.90706 13.0615 7.36998C13.472 6.86757 14.001 6.3168 14.3901 5.98664C14.8781 5.57254 15.5882 5.08159 16.1445 4.77365C16.2154 4.73443 16.2868 4.69426 16.3031 4.68442C16.3521 4.65497 17.0787 4.29665 17.1804 4.25184C17.3332 4.18448 17.4362 4.14044 17.5521 4.09288C17.6121 4.06827 17.6879 4.03599 17.7206 4.02116C17.7867 3.99122 17.9122 3.94554 18.0477 3.90219C18.0968 3.88649 18.165 3.86044 18.1994 3.84431C18.2337 3.82818 18.2784 3.81494 18.2985 3.81488C18.3187 3.8148 18.3607 3.8015 18.3918 3.78529C18.423 3.76906 18.4944 3.7432 18.5504 3.7278C18.6065 3.71241 18.6791 3.6905 18.7118 3.67914C18.813 3.64395 18.9638 3.59703 19.0984 3.55882C19.3262 3.49416 19.5023 3.44577 19.604 3.41992C19.6585 3.40604 19.7603 3.37807 19.8303 3.35775C19.9003 3.33745 19.9725 3.32083 19.9908 3.32083C20.009 3.32083 20.0758 3.30304 20.1392 3.28129C20.2585 3.24037 20.3778 3.22849 20.3586 3.25945C20.3525 3.26919 20.2516 3.32581 20.1344 3.38527C19.923 3.49244 19.6774 3.62304 19.5247 3.70948C19.481 3.73417 19.4141 3.77096 19.376 3.79124C19.3378 3.8115 19.2731 3.84737 19.2322 3.87096C19.1914 3.89454 19.1289 3.93034 19.0935 3.95052C18.9535 4.03024 18.6678 4.19849 18.5891 4.24751C18.5434 4.27598 18.4498 4.33415 18.381 4.37675C18.0869 4.55884 17.4798 4.96673 17.1953 5.17329C16.4735 5.69735 16.0032 6.09111 15.4889 6.60202C15.0638 7.02428 14.7062 7.4545 14.3551 7.96603C14.3365 7.99321 14.2491 8.11774 14.161 8.24276C13.9964 8.47651 13.7739 8.80974 13.6358 9.02968C13.5927 9.09829 13.534 9.19169 13.5054 9.23723C13.1629 9.78286 12.8501 10.4001 12.5918 11.0398C12.5698 11.0941 12.5384 11.1697 12.5221 11.2078C12.5057 11.2458 12.4805 11.3126 12.4661 11.356C12.4517 11.3995 12.4166 11.4974 12.3882 11.5735C12.0689 12.4276 11.7876 13.5119 11.6624 14.3705C11.6505 14.452 11.6237 14.6309 11.6029 14.7681C11.5582 15.0623 11.5546 15.207 11.5913 15.2373C11.6189 15.2602 11.6642 15.2328 11.6642 15.1932C11.6642 15.1615 11.9068 14.6966 12.0214 14.5088C12.0314 14.4925 12.0759 14.4169 12.1204 14.3408C12.4928 13.7035 13.0712 12.9014 13.6449 12.2267C14.3556 11.3909 15.4074 10.3711 16.1592 9.78898C16.2192 9.74249 16.3944 9.6044 16.5484 9.4821C16.7944 9.28683 17.1674 9.00811 17.3142 8.90997C17.3415 8.89175 17.4797 8.79657 17.6215 8.69847C18.1112 8.35955 18.8469 7.90914 19.2967 7.67287C19.5445 7.54266 20.1036 7.26365 20.2694 7.18743C20.7386 6.97172 20.8072 6.94139 21.0759 6.83094C21.1441 6.80293 21.2523 6.75778 21.3163 6.7306C21.3804 6.70342 21.4421 6.68118 21.4535 6.68118C21.4649 6.68118 21.4994 6.66861 21.5303 6.65323C21.5916 6.62273 21.9494 6.48603 22.092 6.43865C22.141 6.42234 22.2124 6.39803 22.2505 6.3846C22.5662 6.27361 22.8655 6.18017 23.2715 6.06586C23.3478 6.04438 23.4683 6.00933 23.5392 5.98802C23.61 5.96669 23.68 5.94938 23.6947 5.94954C23.7093 5.94967 23.7807 5.93325 23.8533 5.91301C24.1539 5.82916 24.8592 5.67818 25.2107 5.62247C25.3068 5.60723 25.3931 5.59004 25.4025 5.58423C25.4119 5.57843 25.5162 5.56019 25.6342 5.5437C25.7522 5.5272 25.88 5.50569 25.9181 5.49589C25.9563 5.48608 26.041 5.47264 26.1065 5.46604C26.1719 5.45942 26.3325 5.43716 26.4633 5.41656C26.5941 5.39597 26.7815 5.36964 26.8796 5.35803C26.9777 5.34645 27.1294 5.32823 27.2166 5.31753C27.6861 5.26003 27.9342 5.23334 28.1484 5.21729C28.2792 5.20749 28.5201 5.18592 28.6837 5.1694C28.9546 5.14202 29.5768 5.10265 30.4084 5.06025C30.5829 5.05137 30.7278 5.04329 30.7306 5.04232C30.7501 5.0353 30.7298 4.94329 30.7075 4.93821C30.6921 4.93469 30.5591 4.78875 30.412 4.61389C29.702 3.7702 28.6211 2.78224 27.7321 2.16437C27.2118 1.80273 26.8004 1.54652 26.384 1.32475C26.0338 1.13823 25.6019 0.930147 25.5018 0.899726C25.4745 0.891444 25.4433 0.877904 25.4324 0.869641C25.4118 0.853986 25.0224 0.697709 24.8674 0.642896C24.3675 0.466042 23.796 0.307493 23.4381 0.246334C23.3553 0.232181 23.2527 0.211485 23.2101 0.200317C23.1676 0.189168 23.0748 0.174462 23.0039 0.167662C22.933 0.160843 22.8081 0.142894 22.7263 0.127753C22.6446 0.112631 22.5107 0.095197 22.429 0.0890298C22.0642 0.0614748 22.0325 0.0565924 22.0325 0.0280688C22.0325 0.00409169 21.8399 0 20.7141 0C19.5555 0 19.3958 0.00359756 19.3958 0.0296502ZM30.0218 5.87282C29.8201 5.88215 29.6123 5.89883 29.5599 5.9099C29.5076 5.92099 29.3951 5.93005 29.3099 5.93005C29.2247 5.93005 29.1069 5.93983 29.0482 5.95177C28.9894 5.96371 28.8968 5.97638 28.8423 5.97992C28.6266 5.99391 28.2355 6.04774 28.1366 6.07701C28.0792 6.09403 27.9798 6.10795 27.9158 6.10795C27.8518 6.10795 27.7754 6.12004 27.746 6.13485C27.7165 6.14963 27.6328 6.16703 27.5599 6.17351C27.4315 6.18492 27.1043 6.25513 26.8977 6.31562C26.8422 6.33187 26.7746 6.34515 26.7474 6.34515C26.6893 6.34515 26.1529 6.49652 25.9037 6.58326C25.8081 6.61655 25.6227 6.67986 25.4919 6.72394C25.361 6.768 25.1928 6.82979 25.1181 6.86122C25.0434 6.89267 24.9731 6.91839 24.962 6.91839C24.9395 6.91839 24.7261 7.01155 24.4114 7.15881C24.297 7.21238 24.1683 7.27138 24.1255 7.2899C24.0827 7.30845 23.9935 7.35272 23.9273 7.38832C23.861 7.42392 23.731 7.48973 23.6383 7.53458C23.5456 7.57941 23.4228 7.6459 23.3653 7.68235C23.3078 7.71878 23.2557 7.74859 23.2493 7.74859C23.243 7.74859 23.1518 7.79967 23.0465 7.86209C22.9413 7.9245 22.8329 7.98556 22.8056 7.99775C22.7367 8.02861 22.6797 8.09714 22.6934 8.13272C22.7178 8.19617 22.868 8.19394 23.0534 8.12736C23.0862 8.11562 23.2512 8.07815 23.4202 8.04409C23.5892 8.01003 23.7778 7.96852 23.8393 7.95185C23.9009 7.93517 23.9606 7.9273 23.972 7.93438C23.9835 7.94146 24.0536 7.93456 24.1278 7.91908C24.5406 7.83294 25.2356 7.78259 25.9974 7.78362C26.6341 7.78449 26.6625 7.78572 27.1968 7.83545C27.6838 7.88077 27.9161 7.91191 28.3268 7.98686C28.8674 8.08552 29.8941 8.36741 30.5575 8.59932C30.7481 8.66595 30.9353 8.7298 30.9734 8.74118C31.0116 8.75257 31.132 8.79932 31.2411 8.84506C31.3501 8.89082 31.5107 8.95745 31.5979 8.99315C31.828 9.0873 32.3154 9.32847 32.4274 9.40367C32.4804 9.43921 32.5295 9.46846 32.5366 9.46864C32.5499 9.46898 32.8742 9.66621 33.0469 9.77892C33.2389 9.9042 33.6394 10.1918 33.7705 10.2985C33.844 10.3583 33.9648 10.4562 34.039 10.5159C34.6042 10.9716 35.3604 11.7357 35.7802 12.2752C36.2985 12.9414 36.6145 13.3776 36.9444 13.8824C37.1175 14.1472 37.0694 14.1209 36.6477 13.7204C36.4545 13.5368 36.2384 13.3399 36.1675 13.283C36.0966 13.2261 36.0252 13.165 36.0089 13.1474C35.966 13.101 35.6514 12.8395 35.4461 12.6794C35.3491 12.6039 35.2225 12.502 35.1645 12.4531C35.0291 12.3386 34.8727 12.2185 34.782 12.1592C34.7426 12.1334 34.6836 12.0881 34.6509 12.0585C34.6182 12.0289 34.5468 11.9749 34.4923 11.9386C34.4378 11.9023 34.3479 11.8408 34.2925 11.8021C34.0703 11.6465 33.889 11.5241 33.8806 11.5241C33.8758 11.5241 33.7731 11.4573 33.6523 11.3758C33.5316 11.2943 33.4259 11.2271 33.4174 11.2265C33.4089 11.2259 33.3172 11.1728 33.2136 11.1085C32.5409 10.6909 31.6268 10.3015 30.7477 10.0579C30.6265 10.0244 30.4694 9.97961 30.3985 9.95846C30.3276 9.93731 30.2161 9.90883 30.1507 9.89517C30.0853 9.88149 30.0139 9.86095 29.9921 9.84951C29.9703 9.83806 29.9123 9.82219 29.8632 9.81423C29.8142 9.80626 29.7605 9.79268 29.744 9.78406C29.7007 9.76149 29.0922 9.62644 29.0337 9.62644C29.0066 9.62644 28.9391 9.61361 28.8837 9.59794C28.7324 9.55522 28.3559 9.49278 28.0988 9.46777C27.9734 9.45558 27.8173 9.43749 27.7519 9.42761C27.5525 9.39746 27.0943 9.3841 26.3146 9.38572C25.5387 9.38734 25.4409 9.39082 25.1152 9.42848C25.0062 9.44107 24.8991 9.45129 24.8773 9.45117C24.7838 9.45065 24.2725 9.51254 24.1636 9.53757C24.0982 9.55259 24.0001 9.56908 23.9456 9.5742C23.891 9.57932 23.7795 9.59746 23.6978 9.61452C23.616 9.6316 23.5045 9.65415 23.4499 9.66465C22.9448 9.76198 22.9048 9.77576 22.9048 9.85186C22.9048 9.91527 22.9647 9.93486 23.2418 9.96214C23.4493 9.98256 23.7098 10.0287 24.0843 10.1112C24.1607 10.128 24.2827 10.1548 24.3556 10.1707C24.4285 10.1866 24.5116 10.2086 24.5403 10.2194C24.569 10.2303 24.619 10.2392 24.6514 10.2392C24.6839 10.2392 24.7454 10.257 24.7881 10.2787C24.8309 10.3005 24.892 10.3183 24.9239 10.3183C24.9559 10.3183 25.0209 10.3359 25.0685 10.3574C25.116 10.3789 25.1748 10.3967 25.1991 10.3969C25.2234 10.3971 25.2992 10.4189 25.3676 10.4453C25.436 10.4717 25.5677 10.5165 25.6604 10.5448C25.7531 10.5732 25.8468 10.6048 25.8686 10.6151C25.9153 10.6372 26.1989 10.7401 26.3543 10.7914C26.4142 10.8112 26.4901 10.8417 26.5228 10.8593C26.5555 10.8769 26.5955 10.8913 26.6117 10.8914C26.6279 10.8915 26.6903 10.9147 26.7505 10.9429C26.8776 11.0027 26.9025 11.0138 27.2083 11.1465C27.3346 11.2013 27.5016 11.2775 27.5795 11.3159C27.6573 11.3543 27.7327 11.3857 27.7469 11.3857C27.7612 11.3857 27.7932 11.3999 27.8181 11.4173C27.843 11.4347 27.9766 11.5074 28.1149 11.5788C28.5997 11.829 28.86 11.9718 29.0504 12.0918C29.1213 12.1365 29.2373 12.2063 29.3081 12.2469C29.5574 12.3897 30.2453 12.8302 30.4318 12.9665C30.4991 13.0157 30.5928 13.0804 30.6399 13.1103C30.687 13.1402 30.7791 13.2043 30.8446 13.2527C30.91 13.3012 31.0126 13.3768 31.0725 13.4207C31.3684 13.6374 31.4345 13.6892 31.9146 14.0796C32.6253 14.6577 33.7459 15.7677 34.2814 16.424C34.3647 16.5261 34.4705 16.6551 34.5165 16.7107C34.8058 17.0599 35.2371 17.6338 35.4538 17.958C35.492 18.0151 35.59 18.1586 35.6717 18.2768C35.8282 18.5034 35.9387 18.6768 36.0102 18.8081C36.0339 18.8516 36.083 18.9288 36.1193 18.9797C36.1555 19.0305 36.2091 19.1195 36.2384 19.1773C36.2676 19.2352 36.3104 19.3092 36.3335 19.3418C36.3855 19.4152 36.541 19.6937 36.626 19.8657C36.6609 19.9363 36.7068 20.0191 36.728 20.0495C36.7824 20.128 37.2579 21.0539 37.2579 21.0815C37.2579 21.0885 37.2935 21.1541 37.3372 21.2273C37.3808 21.3004 37.4164 21.3713 37.4164 21.3846C37.4164 21.3979 37.4872 21.553 37.5736 21.7293C37.8001 22.1914 38.1956 23.0774 38.2328 23.2062C38.2438 23.2443 38.2787 23.3301 38.3104 23.3969C38.3421 23.4636 38.368 23.5248 38.368 23.5328C38.368 23.5477 38.4164 23.6616 38.5525 23.9673C38.5961 24.0651 38.6607 24.2297 38.6962 24.333C38.7672 24.5395 38.8225 24.6045 38.9087 24.5829C38.9435 24.5742 38.9689 24.5427 38.9986 24.4715C39.0214 24.4168 39.0972 24.281 39.1672 24.1697C39.2858 23.9808 39.4401 23.6952 39.7194 23.1474C39.783 23.0226 39.8351 22.9135 39.8351 22.9049C39.8351 22.8963 39.879 22.7982 39.9326 22.687C39.9863 22.5758 40.0497 22.4358 40.0735 22.376C40.1884 22.0875 40.3016 21.7934 40.37 21.6051C40.4115 21.491 40.456 21.3709 40.4688 21.3383C40.5251 21.1953 40.7681 20.3423 40.8292 20.0732C40.9221 19.6645 41.0323 19.0325 41.0637 18.7291C41.0749 18.6203 41.0948 18.4424 41.1078 18.3337C41.1317 18.1343 41.1381 17.0033 41.1169 16.7326C41.0826 16.2947 40.9994 15.7365 40.9236 15.4356C40.9137 15.3963 40.9056 15.3389 40.9056 15.3081C40.9056 15.2773 40.8827 15.1672 40.8546 15.0633C40.7696 14.7485 40.7532 14.6843 40.7076 14.4891C40.6516 14.2493 40.5219 13.8343 40.3464 13.3327C40.2704 13.1153 40.1943 12.8974 40.1774 12.8484C40.1605 12.7995 40.1389 12.7496 40.1295 12.7376C40.1201 12.7255 40.0946 12.6642 40.0729 12.6012C40.0512 12.5383 40.0121 12.4487 39.9859 12.4021C39.9598 12.3555 39.8912 12.2123 39.8335 12.0838C39.7757 11.9553 39.6945 11.7973 39.6529 11.7326C39.6113 11.6679 39.5773 11.6043 39.5773 11.5913C39.5773 11.5782 39.5471 11.5227 39.5101 11.4679C39.473 11.413 39.4133 11.3165 39.3773 11.2534C39.1835 10.9137 38.7764 10.3344 38.4371 9.91521C38.3501 9.80768 38.2521 9.6858 38.2193 9.64439C38.0853 9.47471 37.819 9.15563 37.7346 9.06368C37.474 8.77975 37.2612 8.55905 36.9855 8.287C36.6654 7.97115 36.4479 7.81052 35.8999 7.48532C35.7799 7.41416 35.6461 7.33418 35.6025 7.30762C35.5589 7.28105 35.4474 7.22204 35.3547 7.17652C35.262 7.13098 35.1362 7.06776 35.0752 7.03604C34.8039 6.89494 34.6886 6.84003 34.6632 6.83969C34.6482 6.83948 34.5902 6.81342 34.5344 6.78178C34.4785 6.75013 34.3481 6.69206 34.2445 6.65274C34.1409 6.6134 34.016 6.56383 33.9669 6.54258C33.5363 6.35604 32.5524 6.06792 32.1431 6.00846C32.0613 5.99658 31.9676 5.97893 31.9349 5.96922C31.8073 5.93133 31.1232 5.86897 30.7653 5.8626C30.5581 5.85891 30.2235 5.86351 30.0218 5.87282ZM8.46962 6.35402C8.43033 6.38063 8.3725 6.40868 8.34112 6.41631C8.27281 6.43295 8.01826 6.5289 7.90738 6.57984C7.6487 6.69862 7.44782 6.79324 7.27299 6.87865C7.16395 6.93191 7.02345 6.99811 6.96075 7.02574C6.89804 7.05337 6.84675 7.08302 6.84675 7.09162C6.84675 7.10022 6.78653 7.13288 6.71294 7.16419C6.63935 7.19548 6.56128 7.23606 6.53947 7.25436C6.48033 7.30398 6.21286 7.45209 6.18241 7.45209C6.16784 7.45209 6.13071 7.47259 6.0999 7.49761C6.04762 7.54009 5.99265 7.57654 5.77354 7.7139C5.6583 7.78617 5.48375 7.90181 5.37059 7.98085C5.31999 8.0162 5.27444 8.0451 5.26932 8.0451C5.26423 8.0451 5.20892 8.08512 5.14641 8.13403C5.08392 8.18295 5.02387 8.22302 5.01297 8.22308C5.00207 8.22313 4.95746 8.25648 4.91385 8.29716C4.87023 8.33784 4.79212 8.39886 4.74026 8.43276C4.6884 8.46666 4.60811 8.52632 4.56184 8.56536C4.51557 8.60438 4.40064 8.69675 4.30646 8.77064C3.68852 9.25528 2.89654 10.0719 2.37555 10.7615C2.32688 10.826 2.28707 10.8855 2.28707 10.8938C2.28707 10.9021 2.25139 10.95 2.20777 11.0002C2.16416 11.0505 2.12848 11.1046 2.12848 11.1205C2.12848 11.1364 2.09416 11.187 2.05223 11.2329C2.0103 11.2789 1.96659 11.3442 1.95511 11.378C1.94363 11.4117 1.90212 11.4814 1.86284 11.5327C1.82359 11.5839 1.79146 11.6374 1.79146 11.6514C1.79146 11.6654 1.77361 11.6995 1.75181 11.7271C1.73 11.7548 1.71216 11.7896 1.71216 11.8044C1.71216 11.8193 1.67719 11.8779 1.63446 11.9346C1.59174 11.9913 1.55082 12.0647 1.54357 12.0977C1.52919 12.1629 1.4628 12.2882 1.36078 12.4428C1.32506 12.4969 1.2958 12.5591 1.29576 12.5811C1.29572 12.6031 1.27926 12.648 1.25918 12.6808C1.2391 12.7136 1.21658 12.7728 1.20916 12.8123C1.20173 12.8517 1.18339 12.8942 1.1684 12.9066C1.1534 12.919 1.13587 12.95 1.12945 12.9755C1.12303 13.001 1.08647 13.0771 1.04821 13.1446C1.00995 13.2121 0.978563 13.2776 0.978464 13.2901C0.978365 13.3027 0.956339 13.3574 0.929517 13.4118C0.902694 13.4661 0.88047 13.5339 0.880133 13.5623C0.879796 13.5907 0.861677 13.6366 0.839869 13.6643C0.818062 13.6919 0.80016 13.7398 0.800081 13.7707C0.800022 13.8016 0.782239 13.8536 0.760571 13.8862C0.738902 13.9188 0.721119 13.9636 0.72106 13.9858C0.720981 14.008 0.70409 14.059 0.683512 14.0992C0.662954 14.1395 0.639997 14.2049 0.632523 14.2447C0.625029 14.2844 0.60685 14.3357 0.59208 14.3585C0.577331 14.3814 0.558834 14.4357 0.550964 14.4792C0.543113 14.5227 0.520156 14.5893 0.499935 14.6271C0.479734 14.665 0.4632 14.7209 0.4632 14.7514C0.4632 14.7818 0.449858 14.8271 0.433542 14.8519C0.417226 14.8767 0.395102 14.9364 0.384377 14.9846C0.373672 15.0328 0.338185 15.1745 0.305534 15.2995C0.272883 15.4245 0.240529 15.5713 0.23363 15.6257C0.226731 15.68 0.204725 15.7823 0.184722 15.853C0.164719 15.9237 0.138154 16.0747 0.125704 16.1887C0.113234 16.3026 0.0984452 16.4032 0.0928348 16.4123C0.0701554 16.4489 0.00612159 17.3194 0.00965038 17.5431C0.0101658 17.5757 0.0100469 17.629 0.00939266 17.6617C0.00871862 17.6943 0.00515017 17.8633 0.00142313 18.0372C-0.00228409 18.2112 0.00150242 18.3729 0.00986845 18.3966C0.0182147 18.4204 0.0176397 18.4655 0.00857984 18.497C-0.00248234 18.5355 0.001324 18.5762 0.0201575 18.6208C0.0355613 18.6574 0.0445419 18.6968 0.0400615 18.7084C0.0251731 18.747 0.0655957 19.696 0.086828 19.8064C0.0983263 19.8661 0.120431 20.0574 0.135934 20.2313C0.151437 20.4053 0.177883 20.5913 0.194714 20.6446C0.211525 20.698 0.225363 20.787 0.225442 20.8423C0.225522 20.9095 0.238665 20.9627 0.264953 21.0022C0.286621 21.0349 0.304404 21.0864 0.304464 21.1167C0.304543 21.147 0.322445 21.2067 0.344252 21.2493C0.366059 21.2919 0.383901 21.3429 0.383901 21.3625C0.383901 21.3821 0.401743 21.4314 0.423551 21.4719C0.445358 21.5125 0.4632 21.5557 0.4632 21.568C0.4632 21.5803 0.48471 21.6403 0.511017 21.7015C0.537325 21.7627 0.587382 21.8838 0.622293 21.9708C0.657185 22.0578 0.783131 22.3246 0.902158 22.5638C1.11708 22.9957 1.16606 23.0887 1.31846 23.3545C1.36209 23.4306 1.4127 23.5195 1.43092 23.5522C1.49206 23.6616 1.67393 23.9362 1.69314 23.948C1.70361 23.9544 1.71216 23.9735 1.71216 23.9904C1.71216 24.0073 1.74784 24.0636 1.79146 24.1155C1.83507 24.1675 1.87075 24.219 1.87075 24.2301C1.87075 24.2413 1.90426 24.2934 1.9452 24.346C1.98613 24.3986 2.04636 24.4817 2.07901 24.5305C2.11166 24.5794 2.17185 24.6546 2.21273 24.6976C2.25363 24.7406 2.28707 24.7838 2.28707 24.7936C2.28707 24.861 3.06089 25.6907 3.35685 25.9406C3.44912 26.0186 3.54037 26.0957 3.55962 26.112C3.57887 26.1283 3.63719 26.1754 3.68921 26.2167C3.92231 26.4017 4.0101 26.4678 4.02263 26.4678C4.03474 26.4678 4.09875 26.5126 4.35913 26.7035C4.40294 26.7356 4.46097 26.7735 4.48807 26.7878C4.51517 26.802 4.58638 26.8471 4.64629 26.888C4.86508 27.0371 5.09076 27.1794 5.10846 27.1794C5.11844 27.1794 5.16915 27.2105 5.22113 27.2486C5.27311 27.2866 5.32372 27.3177 5.33357 27.3177C5.34345 27.3177 5.4393 27.3711 5.54659 27.4363C5.6539 27.5016 5.75663 27.5549 5.77487 27.5549C5.79313 27.5549 5.84327 27.5805 5.88631 27.6117C5.98492 27.6832 6.23481 27.8119 6.27501 27.8119C6.2917 27.8119 6.31956 27.8275 6.3369 27.8465C6.36763 27.8802 6.44867 27.9274 6.54938 27.9704C6.57664 27.982 6.62125 28.0043 6.64851 28.02C6.67577 28.0357 6.72122 28.0487 6.74951 28.0488C6.7778 28.049 6.81712 28.0669 6.83684 28.0886C6.85657 28.1104 6.89142 28.1283 6.91426 28.1285C6.9371 28.1287 6.99427 28.1549 7.04129 28.1867C7.08834 28.2185 7.16863 28.2598 7.21972 28.2786C7.27082 28.2974 7.32602 28.3239 7.34237 28.3374C7.35873 28.351 7.40779 28.3681 7.45141 28.3754C7.49502 28.3828 7.55487 28.4058 7.58443 28.4265C7.61397 28.4473 7.66304 28.4643 7.69347 28.4644C7.72388 28.4644 7.77554 28.4821 7.80825 28.5038C7.84096 28.5254 7.89308 28.5431 7.92407 28.5431C7.95507 28.5432 8.00311 28.5611 8.03082 28.5828C8.05915 28.605 8.11125 28.6224 8.14977 28.6224C8.18829 28.6224 8.24039 28.6397 8.26872 28.6619C8.29705 28.6841 8.34915 28.7014 8.38767 28.7014C8.42619 28.7014 8.47829 28.7187 8.50662 28.741C8.53435 28.7627 8.58494 28.7805 8.61908 28.7805C8.6532 28.7805 8.71222 28.797 8.75022 28.8171C8.78823 28.8373 8.855 28.8599 8.89861 28.8673C8.94223 28.8748 9.00467 28.893 9.03738 28.9078C9.12753 28.9485 9.52234 29.0375 9.61284 29.0375C9.65677 29.0375 9.71136 29.0505 9.73418 29.0664C9.7771 29.0964 9.83981 29.1096 10.2533 29.1759C10.3878 29.1975 10.5044 29.2191 10.5124 29.224C10.5276 29.2334 10.8172 29.2695 11.0694 29.2935C11.1512 29.3013 11.2832 29.3194 11.3627 29.3337C11.537 29.3652 11.5618 29.3519 11.5339 29.2424C11.5238 29.2025 11.4976 29.1603 11.4758 29.1486C11.454 29.1369 11.4045 29.1072 11.3657 29.0824C11.327 29.0577 11.2717 29.0375 11.243 29.0375C11.2142 29.0375 11.1856 29.0292 11.1793 29.0191C11.1663 28.9981 10.9339 28.8793 10.9058 28.8793C10.8957 28.8793 10.8646 28.8615 10.8369 28.8398C10.8092 28.818 10.7704 28.8003 10.7506 28.8003C10.7122 28.8003 10.5462 28.7178 10.4954 28.6735C10.4786 28.6588 10.4455 28.641 10.4219 28.6338C10.3984 28.6267 10.3683 28.6078 10.3551 28.5919C10.3419 28.5761 10.3116 28.5631 10.2878 28.5631C10.264 28.5631 10.2143 28.5408 10.1773 28.5136C10.1404 28.4865 10.1028 28.4642 10.0939 28.4642C10.0851 28.4642 10.035 28.4342 9.98269 28.3976C9.93039 28.3609 9.86683 28.3244 9.84142 28.3163C9.81602 28.3083 9.75514 28.2712 9.70613 28.2339C9.65714 28.1966 9.5892 28.1533 9.55521 28.1376C9.52119 28.122 9.44875 28.0779 9.39423 28.0398C9.33971 28.0016 9.1893 27.8969 9.05999 27.8071C8.65677 27.5272 8.41392 27.3359 7.92833 26.9156C7.53447 26.5748 6.84846 25.8834 6.69807 25.6758C6.67626 25.6456 6.56921 25.512 6.46017 25.3787C6.35114 25.2455 6.24854 25.1166 6.23219 25.0924C6.21583 25.0681 6.12228 24.9429 6.02431 24.8142C5.78399 24.4983 5.57209 24.2024 5.50508 24.089C5.49225 24.0673 5.46773 24.0417 5.45056 24.0321C5.43341 24.0226 5.41938 23.9935 5.41938 23.9674C5.41938 23.9415 5.41083 23.9149 5.40036 23.9085C5.38099 23.8965 5.17872 23.5962 5.15369 23.5423C5.14613 23.526 5.11812 23.4771 5.09146 23.4336C5.06481 23.3901 5.03006 23.3271 5.01426 23.2936C4.99846 23.2602 4.97164 23.2212 4.95465 23.2072C4.93766 23.1931 4.92376 23.1663 4.92376 23.1476C4.92376 23.1288 4.90592 23.0929 4.88411 23.0679C4.8623 23.0428 4.84446 23.0115 4.84446 22.9983C4.84446 22.9852 4.82717 22.9525 4.80604 22.9257C4.78491 22.8989 4.76173 22.8536 4.75453 22.825C4.74734 22.7964 4.72952 22.7631 4.71493 22.7511C4.70033 22.739 4.68233 22.7016 4.67492 22.6679C4.6675 22.6342 4.64467 22.5792 4.62417 22.5457C4.60367 22.5122 4.58686 22.4728 4.58682 22.4582C4.58678 22.4436 4.5689 22.4091 4.54709 22.3814C4.52528 22.3538 4.50724 22.3079 4.507 22.2795C4.50677 22.2511 4.48912 22.2055 4.46779 22.1784C4.44646 22.1512 4.42881 22.1101 4.42858 22.0871C4.42834 22.0642 4.4103 22.0227 4.38849 21.9951C4.36668 21.9674 4.34864 21.9195 4.34841 21.8886C4.34817 21.8577 4.33033 21.7937 4.30876 21.7463C4.28719 21.6989 4.26954 21.6496 4.26954 21.6368C4.26954 21.624 4.25136 21.5783 4.22914 21.5352C4.20692 21.4921 4.18346 21.4169 4.17702 21.3679C4.17058 21.319 4.14861 21.2512 4.12821 21.2173C4.10781 21.1834 4.09112 21.1244 4.09112 21.0861C4.09112 21.0478 4.07348 20.9777 4.05191 20.9303C4.03034 20.8829 4.0125 20.813 4.01226 20.7749C4.01202 20.7369 3.9944 20.6524 3.9731 20.5871C3.92737 20.4471 3.87856 20.2196 3.84268 19.9793C3.82848 19.8842 3.80727 19.7618 3.79555 19.7073C3.76834 19.5807 3.66051 18.6878 3.64403 18.4523C3.64023 18.398 3.63273 18.2912 3.6274 18.2151C3.61836 18.0861 3.61519 17.0966 3.62296 16.8314C3.62488 16.7662 3.63731 16.6816 3.65058 16.6435C3.66386 16.6053 3.67294 16.5431 3.67076 16.5051C3.66858 16.4672 3.6686 16.3698 3.6708 16.2888C3.67669 16.0724 3.70944 16.1343 3.75497 16.448C3.77613 16.5937 3.81665 16.8196 3.84504 16.95C3.87341 17.0805 3.9077 17.2451 3.92124 17.3159C3.93478 17.3867 3.956 17.4635 3.96839 17.4866C3.98078 17.5097 4.00108 17.5941 4.01347 17.6742C4.02588 17.7543 4.04721 17.842 4.06087 17.8692C4.07455 17.8964 4.09166 17.9649 4.09889 18.0215C4.10615 18.0781 4.12946 18.1626 4.15071 18.2093C4.17199 18.256 4.18963 18.3298 4.18995 18.3733C4.19026 18.4182 4.20749 18.4779 4.22989 18.5116C4.25394 18.5478 4.26933 18.6044 4.2694 18.6568C4.2695 18.7125 4.28344 18.7602 4.30919 18.7928C4.3356 18.8263 4.34898 18.8736 4.34928 18.9343C4.34958 18.9943 4.363 19.0425 4.38849 19.075C4.41192 19.1048 4.42747 19.1557 4.42778 19.2035C4.42806 19.247 4.4461 19.3116 4.46787 19.3472C4.48964 19.3828 4.50744 19.4364 4.50744 19.4661C4.50744 19.4959 4.52397 19.5513 4.54417 19.5892C4.5644 19.6271 4.58745 19.6937 4.59542 19.7372C4.60339 19.7807 4.6233 19.8311 4.63965 19.8493C4.65601 19.8675 4.67458 19.9208 4.68091 19.9678C4.68723 20.0149 4.70874 20.08 4.7287 20.1127C4.74867 20.1453 4.76504 20.1909 4.76508 20.2138C4.76512 20.2368 4.783 20.2783 4.80481 20.3059C4.82662 20.3336 4.84446 20.378 4.84446 20.4048C4.84446 20.4315 4.86105 20.4745 4.88133 20.5005C4.90161 20.5264 4.92297 20.5743 4.92877 20.6069C4.94095 20.6753 5.02508 20.8782 5.05732 20.9169C5.06933 20.9314 5.08571 20.9698 5.0937 21.0024C5.10168 21.0349 5.1247 21.0828 5.14484 21.1087C5.16501 21.1346 5.18168 21.1702 5.18192 21.1878C5.18215 21.2053 5.1998 21.2419 5.22113 21.2691C5.24246 21.2963 5.2601 21.3321 5.26034 21.3487C5.26058 21.3653 5.27515 21.3994 5.29272 21.4244C5.31028 21.4494 5.3579 21.5336 5.39856 21.6116C5.50898 21.8234 5.57889 21.9441 5.63065 22.0122C5.6562 22.0459 5.6771 22.0793 5.6771 22.0864C5.6771 22.0936 5.71895 22.1595 5.77011 22.2328C5.82126 22.3062 5.89406 22.4106 5.93188 22.465C5.96969 22.5193 6.0639 22.6475 6.14119 22.7497C6.21851 22.8519 6.29482 22.9542 6.31079 22.977C6.38105 23.0773 6.53186 23.2731 6.70709 23.4914C7.06253 23.9342 7.10632 23.9865 7.13512 24.0026C7.15098 24.0114 7.16395 24.0271 7.16395 24.0375C7.16395 24.1117 8.21444 25.1933 8.53185 25.4458C8.62453 25.5196 8.74055 25.6174 8.78967 25.6631C8.8388 25.7088 8.92355 25.7799 8.97801 25.821C9.03247 25.8621 9.15421 25.9555 9.24856 26.0286C9.49761 26.2214 9.67776 26.354 9.7459 26.3946C9.77871 26.4142 9.84423 26.4587 9.89149 26.4934C10.0758 26.6292 10.4298 26.8628 10.4747 26.8784C10.491 26.8841 10.5223 26.904 10.5441 26.9227C10.5943 26.9658 10.9427 27.1681 11.0992 27.2451C11.1646 27.2773 11.282 27.3421 11.3602 27.389C11.4384 27.4359 11.5276 27.4806 11.5584 27.4883C11.5893 27.496 11.6959 27.549 11.7952 27.6062C11.8945 27.6633 12.0105 27.7198 12.0529 27.7317C12.0953 27.7435 12.1474 27.7665 12.1685 27.7826C12.2075 27.8123 12.3286 27.8219 12.3861 27.7999C12.4651 27.7697 12.4162 27.6978 12.0953 27.3719C11.9182 27.192 11.7509 27.0157 11.7236 26.9801C11.6964 26.9445 11.6423 26.8791 11.6035 26.8349C11.5421 26.7649 11.44 26.6401 11.1983 26.3392C11.1656 26.2985 11.1254 26.2451 11.1091 26.2205C11.0927 26.1959 11.0386 26.1236 10.9888 26.0598C10.8475 25.8789 10.2942 25.0685 10.2101 24.9193C10.1201 24.7595 10.1052 24.735 10.0333 24.6274C9.99256 24.5665 9.95923 24.5078 9.95923 24.497C9.95923 24.4863 9.94139 24.4613 9.91958 24.4417C9.89778 24.422 9.87993 24.3906 9.87993 24.3718C9.87993 24.3531 9.86671 24.3268 9.85055 24.3135C9.8344 24.3001 9.78926 24.2256 9.75024 24.148C9.68127 24.0107 9.63341 23.9191 9.59894 23.8586C9.58966 23.8422 9.56444 23.7933 9.54291 23.7498C9.52138 23.7063 9.49569 23.6574 9.4858 23.6411C9.47593 23.6248 9.45805 23.5892 9.44605 23.562C9.43406 23.5349 9.41679 23.4993 9.40767 23.483C9.34629 23.3733 9.30502 23.2834 9.30502 23.2594C9.30502 23.2439 9.28773 23.2094 9.2666 23.1826C9.24546 23.1559 9.22179 23.108 9.214 23.0762C9.20623 23.0444 9.18337 22.9972 9.16323 22.9713C9.14307 22.9454 9.1266 22.9068 9.1266 22.8855C9.1266 22.8642 9.10875 22.8242 9.08695 22.7965C9.06514 22.7689 9.04724 22.7319 9.04716 22.7143C9.0471 22.6968 9.02932 22.6557 9.00765 22.6231C8.98598 22.5905 8.968 22.546 8.96768 22.5243C8.96736 22.5025 8.94968 22.4625 8.92835 22.4353C8.90702 22.4082 8.88933 22.3637 8.88902 22.3365C8.8887 22.3093 8.87072 22.2604 8.84905 22.2278C8.82738 22.1952 8.80958 22.1507 8.80946 22.129C8.80934 22.1072 8.79144 22.0603 8.76967 22.0247C8.7479 21.9891 8.7301 21.949 8.7301 21.9356C8.7301 21.9222 8.7078 21.8694 8.68054 21.8184C8.65328 21.7673 8.63098 21.7031 8.63098 21.6757C8.63098 21.6483 8.61318 21.5967 8.59141 21.5611C8.56964 21.5255 8.5518 21.4756 8.55176 21.4501C8.55172 21.4246 8.53384 21.3812 8.51203 21.3536C8.49022 21.3259 8.47238 21.2775 8.47238 21.2459C8.47238 21.2143 8.45454 21.1536 8.43273 21.111C8.41092 21.0683 8.39308 21.0174 8.39308 20.9978C8.39308 20.9782 8.37639 20.9311 8.35599 20.8931C8.33559 20.8552 8.31214 20.7842 8.30387 20.7354C8.2956 20.6866 8.27215 20.6156 8.25175 20.5777C8.23135 20.5397 8.21466 20.4895 8.21466 20.4661C8.21466 20.4426 8.19701 20.3847 8.17545 20.3373C8.15388 20.2899 8.13613 20.2289 8.13599 20.2017C8.13588 20.1745 8.11829 20.0989 8.09694 20.0337C8.02161 19.8035 7.95886 19.5747 7.86115 19.1738C7.68607 18.4555 7.65909 18.3349 7.65933 18.2716C7.65947 18.2374 7.64238 18.1529 7.62137 18.0838C7.60035 18.0147 7.57757 17.8959 7.57071 17.8198C7.56387 17.7437 7.54145 17.6103 7.52091 17.5233C7.50036 17.4363 7.4797 17.2666 7.47498 17.1462C7.46986 17.0154 7.45569 16.908 7.43975 16.8794C7.42171 16.8469 7.40861 16.7102 7.39919 16.4559C7.39154 16.2493 7.37369 16.0091 7.35952 15.9222C7.34098 15.8084 7.33373 15.5007 7.33367 14.8251C7.33359 13.9079 7.35389 13.4489 7.425 12.7595C7.43622 12.6508 7.44788 12.504 7.45089 12.4333C7.45391 12.3627 7.46653 12.2605 7.47892 12.2064C7.49133 12.1523 7.50047 12.05 7.49926 11.9791C7.49782 11.8954 7.50813 11.8294 7.52863 11.7909C7.55012 11.7506 7.56025 11.6795 7.56032 11.5686C7.5604 11.4614 7.57341 11.3667 7.59827 11.2919C7.61907 11.2293 7.64149 11.0997 7.64805 11.0038C7.65463 10.9079 7.67233 10.8056 7.68738 10.7764C7.70243 10.7473 7.72118 10.6345 7.72907 10.5258C7.73805 10.4018 7.75383 10.3163 7.77144 10.2963C7.78688 10.2788 7.80829 10.1855 7.81908 10.0888C7.82984 9.99213 7.85189 9.87951 7.86806 9.83854C7.88424 9.79754 7.89746 9.72958 7.89746 9.6875C7.89746 9.64542 7.91511 9.57222 7.93668 9.52482C7.95825 9.47744 7.97639 9.39418 7.97698 9.33982C7.97758 9.28546 7.99532 9.19207 8.01641 9.13227C8.03751 9.07248 8.05505 8.99489 8.05541 8.95984C8.05576 8.9248 8.07299 8.85808 8.09367 8.81159C8.13237 8.72462 8.20227 8.42764 8.22523 8.25265C8.23236 8.19829 8.24703 8.1431 8.25784 8.12999C8.26864 8.11691 8.28952 8.05464 8.30421 7.99163C8.3189 7.92863 8.35425 7.79702 8.38275 7.69918C8.41126 7.60133 8.47347 7.37006 8.52101 7.18524C8.56855 7.00042 8.62711 6.78249 8.65114 6.70095C8.73286 6.4237 8.72907 6.36244 8.62814 6.32736C8.54656 6.29901 8.55221 6.29806 8.46962 6.35402ZM19.7665 12.2227C19.7598 12.24 19.7045 12.2537 19.6083 12.2618C19.5269 12.2687 19.4346 12.284 19.4033 12.2959C19.3719 12.3078 19.2838 12.3297 19.2075 12.3444C19.048 12.3752 18.8577 12.4235 18.7713 12.4551C18.7386 12.4671 18.6672 12.4888 18.6127 12.5033C18.4816 12.5383 18.335 12.5883 18.2306 12.6337C18.1839 12.6539 18.1326 12.6705 18.1165 12.6705C18.1004 12.6705 18.0539 12.6883 18.0132 12.7101C17.9726 12.7318 17.9291 12.7496 17.9166 12.7496C17.896 12.7496 17.8466 12.7701 17.5719 12.8926C17.2233 13.0481 16.6066 13.3726 16.3626 13.5289C16.1349 13.6747 15.9752 13.7822 15.8174 13.8958C15.5951 14.0557 15.6359 14.024 15.3912 14.2272C14.6287 14.8605 14.1148 15.5503 13.657 16.5547C13.6273 16.6199 13.5908 16.7 13.5759 16.7326C13.5509 16.7872 13.538 16.8214 13.4676 17.0192C13.4541 17.0573 13.4275 17.1284 13.4086 17.1774C13.3897 17.2263 13.3557 17.3286 13.3329 17.4047C13.3102 17.4808 13.2739 17.6009 13.2522 17.6715C13.2306 17.7422 13.2071 17.8356 13.2 17.8791C13.1929 17.9226 13.1745 17.9937 13.159 18.0372C13.1435 18.0807 13.1226 18.1697 13.1124 18.2349C13.1023 18.3001 13.0801 18.4021 13.063 18.4616C13.046 18.521 13.0321 18.6063 13.0321 18.6512C13.0321 18.696 13.0186 18.7763 13.0022 18.8297C12.9858 18.8831 12.9637 19.0246 12.953 19.1442C12.9424 19.2638 12.9202 19.4417 12.9037 19.5395C12.8871 19.6373 12.8736 19.8028 12.8735 19.9071C12.8734 20.2031 12.8525 20.3994 12.821 20.3994C12.799 20.3994 12.7942 20.5133 12.7942 21.0319C12.7942 21.581 12.7981 21.6644 12.8239 21.6644C12.8403 21.6644 12.8541 21.6666 12.8546 21.6694C12.8551 21.6721 12.8635 21.8745 12.8733 22.1191C12.8831 22.3645 12.9049 22.6333 12.9219 22.7188C12.9389 22.804 12.9529 22.9329 12.9531 23.0054C12.9533 23.0778 12.9675 23.1993 12.9846 23.2754C13.0017 23.3515 13.0229 23.4913 13.0317 23.586C13.0405 23.6808 13.0633 23.8075 13.0823 23.8677C13.1151 23.9719 13.12 23.9772 13.1835 23.9772C13.2264 23.9772 13.2501 23.9676 13.2501 23.9503C13.2501 23.9355 13.3505 23.828 13.4732 23.7112C13.5958 23.5944 13.8389 23.3595 14.0134 23.1891C14.3831 22.828 14.8574 22.37 15.2237 22.0202C15.4537 21.8006 15.869 21.4 17.0063 20.3002C17.192 20.1206 17.4688 19.8541 17.6215 19.7078C17.9976 19.3474 18.3524 19.0049 19.1381 18.2438C20.2907 17.1273 20.7062 16.7328 20.7368 16.726C20.7659 16.7194 20.8587 16.776 20.9661 16.8657C20.9956 16.8903 21.1185 16.9861 21.2391 17.0785C21.3597 17.1709 21.5506 17.3177 21.6634 17.4047C21.7762 17.4917 21.9611 17.6335 22.0744 17.7199C22.1876 17.8062 22.3963 17.9662 22.538 18.0755C22.6798 18.1847 22.8046 18.2808 22.8156 18.2892C22.8265 18.2975 22.9305 18.3777 23.0467 18.4673C23.3804 18.7246 23.6909 18.9631 23.9082 19.1292C24.4769 19.5641 24.5859 19.6493 24.6091 19.6772C24.623 19.6939 24.6511 19.7075 24.6716 19.7075C24.7078 19.7075 24.7088 19.6308 24.7088 16.7837C24.7088 14.4622 24.7037 13.8581 24.684 13.8516C24.6662 13.8457 24.6574 13.7639 24.6525 13.5584C24.6471 13.3319 24.6392 13.2662 24.614 13.238C24.5798 13.1999 24.3883 13.1058 24.0149 12.9436C23.9659 12.9223 23.9112 12.8973 23.8935 12.8879C23.8758 12.8786 23.7866 12.8428 23.6953 12.8083C23.6039 12.7739 23.4891 12.7301 23.44 12.711C23.3331 12.6694 23.1852 12.6191 23.0634 12.5829C23.0143 12.5683 22.9474 12.5469 22.9147 12.5352C22.7844 12.4888 22.6512 12.4493 22.5377 12.4235C22.4721 12.4086 22.393 12.3867 22.3618 12.3749C22.3307 12.3631 22.2505 12.3449 22.1837 12.3344C22.1169 12.3239 22.0134 12.3019 21.9538 12.2854C21.8942 12.2689 21.8025 12.2554 21.75 12.2554C21.6835 12.2554 21.6511 12.2465 21.6432 12.2258C21.6332 12.2 21.5104 12.1961 20.7042 12.1961C19.9454 12.1961 19.7748 12.201 19.7665 12.2227ZM28.5152 17.2112C28.4988 17.2168 28.3962 17.308 28.2872 17.4138C28.1781 17.5197 27.8213 17.8582 27.4942 18.1661C27.1671 18.4741 26.8101 18.8112 26.701 18.9153C26.5918 19.0195 26.3646 19.2336 26.1961 19.3912C25.6494 19.9025 25.1435 20.3797 24.7386 20.766C24.5205 20.9741 24.0479 21.4192 23.6884 21.7552C23.3289 22.0912 22.9274 22.4677 22.7963 22.5918C21.5517 23.7693 20.9121 24.3636 20.8839 24.3685C20.8654 24.3717 20.7915 24.3272 20.7197 24.2696C20.6479 24.212 20.4133 24.0271 20.1984 23.8586C19.9834 23.69 19.6494 23.4276 19.456 23.2754C19.2627 23.1232 18.9269 22.8593 18.7099 22.689C18.4929 22.5186 18.2672 22.3407 18.2084 22.2936C18.1496 22.2465 18.0783 22.1904 18.0498 22.169C17.9916 22.125 17.282 21.5645 17.1186 21.4335C17.0023 21.3402 16.9676 21.3303 16.9416 21.3828C16.932 21.402 16.9268 22.8212 16.9299 24.5773C16.9348 27.4417 16.9383 27.7405 16.967 27.7721C17.0082 27.8175 17.387 28.0035 17.7305 28.1469C17.8123 28.1811 17.9015 28.221 17.9288 28.2357C17.956 28.2504 18.0096 28.2717 18.0477 28.2832C18.0859 28.2946 18.1795 28.3274 18.2559 28.356C18.3322 28.3847 18.4437 28.424 18.5037 28.4434C18.5637 28.4629 18.635 28.4881 18.6623 28.4995C18.7101 28.5196 18.886 28.572 19.1975 28.659C19.454 28.7307 19.8642 28.8121 20.2631 28.8705C20.3095 28.8772 20.3474 28.8909 20.3474 28.9008C20.3474 28.9275 21.492 28.9245 21.501 28.8977C21.5048 28.8861 21.5792 28.868 21.6662 28.8574C21.9274 28.8256 22.291 28.7615 22.4434 28.7204C22.5222 28.6991 22.6001 28.6817 22.6165 28.6817C22.6439 28.6817 22.784 28.6413 23.0039 28.57C23.053 28.5541 23.1288 28.5323 23.1724 28.5217C23.2612 28.5 23.4283 28.4387 23.5512 28.3827C23.5961 28.3623 23.6426 28.3456 23.6548 28.3456C23.6752 28.3456 23.7286 28.3235 23.9477 28.2243C23.9925 28.2041 24.0352 28.1875 24.0425 28.1875C24.0782 28.1875 24.7727 27.8386 25.026 27.6935C26.4034 26.9041 27.2017 26.089 27.8524 24.8074C27.9598 24.5958 28.0594 24.3774 28.0984 24.2679C28.1185 24.2113 28.159 24.1027 28.1884 24.0266C28.2177 23.9505 28.2538 23.8482 28.2685 23.7992C28.2832 23.7503 28.3083 23.6703 28.3241 23.6213C28.4208 23.3236 28.4359 23.2715 28.4359 23.2352C28.4359 23.2131 28.4537 23.1444 28.4755 23.0825C28.4973 23.0207 28.5152 22.9446 28.5152 22.9136C28.5152 22.8825 28.532 22.8 28.5527 22.7302C28.5733 22.6604 28.5993 22.5411 28.6104 22.465C28.6215 22.3889 28.6442 22.2421 28.6609 22.1388C28.739 21.6561 28.7585 21.4729 28.7954 20.8738C28.8275 20.3524 28.8326 20.114 28.8223 19.6087C28.8154 19.2662 28.8012 18.8971 28.7909 18.7884C28.7805 18.6796 28.7627 18.4707 28.7513 18.324C28.74 18.1774 28.7179 17.9906 28.7022 17.9089C28.6866 17.8273 28.6738 17.7294 28.6738 17.6913C28.6739 17.5709 28.6113 17.2768 28.5774 17.2382C28.5595 17.2178 28.5315 17.2057 28.5152 17.2112ZM33.0484 19.1277C33.019 19.157 33.0386 19.2396 33.0996 19.3429C33.135 19.4029 33.1819 19.482 33.2037 19.5188C33.2777 19.6433 33.6101 20.2665 33.6101 20.2806C33.6101 20.2883 33.6429 20.3559 33.6829 20.431C33.7229 20.506 33.7711 20.6074 33.79 20.6563C33.8088 20.7052 33.8619 20.8342 33.9079 20.9429C34.0879 21.3682 34.2535 21.8473 34.4031 22.376C34.4231 22.4467 34.4582 22.5668 34.4811 22.6429C34.5039 22.719 34.5225 22.7964 34.5223 22.8149C34.5222 22.8334 34.5358 22.9001 34.5526 22.9631C34.6052 23.1606 34.663 23.4458 34.6911 23.6462C34.706 23.7523 34.7244 23.8491 34.732 23.8614C34.7469 23.8855 34.7804 24.1808 34.8293 24.7184C34.8809 25.2868 34.8742 27.2537 34.8198 27.4759C34.8105 27.5139 34.7929 27.6696 34.7806 27.8218C34.7683 27.974 34.7502 28.1341 34.7403 28.1776C34.7304 28.2211 34.7121 28.3189 34.6995 28.395C34.6279 28.8295 34.3741 29.7273 34.1883 30.2037C33.9114 30.9136 33.5079 31.734 33.191 32.2312C33.1489 32.2972 33.1145 32.3569 33.1145 32.3639C33.1145 32.3708 33.0595 32.4547 32.9923 32.5503C32.9251 32.6458 32.8332 32.7773 32.7881 32.8426C32.6605 33.027 32.5567 33.1739 32.5156 33.228C32.495 33.2552 32.4343 33.3353 32.3808 33.4059C32.2398 33.592 32.1644 33.688 31.9847 33.91C31.8967 34.0187 31.7725 34.1744 31.7087 34.2559C31.5745 34.4274 31.4949 34.5057 31.475 34.4859C31.4621 34.473 31.5198 34.3487 31.6644 34.078C31.7565 33.9057 31.959 33.48 31.9747 33.4257C31.9826 33.3985 32.0064 33.3477 32.0276 33.3127C32.0489 33.2777 32.0872 33.1976 32.1129 33.1348C32.1387 33.0719 32.2102 32.9004 32.2719 32.7536C32.3337 32.6068 32.3929 32.4513 32.4035 32.408C32.4142 32.3647 32.4342 32.3157 32.4481 32.2993C32.4761 32.266 32.6278 31.8876 32.6504 31.7949C32.6583 31.7623 32.6763 31.7178 32.6903 31.6961C32.7043 31.6744 32.7249 31.621 32.7361 31.5775C32.7473 31.534 32.8109 31.3339 32.8775 31.1327C32.9442 30.9316 33.0103 30.727 33.0244 30.6781C33.0386 30.6292 33.0683 30.5269 33.0905 30.4508C33.1126 30.3747 33.1406 30.2724 33.1526 30.2235C33.1646 30.1745 33.2005 30.0367 33.2325 29.9171C33.2644 29.7975 33.2963 29.6507 33.3033 29.5909C33.3103 29.5311 33.3279 29.4377 33.3423 29.3834C33.3568 29.329 33.3789 29.2178 33.3916 29.1363C33.4043 29.0548 33.4232 28.9347 33.4336 28.8694C33.4997 28.456 33.5202 27.4049 33.4824 26.3689C33.449 25.4543 33.3348 24.5935 33.1518 23.8783C33.0025 23.2948 32.967 23.1612 32.9366 23.0679C32.9171 23.0081 32.8767 22.8791 32.847 22.7813C32.7761 22.5483 32.6963 22.3192 32.6644 22.2574C32.6504 22.2303 32.6389 22.1917 32.6388 22.1717C32.6388 22.1517 32.6075 22.0646 32.5693 21.978C32.5311 21.8915 32.4999 21.8091 32.4999 21.7949C32.4999 21.7807 32.4791 21.73 32.4537 21.6822C32.4282 21.6344 32.401 21.5697 32.3932 21.5384C32.3854 21.5071 32.345 21.4093 32.3036 21.321C32.2621 21.2326 32.2133 21.1196 32.1952 21.0698C32.177 21.0201 32.1401 20.9494 32.113 20.9128C32.0859 20.8762 32.0638 20.8338 32.0638 20.8186C32.0638 20.7902 31.9238 20.508 31.8656 20.4191C31.8479 20.3919 31.808 20.3122 31.777 20.2419C31.694 20.0534 31.5524 19.8301 31.5069 19.8157C31.423 19.7891 31.3852 19.8806 31.4316 19.9978C31.4438 20.0284 31.4615 20.1202 31.4711 20.2017C31.4807 20.2832 31.4972 20.4078 31.5078 20.4784C31.5369 20.6739 31.5888 21.4733 31.5975 21.8621C31.6083 22.3458 31.5509 23.6113 31.507 23.8586C31.4963 23.9183 31.483 24.0295 31.4773 24.1056C31.4664 24.2514 31.4503 24.3675 31.4005 24.6591C31.3838 24.757 31.37 24.8754 31.37 24.9223C31.37 24.9692 31.3608 25.0245 31.3498 25.0452C31.3387 25.0658 31.3163 25.1609 31.2999 25.2564C31.2357 25.6328 31.1088 26.2058 31.0403 26.4287C31.0253 26.4778 31.0004 26.5757 30.9852 26.6461C30.9577 26.7732 30.8318 27.2294 30.7562 27.4759C30.6618 27.7835 30.5503 28.1257 30.5155 28.2148C30.4948 28.2679 30.4775 28.3257 30.4772 28.3433C30.4769 28.3609 30.4546 28.4197 30.4278 28.4741C30.401 28.5285 30.379 28.5889 30.3789 28.6083C30.3788 28.6278 30.3621 28.6767 30.3418 28.717C30.3216 28.7574 30.2986 28.8169 30.2907 28.8494C30.2829 28.8819 30.2465 28.9797 30.21 29.0668C30.1734 29.154 30.1105 29.3053 30.0703 29.4031C29.9198 29.7686 29.8177 30.002 29.7204 30.2037C29.5295 30.5993 29.3029 31.044 29.265 31.0976C29.2441 31.1272 29.1822 31.2449 29.1274 31.3592C29.0726 31.4735 29.0202 31.5717 29.0109 31.5775C29.0015 31.5832 28.9159 31.719 28.8206 31.8792C28.5367 32.3565 28.4886 32.431 28.109 32.9809C27.7907 33.4421 27.616 33.6801 27.3981 33.9493C27.3452 34.0147 27.252 34.1304 27.1909 34.2065C26.9613 34.4928 26.7467 34.7426 26.5575 34.9438C26.5002 35.0047 26.4534 35.0619 26.4534 35.0709C26.4534 35.08 26.3798 35.1606 26.2898 35.25C26.1999 35.3394 25.9791 35.5636 25.7992 35.7481C25.299 36.2612 24.2267 37.2693 23.9277 37.5075C23.8595 37.5619 23.7063 37.6915 23.5872 37.7955C23.2467 38.0927 23.0986 38.217 23.0237 38.268C22.9855 38.294 22.9175 38.347 22.8725 38.3858C22.8275 38.4246 22.7383 38.4986 22.6743 38.5502C22.4257 38.7507 22.1411 38.9857 22.1316 38.9984C22.1261 39.0057 22.0815 39.0348 22.0325 39.0631C21.9133 39.1317 21.8673 39.1859 21.8673 39.2578C21.8673 39.3403 21.89 39.3564 22.0351 39.3764C22.1045 39.386 22.2639 39.4211 22.3893 39.4544C22.6491 39.5235 22.7692 39.5499 22.9246 39.5722C22.9846 39.5809 23.1005 39.6032 23.1823 39.6218C23.3508 39.6603 23.4979 39.6847 23.7275 39.7122C23.8147 39.7226 23.9352 39.7407 23.9951 39.7524C24.0551 39.7641 24.1889 39.7814 24.2925 39.791C24.3961 39.8005 24.6369 39.8231 24.8278 39.8411C25.2893 39.8846 26.5844 39.885 27.0184 39.8417C27.1819 39.8254 27.4094 39.8028 27.5239 39.7914C27.6384 39.78 27.7678 39.7625 27.8114 39.7525C27.855 39.7424 27.971 39.7233 28.0691 39.71C28.1672 39.6968 28.2776 39.6739 28.3144 39.6592C28.3511 39.6445 28.4112 39.6325 28.4478 39.6325C28.6188 39.6325 29.8173 39.2914 29.9775 39.1971C30.014 39.1757 30.0681 39.1581 30.0977 39.1581C30.1272 39.1581 30.1825 39.137 30.2204 39.1113C30.2584 39.0856 30.3207 39.058 30.3589 39.0501C30.397 39.0421 30.4464 39.0242 30.4686 39.0102C30.4907 38.9963 30.6067 38.9427 30.7263 38.8911C30.8458 38.8396 30.9571 38.7861 30.9734 38.7723C30.9898 38.7585 31.1013 38.7002 31.2212 38.6428C31.4443 38.536 31.4958 38.5074 31.7827 38.3307C31.8735 38.2748 31.9525 38.229 31.9584 38.229C31.9802 38.229 32.3188 38.0195 32.5297 37.8755C33.2945 37.3533 33.6067 37.119 33.9763 36.7898C34.4249 36.3904 35.0582 35.7301 35.2703 35.4407C35.3056 35.3924 35.3751 35.304 35.4247 35.2442C35.4744 35.1844 35.5461 35.091 35.5842 35.0367C35.6223 34.9823 35.6935 34.8845 35.7424 34.8193C35.849 34.6772 36.0356 34.4078 36.1179 34.2769C36.1506 34.225 36.2131 34.1313 36.2567 34.0688C36.365 33.9137 36.6368 33.4732 36.6841 33.3763C36.7053 33.3328 36.7635 33.2307 36.8135 33.1495C36.9484 32.9298 37.1666 32.5033 37.213 32.3682C37.3721 31.9054 37.5436 31.2515 37.603 30.8819C37.6191 30.782 37.641 30.6664 37.6518 30.625C37.6809 30.5127 37.7138 30.2975 37.7138 30.2192C37.7138 30.1813 37.7225 30.1245 37.7331 30.093C37.7527 30.0347 37.7689 29.8699 37.8242 29.1659C37.86 28.7096 37.85 27.9742 37.8026 27.5846C37.7395 27.0661 37.7311 27.0057 37.7013 26.8532C37.6299 26.4877 37.4806 25.934 37.4055 25.7562C37.3894 25.7181 37.3638 25.6425 37.3485 25.5881C37.2902 25.3805 36.871 24.3186 36.8101 24.2242C36.7961 24.2025 36.7525 24.1046 36.7131 24.0068C36.6738 23.909 36.6211 23.7978 36.596 23.7597C36.5709 23.7217 36.535 23.6461 36.516 23.5917C36.4971 23.5373 36.4649 23.4662 36.4443 23.4336C36.4237 23.4009 36.3592 23.2764 36.3008 23.1568C36.2424 23.0372 36.1394 22.8478 36.0719 22.7359C36.0044 22.6239 35.9257 22.4861 35.897 22.4295C35.8361 22.3093 35.6757 22.056 35.6066 21.9708C35.5801 21.9382 35.5434 21.8821 35.5249 21.8462C35.5064 21.8103 35.445 21.7194 35.3883 21.6443C35.3316 21.5691 35.2496 21.4577 35.206 21.3967C35.1624 21.3357 35.0979 21.2487 35.0628 21.2033C35.0276 21.158 34.9637 21.0719 34.9207 21.0121C34.7485 20.7727 34.2499 20.2096 33.9055 19.8657C33.2458 19.2067 33.0973 19.0789 33.0484 19.1277ZM3.6587 27.1569C3.63733 27.1704 3.63858 27.2417 3.66574 27.5569C3.72926 28.2944 3.82741 28.9621 3.95165 29.502C3.97416 29.5998 4.00086 29.7206 4.01097 29.7704C4.0373 29.9001 4.1383 30.2823 4.20121 30.4903C4.23081 30.5882 4.27113 30.726 4.29082 30.7967C4.32614 30.9236 4.44384 31.2751 4.49596 31.4095C4.51071 31.4475 4.54705 31.5454 4.57671 31.6269C4.7158 32.0094 5.09036 32.8348 5.24946 33.1094C5.26522 33.1366 5.3418 33.27 5.41965 33.4059C5.62686 33.7676 5.86135 34.1284 6.07339 34.4118C6.13348 34.4921 6.19972 34.581 6.22059 34.6094C6.24149 34.6379 6.29121 34.6967 6.33107 34.7402C6.37096 34.7837 6.41991 34.8459 6.43983 34.8786C6.45978 34.9112 6.51431 34.9779 6.56104 35.0268C6.60775 35.0757 6.7123 35.1869 6.79335 35.2739C7.0836 35.5854 7.48309 35.97 7.66948 36.1175C7.7458 36.1778 7.8261 36.2474 7.8479 36.2721C7.9383 36.3744 8.3732 36.7203 8.78609 37.0183C8.88775 37.0917 9.0171 37.1852 9.07354 37.2261C9.30714 37.3953 9.7454 37.6763 9.94932 37.7876C10.0693 37.8531 10.2254 37.9401 10.2963 37.9811C10.3671 38.022 10.4605 38.0682 10.5038 38.0836C10.547 38.0991 10.6191 38.1332 10.664 38.1594C10.7088 38.1856 10.8149 38.2345 10.8997 38.2681C10.9845 38.3017 11.0864 38.3465 11.1261 38.3676C11.2127 38.4138 11.5312 38.537 11.6146 38.5567C11.6473 38.5644 11.7072 38.5872 11.7476 38.6074C11.7881 38.6276 11.8463 38.6441 11.877 38.6441C11.9077 38.6441 11.9542 38.659 11.9803 38.6773C12.0064 38.6955 12.072 38.7174 12.126 38.7259C12.1801 38.7344 12.2399 38.7554 12.2589 38.7726C12.2779 38.7898 12.337 38.8118 12.3902 38.8214C12.4434 38.8311 12.527 38.8522 12.5761 38.8684C12.6252 38.8846 12.7411 38.917 12.8338 38.9404C13.0127 38.9855 13.1788 39.0318 13.3889 39.0949C13.4598 39.1162 13.6471 39.1576 13.8052 39.1869C13.9633 39.2162 14.1418 39.2523 14.2017 39.2671C14.3647 39.3073 14.6139 39.3535 14.737 39.3663C14.9486 39.3882 15.0474 39.415 15.0938 39.415C15.1367 39.4167 15.1148 39.4167 15.1367 39.4167C15.1587 39.4167 15.1466 39.4167 15.1731 39.415C15.2225 39.415 15.2952 39.4167 15.3349 39.4167C15.3501 39.4166 15.325 39.4167 15.3448 39.4167C15.3845 39.4167 15.3943 39.405 15.5002 39.4098C15.5917 39.414 16.3806 39.355 16.4716 39.3371C16.5262 39.3265 16.6734 39.3039 16.7988 39.287C17.1064 39.2456 17.2671 39.2196 17.3737 39.1939C17.4227 39.1821 17.5298 39.1608 17.6116 39.1467C17.6933 39.1325 17.8004 39.111 17.8495 39.0989C17.8985 39.0868 17.9851 39.0685 18.0418 39.0581C18.0985 39.0477 18.1699 39.0293 18.2004 39.0172C18.2309 39.005 18.3094 38.9838 18.3748 38.97C18.4402 38.9563 18.5205 38.9353 18.5532 38.9234C18.586 38.9115 18.7108 38.8711 18.8308 38.8337C19.4537 38.6394 20.147 38.3412 20.6646 38.045C20.8942 37.9135 21.4312 37.55 21.5176 37.4675C21.546 37.4404 21.6055 37.3938 21.6499 37.364C21.7309 37.3096 21.8851 37.186 22.2321 36.8973C22.7281 36.4845 23.5286 35.7127 23.9755 35.2162C24.2024 34.9641 24.2607 34.897 24.4582 34.6611C24.4946 34.6176 24.5396 34.5527 24.5581 34.5168C24.5767 34.4809 24.6046 34.4467 24.6201 34.4408C24.6356 34.4348 24.6747 34.3886 24.707 34.338C24.7393 34.2874 24.7953 34.2051 24.8314 34.1551C25.0429 33.8628 25.0792 33.8114 25.1152 33.754C25.137 33.7192 25.1772 33.6604 25.2044 33.6234C25.2317 33.5863 25.2718 33.5278 25.2936 33.4932C25.3154 33.4586 25.3595 33.3915 25.3914 33.344C25.4234 33.2965 25.4997 33.1643 25.561 33.0501C25.6224 32.936 25.7057 32.7916 25.7462 32.7292C25.7867 32.6668 25.8608 32.529 25.9109 32.4228C25.9609 32.3167 26.0189 32.2059 26.0397 32.1767C26.0605 32.1476 26.0904 32.0873 26.1062 32.0428C26.1327 31.9678 26.1656 31.8962 26.3772 31.453C26.4556 31.2886 26.4633 31.2118 26.4012 31.2118C26.3461 31.2118 26.3015 31.2488 26.1466 31.4233C25.7092 31.916 25.2104 32.409 24.8155 32.7391C24.7405 32.8018 24.6343 32.8908 24.5796 32.9368C24.2085 33.2489 23.3088 33.8662 22.9642 34.0451C22.9043 34.0762 22.8418 34.1135 22.8255 34.128C22.8091 34.1424 22.7244 34.1912 22.6371 34.2364C22.5499 34.2817 22.4027 34.3582 22.31 34.4065C22.17 34.4794 21.9934 34.5598 21.4675 34.7898C21.3885 34.8243 20.969 34.9856 20.8529 35.026C20.7875 35.0488 20.6542 35.0945 20.5568 35.1276C20.4593 35.1607 20.3549 35.2005 20.3248 35.216C20.2947 35.2315 20.2451 35.2443 20.2146 35.2444C20.184 35.2444 20.1323 35.2622 20.0996 35.2838C20.0669 35.3054 20.0133 35.3233 19.9806 35.3236C19.9479 35.3239 19.8836 35.3412 19.8377 35.3619C19.7918 35.3827 19.7115 35.4059 19.6593 35.4134C19.607 35.4209 19.542 35.4383 19.5147 35.4521C19.4875 35.4658 19.4206 35.486 19.3661 35.497C19.3115 35.508 19.2312 35.5308 19.1876 35.5478C19.144 35.5647 19.0744 35.5789 19.033 35.5794C18.9916 35.5799 18.9336 35.5926 18.9041 35.6077C18.8747 35.6228 18.7926 35.645 18.7218 35.657C18.6509 35.6689 18.5527 35.6879 18.5037 35.6991C18.4546 35.7103 18.3241 35.7314 18.2136 35.7461C18.1032 35.7607 18.005 35.7775 17.9954 35.7834C17.976 35.7954 17.5783 35.8303 17.2448 35.8494C16.7639 35.8768 15.8396 35.8508 15.3912 35.7972C15.1099 35.7636 14.6673 35.6985 14.5189 35.6689C14.3057 35.6265 14.1744 35.6023 13.9908 35.5715C13.902 35.5566 13.8111 35.5347 13.7889 35.5228C13.7666 35.5109 13.7322 35.5013 13.7124 35.5015C13.6926 35.5016 13.6184 35.4842 13.5475 35.4626C13.4766 35.4411 13.3384 35.4002 13.2402 35.3717C13.1421 35.3432 13.0127 35.3041 12.9528 35.2848C12.8928 35.2655 12.7768 35.2293 12.695 35.2043C12.56 35.1631 12.4898 35.1399 12.2787 35.0668C12.2406 35.0535 12.1647 35.0291 12.1102 35.0126C12.0557 34.9959 12.0012 34.9745 11.9891 34.965C11.9771 34.9554 11.9191 34.9306 11.8603 34.9099C11.4178 34.7538 11.3393 34.7192 11.3582 34.6886C11.3726 34.6655 11.5278 34.6789 11.7335 34.721C11.8616 34.7472 12.0108 34.7658 12.4571 34.8114C12.5498 34.8208 12.8219 34.842 13.0618 34.8585C13.3017 34.8749 13.5559 34.8925 13.6268 34.8976C13.8925 34.9167 15.4882 34.9235 15.6787 34.9064C15.7877 34.8966 15.9311 34.8852 15.9973 34.881C16.3177 34.8608 16.4993 34.8436 16.5807 34.8257C16.6298 34.8149 16.768 34.7944 16.888 34.78C17.108 34.7537 17.332 34.7126 17.5323 34.6617C17.5922 34.6465 17.735 34.6102 17.8495 34.5812C17.964 34.5521 18.0889 34.5169 18.127 34.5031C18.1652 34.4892 18.2767 34.4535 18.3748 34.4237C18.473 34.394 18.6034 34.3485 18.6648 34.3226C18.7261 34.2968 18.7905 34.2757 18.808 34.2757C18.8254 34.2757 18.8778 34.2588 18.9244 34.2382C18.971 34.2176 19.0717 34.1809 19.148 34.1565C19.2243 34.1322 19.3046 34.1014 19.3264 34.0881C19.3482 34.0748 19.4107 34.0499 19.4652 34.0328C19.6336 33.9798 19.7848 33.9248 19.8241 33.9022C19.8448 33.8904 19.9312 33.8539 20.0161 33.8211C20.1011 33.7883 20.2363 33.7304 20.3165 33.6924C20.3968 33.6544 20.4687 33.6234 20.4762 33.6234C20.4904 33.6234 20.8658 33.4483 20.9719 33.3922C21.0046 33.3749 21.1027 33.3236 21.1899 33.2782C21.5058 33.1136 21.8765 32.8891 22.2505 32.6358C22.2996 32.6026 22.4032 32.5332 22.4808 32.4816C22.7729 32.2874 23.3453 31.8586 23.5862 31.6535C23.6421 31.6059 23.7534 31.5115 23.8335 31.4437C24.2749 31.0704 25.2328 30.107 25.2566 30.0126C25.2847 29.9011 25.2221 29.8791 25.0954 29.9559C24.9841 30.0234 24.4088 30.3058 24.247 30.3724C24.1729 30.4029 24.1077 30.4352 24.1021 30.4442C24.0965 30.4533 24.0779 30.4607 24.0609 30.4607C24.0438 30.4607 23.9796 30.4821 23.9183 30.5082C23.6442 30.6252 23.0938 30.8245 22.8991 30.8774C22.8251 30.8975 22.7542 30.9202 22.7417 30.9279C22.7292 30.9357 22.6737 30.9532 22.6186 30.967C22.5633 30.9807 22.478 31.005 22.429 31.021C22.1833 31.101 22.0709 31.1327 22.0338 31.1327C22.0113 31.1327 21.9417 31.1497 21.8789 31.1705C21.8162 31.1912 21.7251 31.2138 21.6766 31.2207C21.6281 31.2277 21.5783 31.2416 21.566 31.2518C21.5538 31.262 21.4782 31.2795 21.3981 31.2909C21.318 31.3022 21.2429 31.3191 21.2311 31.3284C21.2194 31.3377 21.1562 31.3515 21.0908 31.3591C21.0254 31.3667 20.9005 31.3891 20.8133 31.4089C20.726 31.4287 20.5878 31.4554 20.506 31.4683C20.4242 31.4811 20.3127 31.4997 20.2582 31.5094C20.2036 31.5192 20.0832 31.5367 19.9905 31.5483C19.8979 31.5599 19.764 31.5782 19.6932 31.5891C19.6223 31.5999 19.4706 31.6173 19.3561 31.6276C19.2417 31.638 19.1034 31.6516 19.0489 31.6577C18.8931 31.6754 18.6667 31.6901 17.992 31.7262C17.5526 31.7497 16.4622 31.756 16.1148 31.7371C15.9949 31.7306 15.7451 31.7156 15.5597 31.7038C15.3744 31.692 15.1915 31.6826 15.1533 31.6828C15.1151 31.6831 15.0183 31.6706 14.9381 31.6551C14.8579 31.6396 14.7326 31.6269 14.6597 31.6269C14.5869 31.6269 14.4775 31.614 14.4167 31.5982C14.3559 31.5824 14.2135 31.56 14.1003 31.5485C13.9871 31.5369 13.8512 31.5144 13.7983 31.4985C13.7454 31.4825 13.6428 31.4643 13.5703 31.458C13.4494 31.4476 13.2176 31.4009 13.0231 31.3478C12.9328 31.3232 12.5139 31.2367 12.3679 31.2125C12.3134 31.2035 12.2287 31.1823 12.1796 31.1655C12.1305 31.1487 12.019 31.1156 11.9318 31.0921C11.7578 31.0453 11.4918 30.9688 11.3371 30.9212C10.8227 30.763 10.6606 30.711 10.5738 30.6765C10.5247 30.657 10.3597 30.5967 10.207 30.5425C10.0544 30.4882 9.90273 30.4299 9.87002 30.4129C9.83731 30.3958 9.78721 30.3818 9.75871 30.3817C9.7302 30.3817 9.68454 30.3641 9.65724 30.3427C9.62996 30.3213 9.5507 30.2823 9.4811 30.2561C9.24723 30.168 9.13752 30.1213 8.93826 30.0253C8.82922 29.9727 8.70534 29.9191 8.66298 29.9062C8.62061 29.8932 8.55467 29.8614 8.51647 29.8356C8.47827 29.8097 8.44046 29.7886 8.43243 29.7886C8.41408 29.7886 7.77919 29.4798 7.58027 29.3741C7.49849 29.3307 7.39144 29.2771 7.34237 29.2551C7.29331 29.2331 7.21748 29.1928 7.17386 29.1655C7.13025 29.1382 7.01873 29.0793 6.92605 29.0346C6.83337 28.9899 6.7439 28.9415 6.72725 28.9271C6.69591 28.9 6.51025 28.7948 6.25201 28.6577C6.17024 28.6143 6.02304 28.5291 5.92491 28.4684C5.75945 28.366 5.6405 28.2969 5.35917 28.14C5.2988 28.1063 5.22743 28.0631 5.20057 28.0438C5.12781 27.9918 4.69252 27.7139 4.50417 27.5993C4.39953 27.5356 4.14697 27.3801 4.03829 27.3124C4.00738 27.2931 3.93871 27.2464 3.88568 27.2086C3.79187 27.1417 3.71164 27.1234 3.6587 27.1569Z" fill="#434343"/>
</svg>
