<svg width="40" height="40" viewBox="0 0 40 40" fill="none" xmlns="http://www.w3.org/2000/svg">
<path d="M32.2677 35.1218V34.9565L32.1156 34.8918C30.1186 34.0421 28.72 32.0894 28.72 29.8004C28.72 27.5085 30.1209 25.5155 32.1114 24.7108L32.2677 24.6477V24.4791V2.21759C32.2677 1.11399 33.1314 0.250317 34.235 0.250317C35.3386 0.250317 36.2023 1.11399 36.2023 2.21759V24.4347V24.6L36.3544 24.6648C38.3514 25.5145 39.75 27.4672 39.75 29.7561C39.7497 32.0907 38.3501 34.0427 36.3544 34.892L36.4522 35.1218H36.2023V35.1221V35.5002V37.7827C36.2023 38.8863 35.3386 39.75 34.235 39.75C33.1314 39.75 32.2677 38.8863 32.2677 37.7827V35.1218ZM22.1194 15.3352L21.9673 15.4V15.5653V37.7824C21.9673 38.886 21.1036 39.7497 20 39.7497C18.8964 39.7497 18.0327 38.886 18.0327 37.7824V15.5653V15.4L17.8806 15.3352C15.8836 14.4855 14.485 12.5328 14.485 10.2439C14.485 7.95192 15.886 5.95891 17.8764 5.15429L18.0327 5.09111V4.92251V2.26162C18.0327 1.15802 18.8964 0.294345 20 0.294345C21.1036 0.294345 21.9673 1.15802 21.9673 2.26162V4.92251V5.08783L22.1194 5.15256C24.1164 6.00226 25.515 7.95495 25.515 10.2439C25.515 12.5329 24.1165 14.4855 22.1194 15.3352ZM7.88862 25.0894L7.73231 25.1526V25.3211V37.7822C7.73231 38.8858 6.86863 39.7495 5.76502 39.7495C4.66141 39.7495 3.79774 38.8858 3.79774 37.7822V25.3211V25.1558L3.64562 25.0911C1.64862 24.2414 0.25 22.2887 0.25 19.9998C0.25 17.7078 1.65098 15.7148 3.64143 14.9102L3.79774 14.847V14.6784V2.21728C3.79774 1.11367 4.66141 0.25 5.76502 0.25C6.86863 0.25 7.73231 1.11367 7.73231 2.21728V14.6784V14.8437L7.88443 14.9084C9.88142 15.7581 11.28 17.7108 11.28 19.9998C11.28 22.2917 9.87906 24.2848 7.88862 25.0894ZM34.235 27.2886C32.8552 27.2886 31.7677 28.3761 31.7677 29.7559C31.7677 31.1356 32.8552 32.2231 34.235 32.2231C35.6147 32.2231 36.7023 31.1356 36.7023 29.7559C36.7023 28.3761 35.6147 27.2886 34.235 27.2886ZM20 7.73204C18.6203 7.73204 17.5327 8.81957 17.5327 10.1993C17.5327 11.5791 18.6203 12.6666 20 12.6666C21.3798 12.6666 22.4673 11.5791 22.4673 10.1993C22.4673 8.81957 21.3798 7.73204 20 7.73204ZM5.76502 17.5325C4.38527 17.5325 3.29774 18.62 3.29774 19.9998C3.29774 21.3795 4.38527 22.467 5.76502 22.467C7.14477 22.467 8.23231 21.3795 8.23231 19.9998C8.23231 18.62 7.14511 17.5325 5.76502 17.5325Z" fill="#1E4DD8" stroke="white" stroke-width="0.5"/>
<path d="M22.119 15.3353L21.9669 15.4V15.5653V37.7824C21.9669 38.886 21.1033 39.7497 19.9996 39.7497C18.896 39.7497 18.0324 38.886 18.0324 37.7824V15.5653V15.4L17.8802 15.3353C15.8832 14.4856 14.4846 12.5329 14.4846 10.2439C14.4846 7.95195 15.8856 5.95893 17.8761 5.15432L18.0324 5.09113V4.92254V2.26165C18.0324 1.15805 18.896 0.294373 19.9996 0.294373C21.1033 0.294373 21.9669 1.15805 21.9669 2.26165V4.92254V5.08786L22.119 5.15258C24.116 6.00229 25.5147 7.95498 25.5147 10.2439C25.5147 12.5329 24.1161 14.4856 22.119 15.3353ZM19.9996 7.73207C18.6199 7.73207 17.5324 8.8196 17.5324 10.1993C17.5324 11.5791 18.6199 12.6666 19.9996 12.6666C21.3794 12.6666 22.4669 11.5791 22.4669 10.1993C22.4669 8.8196 21.3794 7.73207 19.9996 7.73207Z" fill="#1E4DD8" stroke="white" stroke-width="0.5"/>
</svg>
