<svg width="51" height="51" viewBox="0 0 51 51" fill="none" xmlns="http://www.w3.org/2000/svg">
<path d="M25.3738 37.3201C23.8805 37.3201 22.5898 37.1388 21.5018 36.7761C20.4138 36.4134 19.5072 35.9441 18.7818 35.3681C18.0778 34.7708 17.5445 34.1308 17.1818 33.4481C16.8192 32.7441 16.6272 32.0508 16.6058 31.3681C16.6058 31.1761 16.6698 31.0268 16.7978 30.9201C16.9472 30.7921 17.1178 30.7281 17.3098 30.7281H20.1898C20.4032 30.7281 20.5845 30.7708 20.7338 30.8561C20.8832 30.9414 21.0112 31.1121 21.1178 31.3681C21.3098 31.9441 21.6192 32.4028 22.0458 32.7441C22.4938 33.0854 23.0058 33.3308 23.5818 33.4801C24.1578 33.6081 24.7658 33.6721 25.4058 33.6721C26.6858 33.6721 27.6992 33.3734 28.4458 32.7761C29.2138 32.1574 29.5978 31.2828 29.5978 30.1521C29.5978 29.0214 29.2458 28.2108 28.5418 27.7201C27.8378 27.2081 26.8565 26.9521 25.5978 26.9521H22.3018C22.0672 26.9521 21.8752 26.8881 21.7258 26.7601C21.5765 26.6108 21.5018 26.4188 21.5018 26.1841V24.8401C21.5018 24.6268 21.5445 24.4454 21.6298 24.2961C21.7365 24.1254 21.8432 23.9868 21.9498 23.8801L27.6778 18.2801H18.5258C18.2912 18.2801 18.0992 18.2054 17.9498 18.0561C17.8218 17.9068 17.7578 17.7254 17.7578 17.5121V15.4001C17.7578 15.1654 17.8218 14.9734 17.9498 14.8241C18.0992 14.6748 18.2912 14.6001 18.5258 14.6001H32.2538C32.4885 14.6001 32.6805 14.6748 32.8298 14.8241C32.9792 14.9734 33.0538 15.1654 33.0538 15.4001V17.3201C33.0538 17.5121 33.0112 17.6828 32.9258 17.8321C32.8405 17.9814 32.7445 18.1094 32.6378 18.2161L27.1018 23.9121L27.4858 23.9441C28.7872 24.0508 29.9392 24.3494 30.9418 24.8401C31.9658 25.3094 32.7552 26.0028 33.3098 26.9201C33.8858 27.8374 34.1738 28.9894 34.1738 30.3761C34.1738 31.8268 33.7898 33.0748 33.0218 34.1201C32.2752 35.1441 31.2405 35.9334 29.9178 36.4881C28.5952 37.0428 27.0805 37.3201 25.3738 37.3201Z" fill="#1E4DD8"/>
<circle cx="25.5" cy="25.5" r="24.5" stroke="#1E4DD8" stroke-width="2"/>
</svg>
