<svg width="51" height="51" viewBox="0 0 51 51" fill="none" xmlns="http://www.w3.org/2000/svg">
<path d="M17.3017 37.0001C17.0884 37.0001 16.907 36.9254 16.7577 36.7761C16.6084 36.6267 16.5337 36.4454 16.5337 36.2321V34.6001C16.5337 34.4081 16.5764 34.1841 16.6617 33.9281C16.7684 33.6507 16.9924 33.3734 17.3337 33.0961L22.3897 28.0721C23.7977 26.9627 24.9284 26.0241 25.7817 25.2561C26.6564 24.4667 27.2857 23.7521 27.6697 23.1121C28.075 22.4507 28.2777 21.8001 28.2777 21.1601C28.2777 20.2001 28.011 19.4214 27.4777 18.8241C26.9657 18.2267 26.1444 17.9281 25.0137 17.9281C24.267 17.9281 23.6377 18.0881 23.1257 18.4081C22.6137 18.7067 22.2084 19.1121 21.9097 19.6241C21.6324 20.1361 21.4404 20.7014 21.3337 21.3201C21.291 21.5974 21.1737 21.7894 20.9817 21.8961C20.7897 22.0027 20.5977 22.0561 20.4057 22.0561H17.5577C17.3657 22.0561 17.2057 21.9921 17.0777 21.8641C16.9497 21.7361 16.8857 21.5867 16.8857 21.4161C16.907 20.4987 17.099 19.6134 17.4617 18.7601C17.8244 17.8854 18.347 17.1174 19.0297 16.4561C19.7337 15.7734 20.587 15.2294 21.5897 14.8241C22.5924 14.4187 23.723 14.2161 24.9817 14.2161C26.7524 14.2161 28.2137 14.5147 29.3657 15.1121C30.539 15.7094 31.4137 16.5201 31.9897 17.5441C32.587 18.5681 32.8857 19.7201 32.8857 21.0001C32.8857 22.0027 32.6937 22.9307 32.3097 23.7841C31.9257 24.6161 31.371 25.4267 30.6457 26.2161C29.9204 26.9841 29.0457 27.7734 28.0217 28.5841L23.4777 33.1921H32.5977C32.8324 33.1921 33.0137 33.2667 33.1417 33.4161C33.291 33.5441 33.3657 33.7254 33.3657 33.9601V36.2321C33.3657 36.4454 33.291 36.6267 33.1417 36.7761C33.0137 36.9254 32.8324 37.0001 32.5977 37.0001H17.3017Z" fill="#1E4DD8"/>
<circle cx="25.5" cy="25.5" r="24.5" stroke="#1E4DD8" stroke-width="2"/>
</svg>
