<svg width="51" height="51" viewBox="0 0 51 51" fill="none" xmlns="http://www.w3.org/2000/svg">
<path d="M27.7025 37.0001C27.4891 37.0001 27.3078 36.9254 27.1585 36.7761C27.0091 36.6268 26.9345 36.4454 26.9345 36.2321V32.1361H16.7905C16.5558 32.1361 16.3638 32.0614 16.2145 31.9121C16.0865 31.7628 16.0225 31.5814 16.0225 31.3681V29.1921C16.0225 29.0641 16.0438 28.9148 16.0865 28.7441C16.1505 28.5521 16.2465 28.3814 16.3745 28.2321L25.8145 15.1441C26.0918 14.7814 26.4865 14.6001 26.9985 14.6001H30.4865C30.6998 14.6001 30.8811 14.6748 31.0305 14.8241C31.1798 14.9734 31.2545 15.1548 31.2545 15.3681V28.3601H34.1025C34.3585 28.3601 34.5505 28.4348 34.6785 28.5841C34.8278 28.7121 34.9025 28.8934 34.9025 29.1281V31.3681C34.9025 31.5814 34.8278 31.7628 34.6785 31.9121C34.5291 32.0614 34.3478 32.1361 34.1345 32.1361H31.2545V36.2321C31.2545 36.4454 31.1798 36.6268 31.0305 36.7761C30.8811 36.9254 30.6998 37.0001 30.4865 37.0001H27.7025ZM20.4705 28.4881H27.0305V19.2401L20.4705 28.4881Z" fill="#1E4DD8"/>
<circle cx="25.5" cy="25.5" r="24.5" stroke="#1E4DD8" stroke-width="2"/>
</svg>
