<svg width="51" height="51" viewBox="0 0 51 51" fill="none" xmlns="http://www.w3.org/2000/svg">
<path d="M25.2286 37.0001C24.9939 37.0001 24.8019 36.9254 24.6526 36.7761C24.5246 36.6268 24.4606 36.4454 24.4606 36.2321V19.6561L19.5966 23.4001C19.4046 23.5281 19.2126 23.5814 19.0206 23.5601C18.8286 23.5174 18.6579 23.4001 18.5086 23.2081L17.1646 21.4801C17.0366 21.2881 16.9832 21.0854 17.0046 20.8721C17.0472 20.6588 17.1646 20.4881 17.3566 20.3601L24.5246 14.8241C24.6526 14.7174 24.7806 14.6534 24.9086 14.6321C25.0366 14.6108 25.1752 14.6001 25.3246 14.6001H28.1406C28.3539 14.6001 28.5352 14.6748 28.6846 14.8241C28.8339 14.9734 28.9086 15.1548 28.9086 15.3681V36.2321C28.9086 36.4454 28.8339 36.6268 28.6846 36.7761C28.5352 36.9254 28.3539 37.0001 28.1406 37.0001H25.2286Z" fill="#1E4DD8"/>
<circle cx="25.5" cy="25.5" r="24.5" stroke="#1E4DD8" stroke-width="2"/>
</svg>
