<svg width="51" height="51" viewBox="0 0 51 51" fill="none" xmlns="http://www.w3.org/2000/svg">
<path d="M24.8701 37.3521C23.0354 37.3521 21.4888 37.0534 20.2301 36.4561C18.9714 35.8374 18.0114 35.0374 17.3501 34.0561C16.7101 33.0748 16.3688 32.0294 16.3261 30.9201C16.3048 30.7281 16.3581 30.5788 16.4861 30.4721C16.6354 30.3441 16.8061 30.2801 16.9981 30.2801H19.9741C20.2088 30.2801 20.4008 30.3334 20.5501 30.4401C20.7208 30.5254 20.8488 30.6854 20.9341 30.9201C21.1474 31.5601 21.4461 32.0828 21.8301 32.4881C22.2354 32.8934 22.6941 33.1921 23.2061 33.3841C23.7394 33.5761 24.2941 33.6721 24.8701 33.6721C25.6381 33.6721 26.3314 33.5228 26.9501 33.2241C27.5901 32.9041 28.1021 32.4348 28.4861 31.8161C28.8701 31.1974 29.0621 30.4401 29.0621 29.5441C29.0621 28.7548 28.8808 28.0721 28.5181 27.4961C28.1554 26.9201 27.6541 26.4721 27.0141 26.1521C26.3954 25.8108 25.6808 25.6401 24.8701 25.6401C24.2728 25.6401 23.7821 25.7148 23.3981 25.8641C23.0141 26.0134 22.6834 26.1841 22.4061 26.3761C22.1501 26.5681 21.9154 26.7388 21.7021 26.8881C21.5101 27.0374 21.2861 27.1121 21.0301 27.1121H18.0861C17.8941 27.1121 17.7234 27.0481 17.5741 26.9201C17.4461 26.7708 17.3821 26.6001 17.3821 26.4081L18.5021 15.4641C18.5234 15.1868 18.6194 14.9734 18.7901 14.8241C18.9608 14.6748 19.1634 14.6001 19.3981 14.6001H31.4301C31.6434 14.6001 31.8248 14.6748 31.9741 14.8241C32.1234 14.9734 32.1981 15.1548 32.1981 15.3681V17.5121C32.1981 17.7254 32.1234 17.9068 31.9741 18.0561C31.8248 18.2054 31.6434 18.2801 31.4301 18.2801H22.1821L21.6701 23.4961C22.0541 23.2401 22.5661 22.9948 23.2061 22.7601C23.8461 22.5254 24.7314 22.4081 25.8621 22.4081C26.8861 22.4081 27.8568 22.5788 28.7741 22.9201C29.7128 23.2401 30.5448 23.7201 31.2701 24.3601C31.9954 24.9788 32.5608 25.7361 32.9661 26.6321C33.3928 27.5068 33.6061 28.5094 33.6061 29.6401C33.6061 31.1974 33.2434 32.5521 32.5181 33.7041C31.7928 34.8561 30.7794 35.7521 29.4781 36.3921C28.1768 37.0321 26.6408 37.3521 24.8701 37.3521Z" fill="#1E4DD8"/>
<circle cx="25.5" cy="25.5" r="24.5" stroke="#1E4DD8" stroke-width="2"/>
</svg>
