<svg width="196" height="61" viewBox="0 0 196 61" fill="none" xmlns="http://www.w3.org/2000/svg">
<path fill-rule="evenodd" clip-rule="evenodd" d="M102.788 20.1733H76.6104V26.1772H85.7363L85.7363 51.3937H93.9016L93.9016 26.1772H102.788V20.1733Z" fill="white"/>
<path d="M131.726 33.9713H118.037V39.735H124.162V45.739C110.617 46.7957 111.393 35.3722 113.474 29.5284C119.046 21.9394 127.244 26.3663 130.646 29.5284H131.726V22.0835C129.709 20.6425 124.722 19.802 122.48 19.5618C107.11 18.2169 103.668 29.6484 103.868 35.5323C104.445 55.1292 122.681 52.9037 131.726 49.3414V33.9713Z" fill="white" stroke="#0B2379"/>
<path d="M137.49 20.0532V51.1536H145.415V40.5866L146.856 38.5453L155.022 51.1536H164.868L153.341 34.4626L164.268 20.0532H155.142L145.415 33.502V20.0532H137.49Z" fill="white" stroke="#0B2379"/>
<path d="M166.91 20.0532V51.1536H174.835V40.5866L176.276 38.5453L184.441 51.1536H194.288L182.76 34.4626L193.687 20.0532H184.561L174.835 33.502V20.0532H166.91Z" fill="white" stroke="#0B2379"/>
<path fill-rule="evenodd" clip-rule="evenodd" d="M29.6721 0.0453596C29.6721 0.0703074 29.6619 0.0907191 29.6494 0.0907494C29.5198 0.0909006 28.9127 0.16142 28.7471 0.19556C28.6303 0.219631 28.4256 0.259668 28.2922 0.284526C28.1587 0.309383 27.9267 0.358008 27.7766 0.392572C27.6265 0.427166 27.4218 0.473584 27.3217 0.49575C27.2216 0.517916 27.0646 0.558709 26.9729 0.586409C26.8812 0.614078 26.7174 0.662673 26.609 0.694395C26.5005 0.726116 26.3436 0.773834 26.2602 0.800445C26.1768 0.827056 26.0471 0.867668 25.9721 0.890681C25.6819 0.979707 25.4922 1.04687 24.8954 1.27197C24.4083 1.45574 24.052 1.59914 23.7657 1.72672C23.6948 1.75829 23.5719 1.81221 23.4927 1.8465C23.2211 1.96407 23.1653 1.99044 22.5132 2.30977C21.8041 2.65701 21.6863 2.73633 20.849 3.43109C19.0047 4.96122 17.404 6.88543 16.4921 8.66843C16.1138 9.4083 15.8743 10.0126 15.6013 10.9165C15.5687 11.0246 15.514 11.2025 15.4799 11.3118C15.4458 11.4211 15.4178 11.5329 15.4178 11.5602C15.4178 11.5876 15.3954 11.675 15.3679 11.7546C15.3404 11.8342 15.301 11.981 15.2803 12.0808C15.2323 12.3129 15.1533 12.6434 15.0997 12.8368C15.0767 12.9199 15.0487 13.056 15.0376 13.1392C15.0264 13.2223 14.9914 13.3916 14.9598 13.5153C14.9281 13.639 14.9022 13.7799 14.9022 13.8284C14.9022 13.877 14.8824 13.9935 14.8582 14.0874C14.834 14.1812 14.7993 14.3805 14.7811 14.5302C14.7628 14.6799 14.7353 14.85 14.7199 14.9082C14.7045 14.9664 14.6773 15.1773 14.6594 15.3769C14.6415 15.5765 14.6043 15.8963 14.5767 16.0875C14.5037 16.594 14.5064 19.062 14.5806 19.6558C14.6087 19.8803 14.6443 20.2069 14.6597 20.3816C14.6752 20.5562 14.7082 20.8148 14.7331 20.9561C14.758 21.0975 14.7917 21.3016 14.808 21.4097C14.8408 21.6278 14.8787 21.8285 14.9678 22.2564C15.0007 22.4144 15.0369 22.5912 15.0483 22.6492C15.0748 22.7837 15.1593 22.8075 15.1893 22.6889C15.2102 22.606 15.2214 22.5132 15.3106 21.6819C15.3347 21.4573 15.3752 21.1784 15.4008 21.062C15.4263 20.9455 15.4473 20.8031 15.4476 20.7454C15.4479 20.6877 15.4739 20.5313 15.5054 20.3977C15.5369 20.2641 15.5933 20.0187 15.6308 19.8524C15.7749 19.213 16.1119 18.0578 16.2794 17.6298C16.3022 17.5715 16.3579 17.4219 16.4032 17.2971C16.4485 17.1724 16.4973 17.0475 16.5116 17.0196C16.526 16.9917 16.585 16.8488 16.6428 16.7021C16.9372 15.9546 17.4173 14.99 17.8518 14.2731C18.3616 13.4322 19.3105 12.0964 19.9818 11.2748C20.6098 10.5062 21.419 9.66359 22.0142 9.15849C22.7608 8.525 23.8472 7.77394 24.6983 7.30283C24.8067 7.24284 24.9159 7.18139 24.9409 7.16633C25.0158 7.12127 26.1274 6.57312 26.2829 6.50456C26.5167 6.40151 26.6743 6.33413 26.8516 6.26138C26.9433 6.22373 27.0593 6.17435 27.1094 6.15167C27.2104 6.10585 27.4025 6.03597 27.6098 5.96965C27.6849 5.94564 27.7893 5.90579 27.8418 5.88111C27.8944 5.85644 27.9626 5.83618 27.9935 5.83608C28.0243 5.83596 28.0886 5.81561 28.1363 5.79082C28.184 5.76599 28.2931 5.72644 28.3789 5.70288C28.4647 5.67932 28.5757 5.64582 28.6258 5.62843C28.7806 5.5746 29.0113 5.50281 29.2172 5.44436C29.5657 5.34544 29.8351 5.27142 29.9906 5.23186C30.074 5.21064 30.2298 5.16785 30.3369 5.13676C30.4439 5.1057 30.5544 5.08027 30.5823 5.08027C30.6103 5.08027 30.7125 5.05306 30.8094 5.01979C30.9919 4.9572 31.1744 4.93902 31.145 4.98638C31.1358 5.00129 30.9814 5.08789 30.802 5.17885C30.4787 5.34281 30.1029 5.54261 29.8692 5.67485C29.8025 5.71262 29.7002 5.76889 29.6418 5.79992C29.5834 5.83091 29.4845 5.8858 29.4219 5.92187C29.3594 5.95795 29.2638 6.01271 29.2096 6.04359C28.9955 6.16555 28.5584 6.42295 28.4381 6.49794C28.3682 6.54149 28.2249 6.63048 28.1196 6.69565C27.6698 6.97422 26.7409 7.59821 26.3057 7.91422C25.2015 8.71593 24.482 9.31831 23.6952 10.0999C23.0449 10.7459 22.4979 11.4041 21.9608 12.1866C21.9322 12.2282 21.7986 12.4187 21.6639 12.61C21.4119 12.9675 21.0717 13.4773 20.8603 13.8138C20.7944 13.9188 20.7047 14.0617 20.6609 14.1313C20.1369 14.966 19.6583 15.9102 19.2631 16.8889C19.2296 16.972 19.1816 17.0877 19.1565 17.1459C19.1315 17.2041 19.0929 17.3062 19.0709 17.3727C19.0489 17.4392 18.9953 17.5889 18.9518 17.7054C18.4633 19.012 18.0329 20.6709 17.8414 21.9843C17.8232 22.109 17.7822 22.3827 17.7504 22.5925C17.682 23.0426 17.6765 23.264 17.7326 23.3104C17.7748 23.3453 17.8441 23.3034 17.8441 23.2429C17.8441 23.1944 18.2153 22.4832 18.3906 22.196C18.4059 22.171 18.474 22.0553 18.542 21.9389C19.1117 20.964 19.9966 19.7369 20.8742 18.7047C21.9615 17.4261 23.5706 15.866 24.7207 14.9754C24.8126 14.9043 25.0805 14.693 25.3162 14.5059C25.6924 14.2072 26.2631 13.7808 26.4876 13.6307C26.5293 13.6028 26.7409 13.4572 26.9577 13.3071C27.7069 12.7886 28.8324 12.0996 29.5205 11.7381C29.8996 11.5389 30.755 11.1121 31.0086 10.9955C31.7263 10.6655 31.8312 10.6191 32.2424 10.4501C32.3467 10.4073 32.5122 10.3382 32.6102 10.2966C32.7082 10.255 32.8026 10.221 32.82 10.221C32.8374 10.221 32.8903 10.2018 32.9375 10.1783C33.0313 10.1316 33.5787 9.92247 33.7968 9.84998C33.8718 9.82504 33.981 9.78784 34.0394 9.76731C34.5223 9.59751 34.9802 9.45457 35.6013 9.27969C35.7181 9.24682 35.9023 9.19321 36.0107 9.16061C36.1191 9.12798 36.2262 9.10149 36.2486 9.10173C36.2711 9.10194 36.3802 9.07681 36.4913 9.04585C36.9512 8.91757 38.0302 8.6866 38.5678 8.60139C38.7149 8.57807 38.8469 8.55176 38.8613 8.54287C38.8757 8.53401 39.0352 8.5061 39.2158 8.48088C39.3963 8.45563 39.5917 8.42273 39.6501 8.40773C39.7085 8.39273 39.8382 8.37217 39.9382 8.36207C40.0383 8.35194 40.284 8.31789 40.4841 8.28638C40.6843 8.25487 40.9709 8.21459 41.121 8.19684C41.2712 8.17912 41.5032 8.15124 41.6366 8.13488C42.3548 8.04691 42.7344 8.00609 43.062 7.98153C43.2622 7.96653 43.6307 7.93354 43.8809 7.90826C44.2953 7.86638 45.2473 7.80614 46.5195 7.74128C46.7864 7.7277 47.0081 7.71533 47.0123 7.71385C47.0422 7.70311 47.0111 7.56235 46.9771 7.55458C46.9535 7.54919 46.7501 7.32593 46.5249 7.05843C45.4388 5.76774 43.7852 4.25633 42.4252 3.3111C41.6292 2.75786 40.9998 2.3659 40.3628 2.02664C39.827 1.74129 39.1663 1.42296 39.0132 1.37642C38.9715 1.36375 38.9238 1.34304 38.9071 1.3304C38.8755 1.30645 38.2798 1.06737 38.0427 0.983517C37.2779 0.712962 36.4037 0.470409 35.8562 0.376847C35.7295 0.355196 35.5725 0.323535 35.5074 0.306449C35.4423 0.289394 35.3003 0.266896 35.1919 0.256493C35.0834 0.246061 34.8924 0.218603 34.7673 0.195439C34.6422 0.172306 34.4374 0.145635 34.3123 0.1362C33.7543 0.0940456 33.7058 0.0865763 33.7058 0.0429403C33.7058 0.00625956 33.4112 0 31.6889 0C29.9164 0 29.6721 0.00550363 29.6721 0.0453596ZM45.9281 8.98437C45.6195 8.99865 45.3015 9.02417 45.2215 9.0411C45.1414 9.05807 44.9692 9.07192 44.8389 9.07192C44.7085 9.07192 44.5284 9.08688 44.4385 9.10515C44.3487 9.12341 44.2069 9.1428 44.1235 9.14821C43.7937 9.16962 43.1953 9.25196 43.044 9.29675C42.9561 9.32278 42.8041 9.34407 42.7063 9.34407C42.6084 9.34407 42.4914 9.36258 42.4464 9.38523C42.4013 9.40785 42.2732 9.43446 42.1617 9.44438C41.9653 9.46183 41.4648 9.56924 41.1487 9.66177C41.0638 9.68663 40.9604 9.70695 40.9188 9.70695C40.8298 9.70695 40.0092 9.93853 39.6281 10.0712C39.4817 10.1221 39.1982 10.219 38.9981 10.2864C38.7979 10.3538 38.5406 10.4484 38.4262 10.4964C38.3119 10.5446 38.2044 10.5839 38.1874 10.5839C38.153 10.5839 37.8266 10.7264 37.3452 10.9517C37.17 11.0337 36.9732 11.1239 36.9077 11.1523C36.8423 11.1806 36.7058 11.2484 36.6045 11.3028C36.5031 11.3573 36.3041 11.458 36.1624 11.5266C36.0206 11.5951 35.8327 11.6969 35.7448 11.7526C35.6569 11.8084 35.577 11.854 35.5674 11.854C35.5577 11.854 35.4181 11.9321 35.2571 12.0276C35.0961 12.1231 34.9303 12.2165 34.8886 12.2351C34.7831 12.2823 34.6958 12.3872 34.7168 12.4416C34.7542 12.5387 34.984 12.5353 35.2677 12.4334C35.3177 12.4155 35.5702 12.3581 35.8288 12.306C36.0873 12.2539 36.3758 12.1904 36.47 12.1649C36.5641 12.1394 36.6554 12.1274 36.673 12.1382C36.6905 12.149 36.7978 12.1385 36.9113 12.1148C37.5428 11.983 38.606 11.906 39.7714 11.9076C40.7455 11.9089 40.7889 11.9108 41.6063 11.9868C42.3512 12.0562 42.7067 12.1038 43.335 12.2185C44.1621 12.3694 45.7327 12.8007 46.7475 13.1554C47.0391 13.2574 47.3254 13.355 47.3838 13.3725C47.4422 13.3899 47.6265 13.4614 47.7933 13.5314C47.9601 13.6014 48.2057 13.7033 48.3392 13.7579C48.6912 13.902 49.4367 14.2709 49.6082 14.3859C49.6892 14.4403 49.7644 14.4851 49.7752 14.4853C49.7955 14.4859 50.2918 14.7876 50.5559 14.96C50.8496 15.1517 51.4623 15.5917 51.6629 15.7549C51.7753 15.8464 51.9602 15.9961 52.0736 16.0875C52.9382 16.7846 54.0951 17.9535 54.7373 18.7789C55.5303 19.7981 56.0136 20.4653 56.5184 21.2375C56.7832 21.6427 56.7095 21.6025 56.0645 20.9897C55.7689 20.7088 55.4383 20.4077 55.3298 20.3206C55.2214 20.2335 55.1122 20.1402 55.0872 20.1132C55.0215 20.0423 54.5404 19.6422 54.2262 19.3973C54.0779 19.2817 53.8841 19.1259 53.7955 19.051C53.5882 18.8759 53.3491 18.6921 53.2103 18.6014C53.15 18.562 53.0598 18.4926 53.0097 18.4473C52.9597 18.402 52.8505 18.3195 52.7671 18.2639C52.6837 18.2083 52.5462 18.1143 52.4615 18.0551C52.1215 17.817 51.8441 17.6298 51.8313 17.6298C51.8239 17.6298 51.6668 17.5277 51.4821 17.403C51.2974 17.2782 51.1357 17.1754 51.1227 17.1745C51.1097 17.1737 50.9694 17.0924 50.8109 16.9941C49.7819 16.3552 48.3834 15.7594 47.0384 15.3868C46.8531 15.3355 46.6127 15.267 46.5043 15.2347C46.3959 15.2023 46.2253 15.1587 46.1252 15.1379C46.0251 15.1169 45.9159 15.0855 45.8825 15.068C45.8492 15.0505 45.7605 15.0262 45.6854 15.014C45.6104 15.0018 45.5283 14.9811 45.503 14.9679C45.4368 14.9333 44.5058 14.7267 44.4163 14.7267C44.375 14.7267 44.2717 14.7071 44.1869 14.6831C43.9555 14.6178 43.3796 14.5223 42.9862 14.484C42.7944 14.4654 42.5556 14.4377 42.4555 14.4226C42.1505 14.3764 41.4495 14.356 40.2567 14.3585C39.0696 14.361 38.92 14.3663 38.4218 14.4239C38.255 14.4432 38.0912 14.4588 38.0579 14.4586C37.9148 14.4578 37.1327 14.5525 36.9661 14.5908C36.866 14.6138 36.7159 14.639 36.6325 14.6468C36.549 14.6547 36.3785 14.6824 36.2533 14.7085C36.1282 14.7346 35.9576 14.7691 35.8742 14.7852C35.1015 14.9341 35.0402 14.9552 35.0402 15.0716C35.0402 15.1686 35.1319 15.1986 35.5558 15.2403C35.8732 15.2715 36.2718 15.3421 36.8447 15.4683C36.9615 15.494 37.1483 15.535 37.2598 15.5594C37.3712 15.5837 37.4984 15.6173 37.5423 15.6339C37.5862 15.6506 37.6627 15.6642 37.7123 15.6642C37.7619 15.6642 37.856 15.6914 37.9214 15.7247C37.9868 15.7579 38.0803 15.7851 38.1292 15.7851C38.1781 15.7851 38.2775 15.812 38.3503 15.8449C38.423 15.8778 38.5129 15.9051 38.5501 15.9054C38.5873 15.9058 38.7033 15.9391 38.8079 15.9795C38.9125 16.0198 39.1141 16.0883 39.2558 16.1317C39.3976 16.1751 39.5409 16.2235 39.5743 16.2392C39.6458 16.2731 40.0796 16.4305 40.3173 16.5089C40.4091 16.5392 40.5251 16.5859 40.5751 16.6128C40.6252 16.6397 40.6864 16.6618 40.7112 16.6619C40.736 16.662 40.8315 16.6975 40.9235 16.7407C41.1179 16.8322 41.156 16.8491 41.6238 17.0522C41.817 17.136 42.0725 17.2526 42.1917 17.3113C42.3108 17.37 42.4261 17.4181 42.4479 17.4181C42.4697 17.4181 42.5187 17.4398 42.5568 17.4665C42.5949 17.4931 42.7992 17.6042 43.0109 17.7135C43.7525 18.0963 44.1507 18.3147 44.442 18.4983C44.5504 18.5667 44.7278 18.6735 44.8363 18.7356C45.2175 18.954 46.2699 19.6279 46.5552 19.8364C46.6583 19.9117 46.8016 20.0107 46.8736 20.0564C46.9457 20.1021 47.0866 20.2002 47.1867 20.2743C47.2868 20.3484 47.4437 20.4641 47.5355 20.5313C47.9881 20.8629 48.0892 20.942 48.8236 21.5393C49.911 22.4237 51.6253 24.1218 52.4445 25.1259C52.5719 25.282 52.7337 25.4793 52.8042 25.5643C53.2467 26.0985 53.9065 26.9766 54.238 27.4726C54.2964 27.5599 54.4464 27.7794 54.5714 27.9603C54.8108 28.307 54.9798 28.5722 55.0892 28.7731C55.1255 28.8396 55.2005 28.9577 55.256 29.0355C55.3115 29.1133 55.3935 29.2494 55.4383 29.3379C55.483 29.4264 55.5485 29.5397 55.5838 29.5896C55.6634 29.7018 55.9012 30.1279 56.0313 30.3909C56.0847 30.499 56.1549 30.6256 56.1872 30.6722C56.2706 30.7922 56.9979 32.2087 56.9979 32.2509C56.9979 32.2616 57.0525 32.3619 57.1192 32.4739C57.1859 32.5859 57.2405 32.6942 57.2405 32.7146C57.2405 32.7349 57.3487 32.9723 57.4809 33.242C57.8275 33.949 58.4325 35.3044 58.4894 35.5014C58.5062 35.5596 58.5596 35.6908 58.6081 35.793C58.6566 35.8952 58.6963 35.9887 58.6963 36.0009C58.6963 36.0238 58.7702 36.1981 58.9784 36.6657C59.0451 36.8153 59.1441 37.0671 59.1984 37.2251C59.3069 37.541 59.3915 37.6405 59.5234 37.6075C59.5767 37.5942 59.6155 37.546 59.661 37.437C59.6958 37.3534 59.8118 37.1457 59.9188 36.9754C60.1003 36.6864 60.3364 36.2495 60.7636 35.4114C60.861 35.2205 60.9406 35.0536 60.9406 35.0404C60.9406 35.0272 61.0077 34.8772 61.0898 34.7071C61.1719 34.5369 61.2689 34.3228 61.3053 34.2314C61.4811 33.79 61.6542 33.34 61.7589 33.052C61.8225 32.8774 61.8905 32.6937 61.9101 32.6438C61.9962 32.425 62.368 31.1201 62.4615 30.7084C62.6035 30.0832 62.7722 29.1163 62.8202 28.6522C62.8374 28.4858 62.8677 28.2137 62.8877 28.0473C62.9242 27.7423 62.934 26.012 62.9016 25.5979C62.8491 24.928 62.7218 24.0741 62.6058 23.6137C62.5907 23.5536 62.5783 23.4658 62.5783 23.4187C62.5783 23.3716 62.5432 23.2031 62.5003 23.0442C62.3703 22.5626 62.3452 22.4644 62.2754 22.1657C62.1897 21.7989 61.9914 21.164 61.7229 20.3967C61.6065 20.0641 61.4901 19.7307 61.4642 19.6558C61.4384 19.581 61.4054 19.5047 61.391 19.4862C61.3766 19.4678 61.3377 19.3739 61.3044 19.2776C61.2712 19.1814 61.2114 19.0443 61.1714 18.973C61.1315 18.9017 61.0265 18.6826 60.9381 18.4861C60.8498 18.2895 60.7255 18.0478 60.6619 17.9488C60.5983 17.8499 60.5463 17.7526 60.5463 17.7326C60.5463 17.7126 60.5 17.6277 60.4434 17.5438C60.3867 17.4599 60.2954 17.3123 60.2403 17.2157C59.9438 16.696 59.3211 15.8098 58.8019 15.1685C58.6688 15.004 58.5189 14.8176 58.4688 14.7542C58.2638 14.4946 57.8563 14.0065 57.7272 13.8658C57.3286 13.4315 57.003 13.0938 56.5812 12.6776C56.0916 12.1944 55.7588 11.9487 54.9204 11.4512C54.7369 11.3423 54.5322 11.22 54.4655 11.1794C54.3988 11.1387 54.2282 11.0484 54.0864 10.9788C53.9446 10.9091 53.7522 10.8124 53.6588 10.7639C53.2438 10.548 53.0675 10.464 53.0286 10.4635C53.0056 10.4632 52.9169 10.4233 52.8314 10.3749C52.746 10.3265 52.5465 10.2377 52.388 10.1775C52.2295 10.1173 52.0385 10.0415 51.9634 10.009C51.3046 9.72361 49.7994 9.28284 49.1732 9.19188C49.0481 9.1737 48.9048 9.1467 48.8547 9.13185C48.6595 9.07388 47.6129 8.97848 47.0654 8.96874C46.7484 8.96308 46.2367 8.97013 45.9281 8.98437ZM12.957 9.72053C12.8969 9.76123 12.8084 9.80414 12.7604 9.81581C12.6559 9.84128 12.2665 9.98806 12.0969 10.066C11.7012 10.2477 11.3938 10.3925 11.1264 10.5231C10.9596 10.6046 10.7446 10.7059 10.6487 10.7481C10.5528 10.7904 10.4743 10.8358 10.4743 10.8489C10.4743 10.8621 10.3822 10.912 10.2696 10.9599C10.157 11.0078 10.0376 11.0699 10.0042 11.0979C9.91376 11.1738 9.50457 11.4004 9.45799 11.4004C9.4357 11.4004 9.37889 11.4317 9.33176 11.47C9.25178 11.535 9.16768 11.5908 8.8325 11.8009C8.6562 11.9115 8.38916 12.0884 8.21604 12.2093C8.13865 12.2634 8.06895 12.3076 8.06113 12.3076C8.05333 12.3076 7.96872 12.3688 7.87309 12.4436C7.7775 12.5185 7.68563 12.5798 7.66895 12.5798C7.65227 12.5799 7.58403 12.6309 7.51731 12.6932C7.45059 12.7554 7.3311 12.8488 7.25176 12.9006C7.17242 12.9525 7.04959 13.0438 6.9788 13.1035C6.90802 13.1632 6.7322 13.3045 6.58811 13.4175C5.64278 14.1589 4.4312 15.4082 3.63417 16.4633C3.55971 16.5618 3.49881 16.6528 3.49881 16.6655C3.49881 16.6782 3.44422 16.7515 3.3775 16.8284C3.31078 16.9053 3.25619 16.988 3.25619 17.0124C3.25619 17.0367 3.20369 17.1141 3.13955 17.1844C3.0754 17.2547 3.00853 17.3545 2.99097 17.4063C2.97341 17.4579 2.9099 17.5644 2.84982 17.6429C2.78977 17.7214 2.74061 17.8031 2.74061 17.8246C2.74061 17.846 2.71331 17.8981 2.67995 17.9404C2.64659 17.9827 2.61929 18.0359 2.61929 18.0587C2.61929 18.0815 2.5658 18.1711 2.50044 18.2578C2.43508 18.3446 2.37248 18.4568 2.36138 18.5073C2.3394 18.607 2.23783 18.7988 2.08176 19.0352C2.02711 19.118 1.98234 19.2133 1.98228 19.2469C1.98222 19.2805 1.95705 19.3492 1.92632 19.3994C1.8956 19.4496 1.86115 19.5401 1.84981 19.6005C1.83843 19.6608 1.81038 19.7258 1.78745 19.7448C1.76449 19.7637 1.73768 19.8112 1.72786 19.8502C1.71803 19.8893 1.6621 20.0057 1.60357 20.1089C1.54504 20.2122 1.49703 20.3124 1.49688 20.3316C1.49672 20.3508 1.46303 20.4345 1.422 20.5177C1.38096 20.6008 1.34696 20.7044 1.34645 20.7479C1.34593 20.7914 1.31821 20.8616 1.28485 20.9039C1.25149 20.9462 1.2241 21.0194 1.22398 21.0667C1.22389 21.114 1.19669 21.1935 1.16354 21.2434C1.13039 21.2933 1.10318 21.3619 1.10309 21.3958C1.10297 21.4297 1.07713 21.5078 1.04565 21.5693C1.0142 21.6309 0.979081 21.731 0.967647 21.7918C0.956183 21.8526 0.928372 21.931 0.905778 21.966C0.883213 22.001 0.854917 22.0841 0.842877 22.1506C0.830867 22.2171 0.795747 22.319 0.764812 22.3769C0.733907 22.4349 0.708614 22.5204 0.708614 22.567C0.708614 22.6136 0.688203 22.6828 0.663243 22.7207C0.638282 22.7587 0.604436 22.8501 0.588028 22.9238C0.571651 22.9975 0.517364 23.2143 0.467413 23.4055C0.417462 23.5968 0.367966 23.8213 0.357412 23.9045C0.346858 23.9877 0.313194 24.1441 0.282592 24.2523C0.251991 24.3604 0.211351 24.5915 0.192305 24.7658C0.173229 24.9401 0.150604 25.094 0.142021 25.1079C0.107325 25.1639 0.00936494 26.4956 0.0147634 26.8378C0.0155519 26.8876 0.0153699 26.9693 0.0143691 27.0192C0.0133379 27.0691 0.00787885 27.3276 0.00217713 27.5937C-0.00349425 27.8599 0.00229844 28.1073 0.015097 28.1436C0.0278652 28.1799 0.0269857 28.249 0.0131256 28.2972C-0.00379754 28.356 0.00202549 28.4182 0.0308373 28.4865C0.0544024 28.5425 0.0681411 28.6027 0.0612869 28.6205C0.0385104 28.6797 0.10035 30.1314 0.132831 30.3002C0.150422 30.3917 0.184238 30.6842 0.207954 30.9504C0.231671 31.2165 0.272129 31.501 0.297878 31.5826C0.323596 31.6643 0.344765 31.8004 0.344887 31.885C0.345008 31.9878 0.365116 32.0692 0.405331 32.1297C0.43848 32.1796 0.465684 32.2584 0.465775 32.3048C0.465896 32.3512 0.493283 32.4425 0.526644 32.5077C0.560005 32.5729 0.587301 32.6508 0.587301 32.6808C0.587301 32.7108 0.614596 32.7862 0.647957 32.8482C0.681318 32.9103 0.708614 32.9764 0.708614 32.9952C0.708614 33.014 0.74152 33.1059 0.781765 33.1994C0.822011 33.293 0.89859 33.4784 0.951998 33.6115C1.00538 33.7445 1.19805 34.1527 1.38014 34.5186C1.70893 35.1793 1.78387 35.3216 2.01701 35.7282C2.08376 35.8447 2.16119 35.9807 2.18906 36.0306C2.28259 36.1981 2.56082 36.6181 2.59021 36.6362C2.60622 36.646 2.61929 36.6752 2.61929 36.701C2.61929 36.7269 2.67389 36.813 2.74061 36.8925C2.80733 36.9719 2.86192 37.0508 2.86192 37.0678C2.86192 37.0848 2.91318 37.1646 2.9758 37.2451C3.03843 37.3256 3.13057 37.4526 3.18052 37.5273C3.23047 37.6021 3.32255 37.7171 3.38508 37.7829C3.44765 37.8487 3.49881 37.9148 3.49881 37.9298C3.49881 38.033 4.68262 39.3022 5.13539 39.6846C5.27654 39.8038 5.41614 39.9217 5.44559 39.9467C5.47504 39.9716 5.56426 40.0437 5.64384 40.1069C6.00044 40.3899 6.13474 40.491 6.1539 40.491C6.17243 40.491 6.27036 40.5596 6.6687 40.8516C6.73572 40.9007 6.82449 40.9588 6.86595 40.9805C6.90741 41.0023 7.01635 41.0713 7.108 41.1338C7.4427 41.3619 7.78796 41.5796 7.81504 41.5796C7.8303 41.5796 7.90788 41.6272 7.9874 41.6855C8.06692 41.7437 8.14435 41.7913 8.15942 41.7913C8.17452 41.7913 8.32116 41.8729 8.4853 41.9727C8.64946 42.0725 8.80663 42.1542 8.83453 42.1542C8.86246 42.1542 8.93916 42.1932 9.005 42.241C9.15586 42.3504 9.53814 42.5473 9.59965 42.5473C9.62519 42.5473 9.6678 42.5711 9.69433 42.6002C9.74134 42.6517 9.86533 42.724 10.0194 42.7897C10.0611 42.8075 10.1293 42.8417 10.171 42.8657C10.2127 42.8896 10.2823 42.9095 10.3256 42.9097C10.3688 42.91 10.429 42.9374 10.4592 42.9706C10.4893 43.0039 10.5426 43.0314 10.5776 43.0317C10.6125 43.032 10.7 43.072 10.7719 43.1206C10.8439 43.1692 10.9667 43.2325 11.0449 43.2613C11.1231 43.29 11.2075 43.3305 11.2325 43.3512C11.2575 43.3719 11.3326 43.3981 11.3993 43.4094C11.4661 43.4207 11.5576 43.4558 11.6028 43.4875C11.648 43.5193 11.7231 43.5453 11.7696 43.5454C11.8162 43.5455 11.8952 43.5726 11.9452 43.6057C11.9953 43.6387 12.075 43.6659 12.1224 43.6659C12.1699 43.6661 12.2433 43.6934 12.2857 43.7266C12.3291 43.7606 12.4088 43.7871 12.4677 43.7871C12.5266 43.7871 12.6063 43.8136 12.6497 43.8476C12.693 43.8816 12.7727 43.9081 12.8316 43.9081C12.8906 43.9081 12.9703 43.9346 13.0136 43.9686C13.056 44.0018 13.1334 44.029 13.1857 44.029C13.2379 44.029 13.3281 44.0543 13.3863 44.0851C13.4444 44.1159 13.5466 44.1505 13.6133 44.1619C13.68 44.1734 13.7755 44.2012 13.8256 44.2238C13.9635 44.2861 14.5675 44.4221 14.7059 44.4221C14.7731 44.4221 14.8567 44.4421 14.8916 44.4665C14.9572 44.5123 15.0532 44.5326 15.6858 44.6339C15.8916 44.6669 16.0699 44.7001 16.082 44.7076C16.1053 44.7219 16.5485 44.7772 16.9342 44.8139C17.0593 44.8258 17.2613 44.8535 17.383 44.8754C17.6495 44.9235 17.6875 44.9032 17.6449 44.7356C17.6293 44.6746 17.5893 44.61 17.556 44.5922C17.5226 44.5743 17.4468 44.5288 17.3875 44.4909C17.3283 44.4531 17.2438 44.4221 17.1998 44.4221C17.1558 44.4221 17.1119 44.4095 17.1024 44.394C17.0825 44.3619 16.7269 44.1802 16.684 44.1802C16.6684 44.1802 16.621 44.153 16.5786 44.1198C16.5362 44.0865 16.4767 44.0593 16.4465 44.0593C16.3877 44.0593 16.1339 43.9332 16.0561 43.8654C16.0303 43.8429 15.9797 43.8156 15.9437 43.8047C15.9077 43.7937 15.8617 43.7649 15.8415 43.7406C15.8212 43.7163 15.7749 43.6964 15.7385 43.6964C15.702 43.6964 15.626 43.6624 15.5695 43.6208C15.5129 43.5792 15.4556 43.5452 15.4419 43.5452C15.4283 43.5452 15.3517 43.4993 15.2717 43.4433C15.1917 43.3872 15.0945 43.3312 15.0556 43.3189C15.0168 43.3066 14.9236 43.2499 14.8487 43.1928C14.7737 43.1358 14.6698 43.0695 14.6178 43.0456C14.5657 43.0217 14.4549 42.9543 14.3715 42.8959C14.2881 42.8374 14.058 42.6773 13.8602 42.5399C13.2433 42.1117 12.8718 41.8191 12.1289 41.1762C11.5264 40.6547 10.4769 39.597 10.2469 39.2793C10.2135 39.2333 10.0497 39.0288 9.88292 38.825C9.71611 38.6211 9.55916 38.424 9.53414 38.3869C9.50912 38.3498 9.366 38.1583 9.21612 37.9613C8.84848 37.4781 8.5243 37.0253 8.42179 36.8519C8.40217 36.8187 8.36465 36.7795 8.33839 36.7649C8.31215 36.7502 8.29068 36.7057 8.29068 36.6659C8.29068 36.6262 8.27761 36.5856 8.2616 36.5757C8.23197 36.5575 7.92253 36.0981 7.88422 36.0155C7.87267 35.9906 7.82981 35.9157 7.78902 35.8492C7.74826 35.7827 7.6951 35.6863 7.67092 35.6351C7.64675 35.5839 7.60572 35.5244 7.57973 35.5029C7.55374 35.4814 7.53248 35.4403 7.53248 35.4116C7.53248 35.383 7.50518 35.3281 7.47182 35.2898C7.43846 35.2514 7.41116 35.2035 7.41116 35.1834C7.41116 35.1632 7.38472 35.1132 7.35239 35.0722C7.32006 35.0312 7.2846 34.9619 7.27359 34.9182C7.26258 34.8744 7.23532 34.8235 7.213 34.8051C7.19068 34.7866 7.16314 34.7294 7.15179 34.6778C7.14045 34.6263 7.10551 34.5422 7.07415 34.4909C7.0428 34.4396 7.01708 34.3794 7.01702 34.3571C7.01696 34.3348 6.9896 34.2819 6.95624 34.2396C6.92288 34.1973 6.89528 34.1271 6.89491 34.0836C6.89455 34.0402 6.86756 33.9705 6.83493 33.929C6.80229 33.8874 6.7753 33.8246 6.77494 33.7894C6.77457 33.7542 6.74697 33.6909 6.71361 33.6486C6.68025 33.6063 6.65265 33.533 6.65229 33.4857C6.65192 33.4384 6.62463 33.3404 6.59163 33.268C6.55863 33.1954 6.53164 33.1201 6.53164 33.1005C6.53164 33.0809 6.50383 33.0109 6.46983 32.945C6.43584 32.8791 6.39996 32.764 6.3901 32.6891C6.38024 32.6143 6.34664 32.5106 6.31543 32.4588C6.28422 32.4069 6.25869 32.3166 6.25869 32.2579C6.25869 32.1994 6.2317 32.0921 6.1987 32.0196C6.1657 31.9471 6.13841 31.8402 6.13804 31.7819C6.13768 31.7237 6.11072 31.5945 6.07814 31.4947C6.00818 31.2805 5.93351 30.9324 5.87861 30.5648C5.8569 30.4192 5.82445 30.232 5.80652 30.1487C5.76488 29.955 5.59993 28.589 5.57472 28.2288C5.5689 28.1456 5.55744 27.9823 5.54928 27.8659C5.53545 27.6685 5.5306 26.1547 5.54249 25.7491C5.54543 25.6493 5.56444 25.5199 5.58473 25.4616C5.60505 25.4032 5.61894 25.308 5.61561 25.2499C5.61227 25.1918 5.6123 25.0429 5.61567 24.919C5.62468 24.5879 5.67478 24.6826 5.74444 25.1625C5.7768 25.3854 5.83879 25.731 5.88222 25.9306C5.92562 26.1301 5.97809 26.382 5.99881 26.4903C6.01952 26.5986 6.05197 26.716 6.07093 26.7514C6.08988 26.7867 6.12094 26.9158 6.13989 27.0384C6.15888 27.1609 6.19151 27.2951 6.21241 27.3367C6.23333 27.3783 6.25951 27.4831 6.27058 27.5697C6.28168 27.6562 6.31734 27.7855 6.34985 27.857C6.3824 27.9284 6.40939 28.0413 6.40987 28.1078C6.41036 28.1766 6.43671 28.2679 6.47099 28.3195C6.50777 28.3749 6.53131 28.4614 6.53143 28.5415C6.53158 28.6268 6.5529 28.6998 6.5923 28.7497C6.6327 28.8009 6.65317 28.8732 6.65362 28.9662C6.65408 29.0579 6.67461 29.1316 6.71361 29.1813C6.74946 29.227 6.77324 29.3048 6.77372 29.3779C6.77415 29.4444 6.80175 29.5434 6.83505 29.5979C6.86835 29.6523 6.89558 29.7342 6.89558 29.7797C6.89558 29.8253 6.92088 29.91 6.95178 29.968C6.98271 30.026 7.01799 30.1278 7.03018 30.1944C7.04237 30.2609 7.07282 30.3381 7.09784 30.3659C7.12286 30.3937 7.15128 30.4753 7.16095 30.5472C7.17063 30.6192 7.20353 30.7189 7.23408 30.7688C7.26462 30.8188 7.28967 30.8884 7.28973 30.9236C7.28979 30.9588 7.31714 31.0221 7.35051 31.0644C7.38387 31.1067 7.41116 31.1748 7.41116 31.2156C7.41116 31.2565 7.43655 31.3224 7.46757 31.3621C7.4986 31.4017 7.53126 31.475 7.54015 31.5249C7.55877 31.6295 7.68748 31.9399 7.7368 31.9992C7.75518 32.0213 7.78023 32.0801 7.79245 32.1299C7.80467 32.1797 7.83988 32.2529 7.8707 32.2925C7.90154 32.3322 7.92705 32.3867 7.92741 32.4135C7.92777 32.4404 7.95477 32.4964 7.9874 32.5379C8.02003 32.5795 8.04702 32.6343 8.04739 32.6597C8.04775 32.6851 8.07004 32.7372 8.09691 32.7755C8.12379 32.8137 8.19663 32.9426 8.25884 33.0619C8.42777 33.3859 8.5347 33.5705 8.61389 33.6748C8.65298 33.7262 8.68495 33.7773 8.68495 33.7883C8.68495 33.7993 8.74897 33.9001 8.82725 34.0123C8.9055 34.1245 9.01686 34.2843 9.07473 34.3674C9.13256 34.4506 9.27668 34.6466 9.39493 34.803C9.51322 34.9593 9.62995 35.1158 9.65439 35.1507C9.76188 35.3042 9.99258 35.6037 10.2607 35.9377C10.8044 36.6151 10.8714 36.6951 10.9155 36.7197C10.9397 36.7332 10.9596 36.7572 10.9596 36.7731C10.9596 36.8866 12.5666 38.5412 13.0522 38.9276C13.194 39.0404 13.3715 39.19 13.4466 39.26C13.5218 39.33 13.6514 39.4387 13.7348 39.5016C13.8181 39.5645 14.0043 39.7074 14.1486 39.8191C14.5297 40.1141 14.8053 40.317 14.9095 40.3791C14.9597 40.409 15.0599 40.477 15.1322 40.5303C15.4142 40.7379 15.9557 41.0953 16.0244 41.1192C16.0494 41.1279 16.0972 41.1584 16.1305 41.187C16.2075 41.2528 16.7404 41.5624 16.9797 41.6802C17.0798 41.7295 17.2595 41.8285 17.3791 41.9003C17.4986 41.9721 17.6351 42.0404 17.6823 42.0522C17.7296 42.064 17.8926 42.1451 18.0445 42.2326C18.1964 42.3199 18.3739 42.4063 18.4388 42.4245C18.5037 42.4427 18.5833 42.4777 18.6157 42.5024C18.6753 42.5478 18.8606 42.5626 18.9486 42.5289C19.0694 42.4827 18.9947 42.3727 18.5037 41.8742C18.2327 41.599 17.9768 41.3292 17.9351 41.2747C17.8934 41.2202 17.8106 41.1203 17.7512 41.0526C17.6574 40.9456 17.5012 40.7546 17.1314 40.2944C17.0813 40.2321 17.0199 40.1503 16.9949 40.1127C16.9699 40.075 16.8871 39.9644 16.8109 39.8669C16.5947 39.5902 15.7483 38.3504 15.6197 38.1221C15.4819 37.8776 15.4592 37.8402 15.3492 37.6755C15.2868 37.5824 15.2359 37.4926 15.2359 37.4761C15.2359 37.4596 15.2086 37.4215 15.1752 37.3914C15.1418 37.3613 15.1145 37.3132 15.1145 37.2846C15.1145 37.2559 15.0943 37.2158 15.0696 37.1953C15.0449 37.1749 14.9758 37.0609 14.9161 36.9421C14.8106 36.7321 14.7374 36.592 14.6847 36.4993C14.6705 36.4744 14.6319 36.3996 14.599 36.333C14.566 36.2665 14.5267 36.1917 14.5116 36.1667C14.4965 36.1418 14.4691 36.0873 14.4508 36.0457C14.4324 36.0042 14.406 35.9497 14.3921 35.9248C14.2982 35.7569 14.235 35.6194 14.235 35.5827C14.235 35.5591 14.2086 35.5063 14.1762 35.4653C14.1439 35.4244 14.1077 35.3511 14.0958 35.3025C14.0839 35.2539 14.0489 35.1817 14.0181 35.142C13.9873 35.1024 13.9621 35.0433 13.9621 35.0107C13.9621 34.9782 13.9348 34.9169 13.9014 34.8746C13.8681 34.8323 13.8407 34.7758 13.8405 34.7489C13.8405 34.7221 13.8132 34.6593 13.7801 34.6094C13.747 34.5595 13.7194 34.4914 13.719 34.4582C13.7185 34.4249 13.6914 34.3637 13.6588 34.3221C13.6262 34.2805 13.5991 34.2125 13.5986 34.1709C13.5981 34.1293 13.5706 34.0545 13.5375 34.0046C13.5043 33.9547 13.4771 33.8866 13.4769 33.8534C13.4767 33.8201 13.4493 33.7483 13.416 33.6939C13.3827 33.6394 13.3555 33.5781 13.3555 33.5576C13.3555 33.537 13.3214 33.4563 13.2797 33.3782C13.238 33.3001 13.2039 33.2019 13.2039 33.16C13.2039 33.118 13.1766 33.0392 13.1433 32.9847C13.11 32.9302 13.0827 32.8538 13.0827 32.8149C13.0826 32.7759 13.0553 32.7094 13.0219 32.6672C12.9885 32.6248 12.9612 32.5507 12.9612 32.5024C12.9612 32.4541 12.9339 32.3612 12.9006 32.296C12.8672 32.2308 12.8399 32.1529 12.8399 32.1229C12.8399 32.0929 12.8144 32.0208 12.7832 31.9628C12.752 31.9047 12.7161 31.7961 12.7034 31.7215C12.6908 31.6468 12.6549 31.5382 12.6237 31.4802C12.5925 31.4221 12.567 31.3453 12.567 31.3094C12.567 31.2736 12.54 31.1849 12.507 31.1124C12.474 31.0399 12.4468 30.9466 12.4466 30.905C12.4464 30.8634 12.4195 30.7477 12.3869 30.648C12.2716 30.2959 12.1756 29.9458 12.0262 29.3325C11.7583 28.2336 11.717 28.0491 11.7174 27.9522C11.7176 27.9 11.6915 27.7707 11.6593 27.665C11.6272 27.5593 11.5923 27.3775 11.5818 27.2611C11.5714 27.1447 11.5371 26.9406 11.5057 26.8075C11.4742 26.6745 11.4426 26.4149 11.4354 26.2307C11.4276 26.0305 11.4059 25.8662 11.3815 25.8224C11.3539 25.7728 11.3339 25.5636 11.3194 25.1746C11.3077 24.8586 11.2804 24.4911 11.2588 24.3581C11.2304 24.184 11.2193 23.7134 11.2192 22.6798C11.2191 21.2765 11.2501 20.5745 11.3589 19.5197C11.3761 19.3534 11.3939 19.1289 11.3985 19.0208C11.4032 18.9127 11.4225 18.7565 11.4414 18.6737C11.4604 18.5908 11.4744 18.4343 11.4725 18.3259C11.4703 18.1979 11.4861 18.0969 11.5175 18.038C11.5503 17.9763 11.5658 17.8676 11.566 17.6979C11.5661 17.534 11.586 17.389 11.624 17.2746C11.6558 17.1789 11.6901 16.9805 11.7002 16.8338C11.7102 16.6871 11.7373 16.5306 11.7603 16.486C11.7833 16.4415 11.812 16.269 11.8241 16.1027C11.8378 15.9129 11.862 15.7821 11.8889 15.7515C11.9125 15.7247 11.9453 15.582 11.9618 15.434C11.9783 15.2862 12.012 15.1139 12.0367 15.0512C12.0615 14.9885 12.0817 14.8845 12.0817 14.8202C12.0817 14.7558 12.1087 14.6438 12.1417 14.5713C12.1747 14.4988 12.2025 14.3714 12.2034 14.2883C12.2043 14.2051 12.2314 14.0622 12.2637 13.9708C12.296 13.8793 12.3228 13.7606 12.3233 13.707C12.3239 13.6534 12.3502 13.5513 12.3819 13.4802C12.4411 13.3471 12.548 12.8928 12.5831 12.6251C12.5941 12.5419 12.6165 12.4575 12.633 12.4374C12.6496 12.4174 12.6815 12.3222 12.704 12.2258C12.7264 12.1294 12.7805 11.9281 12.8241 11.7784C12.8677 11.6287 12.9629 11.2749 13.0356 10.9921C13.1084 10.7094 13.1979 10.376 13.2347 10.2513C13.3597 9.82712 13.3539 9.73341 13.1995 9.67973C13.0747 9.63637 13.0834 9.63492 12.957 9.72053ZM30.2392 18.6986C30.229 18.7251 30.1444 18.746 29.9971 18.7584C29.8726 18.7689 29.7315 18.7924 29.6835 18.8106C29.6356 18.8288 29.5008 18.8622 29.384 18.8847C29.1401 18.9319 28.8489 19.0058 28.7168 19.0541C28.6667 19.0725 28.5576 19.1056 28.4741 19.1279C28.2736 19.1814 28.0492 19.2579 27.8895 19.3273C27.8182 19.3583 27.7397 19.3837 27.715 19.3837C27.6904 19.3837 27.6193 19.4109 27.5571 19.4441C27.4948 19.4774 27.4283 19.5046 27.4092 19.5046C27.3776 19.5046 27.3022 19.5359 26.8819 19.7234C26.3486 19.9613 25.4051 20.4577 25.0319 20.6968C24.6835 20.9199 24.4392 21.0844 24.1979 21.258C23.8578 21.5028 23.9202 21.4542 23.5458 21.7652C22.3794 22.7339 21.5931 23.7892 20.8928 25.3258C20.8473 25.4256 20.7915 25.548 20.7687 25.5979C20.7305 25.6815 20.7108 25.7338 20.6031 26.0364C20.5823 26.0946 20.5417 26.2035 20.5128 26.2783C20.4839 26.3532 20.4318 26.5097 20.397 26.6261C20.3623 26.7425 20.3067 26.9262 20.2736 27.0343C20.2404 27.1424 20.2044 27.2853 20.1936 27.3518C20.1828 27.4184 20.1546 27.5272 20.1309 27.5937C20.1072 27.6603 20.0752 27.7964 20.0597 27.8961C20.0442 27.9959 20.0102 28.152 19.9841 28.2429C19.9581 28.3339 19.9367 28.4644 19.9367 28.533C19.9367 28.6015 19.9162 28.7244 19.8911 28.8061C19.866 28.8877 19.8321 29.1042 19.8159 29.2872C19.7996 29.4701 19.7656 29.7423 19.7403 29.892C19.715 30.0416 19.6943 30.2948 19.6942 30.4544C19.6941 30.9071 19.662 31.2074 19.6138 31.2074C19.5802 31.2074 19.5728 31.3817 19.5728 32.1751C19.5728 33.0151 19.5788 33.1427 19.6183 33.1427C19.6433 33.1427 19.6644 33.1461 19.6652 33.1503C19.666 33.1545 19.6789 33.464 19.6938 33.8382C19.7089 34.2137 19.7422 34.6249 19.7682 34.7557C19.7942 34.886 19.8157 35.0833 19.8159 35.1941C19.8162 35.3049 19.8379 35.4908 19.8641 35.6073C19.8903 35.7237 19.9228 35.9375 19.9363 36.0825C19.9497 36.2274 19.9845 36.4213 20.0135 36.5134C20.0638 36.6728 20.0712 36.6808 20.1684 36.6808C20.234 36.6808 20.2704 36.6662 20.2704 36.6397C20.2704 36.6171 20.4239 36.4525 20.6115 36.2739C20.7992 36.0953 21.1711 35.7359 21.438 35.4752C22.0036 34.9228 22.7292 34.222 23.2896 33.687C23.6415 33.3511 24.2767 32.7381 26.0166 31.0557C26.3007 30.781 26.7242 30.3732 26.9577 30.1495C27.5332 29.5981 28.0759 29.0742 29.2778 27.9098C31.0411 26.2018 31.6768 25.5982 31.7236 25.5877C31.7681 25.5778 31.9101 25.6643 32.0744 25.8015C32.1196 25.8392 32.3075 25.9857 32.492 26.1271C32.6765 26.2685 32.9686 26.493 33.1411 26.6261C33.3137 26.7591 33.5966 26.9761 33.7699 27.1082C33.9431 27.2404 34.2623 27.4852 34.4791 27.6522C34.696 27.8193 34.8871 27.9664 34.9037 27.9792C34.9204 27.992 35.0796 28.1146 35.2574 28.2517C35.7679 28.6453 36.2428 29.0102 36.5752 29.2643C37.4453 29.9296 37.6121 30.0599 37.6475 30.1026C37.6688 30.1281 37.7118 30.149 37.7431 30.149C37.7986 30.149 37.8001 30.0316 37.8001 25.676C37.8001 22.1246 37.7923 21.2005 37.7622 21.1905C37.7349 21.1814 37.7214 21.0562 37.7139 20.7419C37.7057 20.3955 37.6936 20.2949 37.6551 20.2518C37.6027 20.1935 37.3098 20.0495 36.7386 19.8015C36.6635 19.7689 36.5799 19.7305 36.5528 19.7162C36.5257 19.7019 36.3892 19.6471 36.2495 19.5945C36.1098 19.5418 35.9341 19.4749 35.8591 19.4456C35.6955 19.382 35.4693 19.305 35.2828 19.2496C35.2078 19.2273 35.1054 19.1945 35.0554 19.1766C34.8561 19.1056 34.6523 19.0452 34.4787 19.0057C34.3784 18.9829 34.2573 18.9494 34.2096 18.9314C34.162 18.9133 34.0394 18.8855 33.9371 18.8695C33.8349 18.8534 33.6766 18.8197 33.5854 18.7945C33.4942 18.7693 33.3539 18.7486 33.2736 18.7486C33.1718 18.7486 33.1224 18.7349 33.1102 18.7033C33.095 18.6638 32.9071 18.6579 31.6738 18.6579C30.5128 18.6579 30.252 18.6653 30.2392 18.6986ZM43.6231 26.3301C43.5981 26.3386 43.4412 26.4781 43.2743 26.64C43.1075 26.802 42.5616 27.3199 42.0612 27.791C41.5608 28.2621 41.0147 28.7778 40.8477 28.9371C40.6808 29.0964 40.3332 29.424 40.0753 29.6652C39.2391 30.4473 38.4651 31.1773 37.8456 31.7683C37.512 32.0866 36.789 32.7676 36.239 33.2816C35.689 33.7957 35.0749 34.3716 34.8742 34.5614C32.9703 36.3627 31.9917 37.2719 31.9486 37.2794C31.9203 37.2843 31.8073 37.2163 31.6975 37.1282C31.5876 37.0401 31.2287 36.7571 30.8999 36.4993C30.5711 36.2415 30.06 35.8401 29.7643 35.6073C29.4685 35.3744 28.9549 34.9707 28.6228 34.7101C28.2909 34.4495 27.9456 34.1773 27.8557 34.1053C27.7657 34.0333 27.6565 33.9474 27.613 33.9146C27.5239 33.8473 26.4384 32.9899 26.1885 32.7894C26.0106 32.6467 25.9575 32.6315 25.9176 32.7118C25.903 32.7412 25.895 34.9124 25.8997 37.5989C25.9073 41.9809 25.9126 42.438 25.9566 42.4864C26.0196 42.5558 26.599 42.8403 27.1245 43.0598C27.2496 43.1121 27.3861 43.1732 27.4278 43.1957C27.4695 43.2181 27.5514 43.2508 27.6098 43.2682C27.6682 43.2857 27.8115 43.3358 27.9282 43.3797C28.045 43.4235 28.2156 43.4837 28.3073 43.5134C28.3991 43.5431 28.5083 43.5818 28.55 43.5992C28.6231 43.6299 28.8922 43.7101 29.3688 43.8432C29.7612 43.9529 30.3887 44.0774 30.999 44.1667C31.0699 44.1771 31.1279 44.198 31.1279 44.2131C31.1279 44.254 32.879 44.2493 32.8927 44.2084C32.8986 44.1906 33.0123 44.1628 33.1454 44.1467C33.545 44.0981 34.1013 44 34.3344 43.937C34.455 43.9045 34.5742 43.8778 34.5992 43.8778C34.6412 43.8778 34.8554 43.8161 35.1919 43.707C35.2669 43.6826 35.3829 43.6494 35.4496 43.6331C35.5855 43.6 35.8411 43.5062 36.0292 43.4205C36.0978 43.3893 36.169 43.3638 36.1876 43.3638C36.2188 43.3638 36.3006 43.3299 36.6358 43.1782C36.7043 43.1472 36.7696 43.1218 36.7807 43.1218C36.8354 43.1218 37.8979 42.5882 38.2853 42.3661C40.3925 41.1586 41.6137 39.9115 42.6093 37.9508C42.7736 37.6273 42.926 37.293 42.9855 37.1256C43.0164 37.039 43.0783 36.8728 43.1232 36.7564C43.1681 36.64 43.2232 36.4835 43.2458 36.4086C43.2683 36.3338 43.3066 36.2113 43.3309 36.1365C43.4788 35.681 43.5018 35.6013 43.5018 35.5457C43.5018 35.5119 43.5291 35.4068 43.5625 35.3121C43.5958 35.2175 43.6231 35.1012 43.6231 35.0537C43.6231 35.0062 43.649 34.88 43.6805 34.7732C43.7121 34.6665 43.7518 34.4839 43.7688 34.3674C43.7857 34.251 43.8205 34.0265 43.8461 33.8685C43.9656 33.13 43.9954 32.8498 44.0518 31.9331C44.1009 31.1355 44.1087 30.7709 44.0931 29.9978C44.0825 29.4739 44.0608 28.9092 44.0449 28.7429C44.029 28.5765 44.0018 28.2569 43.9844 28.0325C43.9671 27.8081 43.9333 27.5224 43.9093 27.3975C43.8854 27.2726 43.8658 27.1228 43.8658 27.0645C43.8659 26.8804 43.7702 26.4305 43.7184 26.3714C43.691 26.3402 43.6481 26.3216 43.6231 26.3301ZM50.5582 29.262C50.5132 29.3068 50.5432 29.4331 50.6365 29.5911C50.6907 29.683 50.7624 29.8041 50.7958 29.8602C50.9089 30.0508 51.4175 31.0041 51.4175 31.0257C51.4175 31.0374 51.4676 31.141 51.5288 31.2557C51.59 31.3705 51.6638 31.5257 51.6926 31.6005C51.7215 31.6754 51.8027 31.8727 51.8731 32.039C52.1485 32.6896 52.4017 33.4225 52.6307 34.2314C52.6613 34.3395 52.7149 34.5232 52.7499 34.6396C52.7849 34.756 52.8133 34.8744 52.813 34.9027C52.8128 34.931 52.8336 35.0331 52.8593 35.1295C52.9398 35.4317 53.0283 35.8679 53.0712 36.1745C53.094 36.3368 53.1221 36.4849 53.1338 36.5038C53.1566 36.5406 53.2079 36.9923 53.2826 37.8148C53.3617 38.6843 53.3513 41.6933 53.2681 42.0332C53.2539 42.0914 53.2269 42.3296 53.2082 42.5624C53.1894 42.7952 53.1617 43.0402 53.1465 43.1067C53.1314 43.1732 53.1033 43.3229 53.0841 43.4394C52.9745 44.104 52.5863 45.4775 52.3021 46.2063C51.8784 47.2923 51.2611 48.5474 50.7763 49.308C50.7119 49.4089 50.6593 49.5002 50.6593 49.5109C50.6593 49.5216 50.5752 49.65 50.4724 49.7961C50.3696 49.9423 50.229 50.1435 50.16 50.2433C49.9648 50.5255 49.8059 50.7502 49.7431 50.833C49.7116 50.8745 49.6187 50.997 49.5369 51.1051C49.3212 51.3897 49.2058 51.5366 48.9309 51.8762C48.7963 52.0426 48.6063 52.2807 48.5086 52.4054C48.3033 52.6678 48.1816 52.7876 48.1512 52.7573C48.1314 52.7375 48.2197 52.5474 48.4409 52.1333C48.5818 51.8697 48.8916 51.2184 48.9156 51.1354C48.9276 51.0938 48.9641 51.016 48.9966 50.9625C49.029 50.9089 49.0878 50.7865 49.1271 50.6903C49.1664 50.5941 49.2759 50.3317 49.3703 50.1072C49.4647 49.8827 49.5554 49.6448 49.5716 49.5785C49.588 49.5122 49.6186 49.4373 49.6398 49.4122C49.6826 49.3612 49.9148 48.7824 49.9493 48.6406C49.9614 48.5907 49.9889 48.5227 50.0103 48.4894C50.0318 48.4561 50.0633 48.3745 50.0804 48.308C50.0975 48.2414 50.1949 47.9352 50.2968 47.6276C50.3987 47.3199 50.4998 47.0069 50.5215 46.932C50.5432 46.8572 50.5886 46.7007 50.6226 46.5843C50.6564 46.4679 50.6992 46.3114 50.7175 46.2365C50.7359 46.1617 50.7909 45.9508 50.8398 45.7678C50.8887 45.5849 50.9374 45.3603 50.9482 45.2689C50.9589 45.1774 50.9858 45.0345 51.0078 44.9513C51.03 44.8682 51.0639 44.6981 51.0832 44.5733C51.1026 44.4486 51.1315 44.2649 51.1474 44.1651C51.2486 43.5327 51.2799 41.9246 51.2221 40.3398C51.1711 38.9406 50.9963 37.6237 50.7163 36.5296C50.4879 35.6368 50.4337 35.4325 50.3871 35.2898C50.3572 35.1983 50.2956 35.001 50.25 34.8513C50.1417 34.4949 50.0195 34.1444 49.9708 34.0499C49.9493 34.0083 49.9317 33.9493 49.9316 33.9187C49.9315 33.8882 49.8836 33.7548 49.8253 33.6225C49.7669 33.49 49.7191 33.364 49.7191 33.3423C49.7191 33.3207 49.6873 33.2431 49.6483 33.1699C49.6094 33.0968 49.5678 32.9978 49.5558 32.95C49.5439 32.9021 49.4821 32.7524 49.4187 32.6173C49.3553 32.4822 49.2806 32.3093 49.2529 32.2331C49.2251 32.157 49.1686 32.0489 49.1272 31.9929C49.0858 31.937 49.0519 31.8721 49.0519 31.8487C49.0519 31.8053 48.8377 31.3736 48.7488 31.2376C48.7216 31.1961 48.6605 31.074 48.6131 30.9664C48.4861 30.6782 48.2696 30.3365 48.2 30.3144C48.0716 30.2738 48.0137 30.4138 48.0848 30.5931C48.1034 30.6399 48.1306 30.7803 48.1452 30.905C48.1599 31.0297 48.1851 31.2202 48.2013 31.3284C48.2459 31.6274 48.3252 32.8504 48.3385 33.4451C48.3551 34.1852 48.2673 36.121 48.2001 36.4993C48.1838 36.5908 48.1634 36.7609 48.1547 36.8773C48.1381 37.1004 48.1134 37.278 48.0372 37.7241C48.0116 37.8737 47.9906 38.0549 47.9905 38.1267C47.9905 38.1985 47.9765 38.2831 47.9595 38.3147C47.9426 38.3463 47.9083 38.4917 47.8834 38.6378C47.7851 39.2136 47.591 40.0902 47.4862 40.4311C47.4631 40.5063 47.4252 40.656 47.4019 40.7638C47.3598 40.9582 47.1672 41.6562 47.0515 42.0332C46.9071 42.5038 46.7366 43.0273 46.6833 43.1637C46.6516 43.2449 46.6252 43.3333 46.6247 43.3602C46.6242 43.3871 46.5902 43.4772 46.5491 43.5603C46.5081 43.6435 46.4744 43.7359 46.4743 43.7656C46.4741 43.7954 46.4486 43.8702 46.4176 43.932C46.3866 43.9937 46.3515 44.0848 46.3394 44.1344C46.3274 44.1841 46.2718 44.3338 46.2159 44.4671C46.16 44.6004 46.0638 44.8319 46.0022 44.9816C45.7719 45.5407 45.6158 45.8978 45.4669 46.2063C45.1748 46.8115 44.8282 47.4919 44.7703 47.5738C44.7382 47.619 44.6435 47.7991 44.5597 47.974C44.476 48.1488 44.3957 48.2991 44.3815 48.3079C44.3671 48.3167 44.2361 48.5244 44.0904 48.7695C43.6561 49.4996 43.5824 49.6137 43.0018 50.455C42.5148 51.1605 42.2476 51.5245 41.9142 51.9364C41.8333 52.0364 41.6907 52.2134 41.5973 52.3298C41.246 52.7679 40.9177 53.15 40.6282 53.4578C40.5406 53.5509 40.469 53.6385 40.469 53.6523C40.469 53.6662 40.3564 53.7894 40.2188 53.9263C40.0812 54.0631 39.7434 54.406 39.4681 54.6883C38.7029 55.4733 37.0625 57.0154 36.6052 57.3799C36.5008 57.463 36.2664 57.6613 36.0842 57.8203C35.5634 58.2751 35.3367 58.4652 35.2222 58.5433C35.1638 58.583 35.0597 58.6641 34.9909 58.7235C34.922 58.7828 34.7856 58.896 34.6876 58.975C34.3073 59.2816 33.8719 59.6412 33.8574 59.6606C33.8491 59.6718 33.7808 59.7163 33.7057 59.7596C33.5234 59.8645 33.453 59.9475 33.453 60.0575C33.453 60.1837 33.4878 60.2083 33.7098 60.2389C33.816 60.2536 34.0599 60.3073 34.2517 60.3583C34.6491 60.4639 34.8329 60.5044 35.0705 60.5385C35.1623 60.5517 35.3397 60.5858 35.4648 60.6144C35.7226 60.6732 35.9477 60.7105 36.2988 60.7526C36.4323 60.7686 36.6165 60.7962 36.7083 60.8141C36.8 60.8319 37.0047 60.8585 37.1632 60.8732C37.3217 60.8878 37.6902 60.9222 37.9821 60.9498C38.6881 61.0163 40.6694 61.0169 41.3333 60.9507C41.5835 60.9258 41.9316 60.8912 42.1067 60.8738C42.2819 60.8563 42.4797 60.8296 42.5465 60.8142C42.6132 60.7988 42.7906 60.7697 42.9407 60.7493C43.0909 60.729 43.2597 60.694 43.316 60.6715C43.3722 60.649 43.4641 60.6306 43.5201 60.6306C43.7817 60.6306 45.6151 60.1089 45.8603 59.9647C45.9161 59.9318 45.9989 59.9049 46.0441 59.9049C46.0893 59.9049 46.1738 59.8727 46.2319 59.8333C46.29 59.794 46.3853 59.7518 46.4436 59.7397C46.502 59.7275 46.5775 59.7 46.6115 59.6787C46.6454 59.6574 46.8228 59.5754 47.0058 59.4965C47.1887 59.4177 47.3588 59.3358 47.3838 59.3147C47.4088 59.2936 47.5794 59.2044 47.7629 59.1166C48.1042 58.9532 48.1829 58.9095 48.6219 58.6391C48.7608 58.5536 48.8817 58.4836 48.8907 58.4836C48.924 58.4836 49.4421 58.163 49.7646 57.9428C50.9346 57.1439 51.4123 56.7854 51.9777 56.2819C52.6639 55.6708 53.6328 54.6607 53.9573 54.2179C54.0113 54.1441 54.1177 54.0089 54.1936 53.9174C54.2695 53.8259 54.3792 53.6831 54.4375 53.5999C54.4957 53.5167 54.6047 53.3671 54.6796 53.2673C54.8426 53.05 55.128 52.6379 55.254 52.4376C55.3041 52.3581 55.3996 52.2149 55.4663 52.1192C55.6319 51.882 56.0478 51.2081 56.1202 51.0598C56.1526 50.9932 56.2417 50.8371 56.3181 50.7128C56.5246 50.3768 56.8583 49.7242 56.9293 49.5175C57.1726 48.8096 57.4351 47.8093 57.5259 47.2438C57.5505 47.091 57.584 46.9141 57.6005 46.8507C57.6451 46.6791 57.6954 46.3498 57.6954 46.23C57.6954 46.172 57.7087 46.0852 57.7249 46.0369C57.7549 45.9477 57.7797 45.6956 57.8643 44.6187C57.9191 43.9206 57.9038 42.7956 57.8312 42.1995C57.7347 41.4063 57.7219 41.314 57.6763 41.0807C57.567 40.5214 57.3386 39.6744 57.2237 39.4024C57.1991 39.3441 57.1599 39.2285 57.1366 39.1453C57.0473 38.8276 56.4061 37.2032 56.313 37.0588C56.2915 37.0255 56.2247 36.8758 56.1646 36.7261C56.1044 36.5765 56.0238 36.4064 55.9854 36.3481C55.947 36.2899 55.892 36.1743 55.8631 36.0911C55.8341 36.0079 55.7848 35.8991 55.7533 35.8492C55.7219 35.7993 55.623 35.6088 55.5337 35.4258C55.4444 35.2429 55.2868 34.9531 55.1836 34.7818C55.0803 34.6106 54.96 34.3997 54.9161 34.3131C54.8228 34.1292 54.5775 33.7418 54.4718 33.6115C54.4313 33.5616 54.375 33.4758 54.3468 33.4208C54.3185 33.3658 54.2245 33.2268 54.1378 33.1119C54.0511 32.9969 53.9256 32.8265 53.8589 32.7332C53.7922 32.6398 53.6936 32.5067 53.6399 32.4373C53.5861 32.3679 53.4883 32.2363 53.4225 32.1448C53.1591 31.7786 52.3963 30.9171 51.8694 30.3909C50.8601 29.3829 50.633 29.1873 50.5582 29.262ZM5.59717 41.5452C5.56447 41.5659 5.56638 41.6749 5.60793 42.1571C5.70511 43.2853 5.85526 44.3069 6.04533 45.1328C6.07975 45.2825 6.1206 45.4673 6.13607 45.5434C6.17635 45.7419 6.33087 46.3266 6.4271 46.6448C6.47238 46.7945 6.53407 47.0054 6.56418 47.1135C6.61823 47.3076 6.79829 47.8454 6.87802 48.0509C6.90059 48.1091 6.95618 48.2588 7.00155 48.3836C7.21433 48.9687 7.78735 50.2314 8.03074 50.6515C8.05485 50.6931 8.17201 50.8972 8.29111 51.1051C8.6081 51.6584 8.96682 52.2103 9.29121 52.6439C9.38314 52.7667 9.48446 52.9028 9.5164 52.9463C9.54837 52.9898 9.62443 53.0798 9.68542 53.1463C9.74644 53.2128 9.82132 53.3081 9.8518 53.358C9.88231 53.4079 9.96574 53.5099 10.0372 53.5848C10.1087 53.6596 10.2686 53.8297 10.3926 53.9628C10.8366 54.4393 11.4478 55.0277 11.7329 55.2533C11.8497 55.3457 11.9725 55.4521 12.0059 55.4899C12.1442 55.6464 12.8095 56.1756 13.4412 56.6315C13.5967 56.7437 13.7946 56.8867 13.8809 56.9493C14.2383 57.2082 14.9087 57.6381 15.2207 57.8084C15.4042 57.9085 15.643 58.0417 15.7514 58.1043C15.8599 58.167 16.0027 58.2376 16.0689 58.2612C16.1351 58.2848 16.2454 58.337 16.314 58.3771C16.3826 58.4171 16.5449 58.492 16.6747 58.5434C16.8044 58.5948 16.9602 58.6633 17.021 58.6957C17.1534 58.7663 17.6406 58.9548 17.7683 58.9848C17.8183 58.9966 17.9099 59.0316 17.9718 59.0625C18.0337 59.0934 18.1227 59.1187 18.1698 59.1187C18.2167 59.1187 18.2879 59.1415 18.3278 59.1693C18.3677 59.1972 18.468 59.2307 18.5507 59.2437C18.6333 59.2568 18.7248 59.2889 18.7539 59.3152C18.7831 59.3415 18.8735 59.3751 18.9548 59.3898C19.0361 59.4046 19.1641 59.437 19.2392 59.4618C19.3143 59.4865 19.4917 59.5361 19.6335 59.5719C19.9072 59.6409 20.1612 59.7117 20.4826 59.8083C20.5911 59.8409 20.8777 59.9042 21.1195 59.949C21.3614 59.9939 21.6344 60.0491 21.7261 60.0717C21.9755 60.1333 22.3567 60.2039 22.545 60.2234C22.8687 60.257 23.0198 60.298 23.0909 60.298C23.1564 60.3006 23.123 60.3006 23.1564 60.3006C23.1901 60.3006 23.1715 60.3006 23.2122 60.298C23.2878 60.298 23.399 60.3006 23.4597 60.3006C23.4829 60.3005 23.4445 60.3006 23.4748 60.3006C23.5355 60.3006 23.5505 60.2826 23.7126 60.29C23.8525 60.2964 25.0594 60.2061 25.1987 60.1788C25.2821 60.1625 25.5073 60.128 25.6991 60.1022C26.1697 60.0388 26.4156 59.999 26.5786 59.9597C26.6537 59.9417 26.8175 59.9091 26.9426 59.8874C27.0677 59.8658 27.2314 59.8329 27.3065 59.8144C27.3816 59.7959 27.514 59.7678 27.6007 59.7519C27.6875 59.7361 27.7967 59.7079 27.8434 59.6893C27.8901 59.6708 28.0101 59.6384 28.1102 59.6172C28.2103 59.5962 28.3331 59.564 28.3832 59.5458C28.4332 59.5276 28.6243 59.4659 28.8078 59.4087C29.7608 59.1114 30.8214 58.6552 31.6131 58.2021C31.9645 58.001 32.7859 57.4448 32.9181 57.3186C32.9615 57.2771 33.0526 57.2059 33.1204 57.1603C33.2444 57.0771 33.4803 56.888 34.0111 56.4463C34.77 55.8148 35.9946 54.634 36.6782 53.8745C37.0253 53.4888 37.1146 53.3862 37.4167 53.0253C37.4724 52.9588 37.5412 52.8595 37.5696 52.8046C37.598 52.7497 37.6407 52.6973 37.6644 52.6882C37.6881 52.6792 37.7479 52.6084 37.7973 52.531C37.8467 52.4536 37.9324 52.3277 37.9877 52.2513C38.3112 51.8041 38.3668 51.7255 38.4218 51.6376C38.4552 51.5843 38.5166 51.4944 38.5583 51.4378C38.6 51.3811 38.6614 51.2915 38.6948 51.2386C38.7281 51.1857 38.7955 51.083 38.8444 51.0104C38.8933 50.9377 39.01 50.7354 39.1038 50.5608C39.1977 50.3862 39.3251 50.1652 39.3871 50.0698C39.4491 49.9745 39.5624 49.7635 39.639 49.6011C39.7156 49.4387 39.8043 49.2693 39.8362 49.2247C39.868 49.1801 39.9137 49.0879 39.9378 49.0198C39.9784 48.905 40.0288 48.7955 40.3524 48.1175C40.4724 47.8661 40.4841 47.7485 40.3891 47.7485C40.3048 47.7485 40.2367 47.8051 39.9996 48.0721C39.3305 48.8258 38.5675 49.58 37.9633 50.085C37.8485 50.181 37.6861 50.317 37.6024 50.3874C37.0346 50.8649 35.6583 51.8092 35.1312 52.0829C35.0395 52.1306 34.9439 52.1876 34.9189 52.2097C34.8939 52.2318 34.7642 52.3065 34.6308 52.3757C34.4973 52.4449 34.2722 52.5619 34.1304 52.6358C33.9162 52.7473 33.646 52.8703 32.8414 53.2222C32.7206 53.275 32.0789 53.5217 31.9012 53.5836C31.8012 53.6184 31.5973 53.6884 31.4482 53.739C31.2991 53.7896 31.1394 53.8505 31.0934 53.8742C31.0473 53.898 30.9713 53.9175 30.9247 53.9176C30.878 53.9177 30.7988 53.9448 30.7488 53.9779C30.6987 54.011 30.6168 54.0384 30.5668 54.0388C30.5168 54.0393 30.4184 54.0657 30.3482 54.0975C30.278 54.1292 30.1552 54.1647 30.0752 54.1762C29.9953 54.1877 29.8958 54.2143 29.8541 54.2354C29.8124 54.2564 29.71 54.2873 29.6266 54.3041C29.5432 54.3209 29.4204 54.3559 29.3537 54.3818C29.2869 54.4077 29.1805 54.4294 29.1171 54.4302C29.0538 54.4309 28.965 54.4504 28.92 54.4735C28.8749 54.4966 28.7494 54.5305 28.641 54.5488C28.5325 54.5672 28.3824 54.5961 28.3073 54.6133C28.2323 54.6304 28.0326 54.6627 27.8636 54.6851C27.6947 54.7075 27.5445 54.7332 27.5298 54.7422C27.5001 54.7605 26.8916 54.814 26.3815 54.8432C25.6458 54.8852 24.2317 54.8454 23.5458 54.7634C23.1154 54.7119 22.4384 54.6123 22.2114 54.5671C21.8852 54.5022 21.6844 54.4651 21.4034 54.418C21.2676 54.3953 21.1286 54.3618 21.0945 54.3436C21.0604 54.3254 21.0078 54.3107 20.9775 54.311C20.9472 54.3112 20.8337 54.2845 20.7253 54.2515C20.6169 54.2186 20.4053 54.156 20.2552 54.1124C20.1051 54.0688 19.9072 54.009 19.8154 53.9794C19.7237 53.9499 19.5463 53.8945 19.4212 53.8563C19.2146 53.7933 19.1072 53.7578 18.7843 53.6459C18.7259 53.6257 18.6099 53.5884 18.5265 53.563C18.4431 53.5376 18.3597 53.5048 18.3412 53.4902C18.3228 53.4756 18.2341 53.4376 18.1441 53.4059C17.4672 53.1671 17.3471 53.1142 17.3761 53.0674C17.398 53.032 17.6356 53.0525 17.9502 53.117C18.1461 53.157 18.3744 53.1856 19.0572 53.2552C19.199 53.2697 19.6153 53.3021 19.9822 53.3273C20.3492 53.3524 20.7382 53.3794 20.8466 53.3872C21.2531 53.4164 23.6942 53.4268 23.9856 53.4006C24.1524 53.3856 24.3717 53.3681 24.473 53.3617C24.9632 53.3309 25.241 53.3046 25.3655 53.2772C25.4406 53.2606 25.6521 53.2292 25.8356 53.2073C26.1723 53.167 26.5148 53.1041 26.8213 53.0263C26.913 53.003 27.1314 52.9475 27.3065 52.903C27.4817 52.8585 27.6727 52.8048 27.7311 52.7836C27.7895 52.7623 27.9601 52.7077 28.1102 52.6622C28.2603 52.6167 28.4599 52.5471 28.5538 52.5076C28.6476 52.468 28.7462 52.4357 28.7728 52.4357C28.7995 52.4357 28.8797 52.4099 28.951 52.3784C29.0223 52.3469 29.1762 52.2907 29.293 52.2534C29.4098 52.2162 29.5326 52.1691 29.566 52.1488C29.5993 52.1284 29.6949 52.0903 29.7783 52.0641C30.0359 51.983 30.2672 51.8989 30.3274 51.8644C30.359 51.8463 30.4912 51.7905 30.6211 51.7403C30.7511 51.6901 30.9579 51.6015 31.0807 51.5434C31.2035 51.4853 31.3135 51.4378 31.325 51.4378C31.3466 51.4378 31.9209 51.1699 32.0832 51.0842C32.1333 51.0577 32.2834 50.9792 32.4168 50.9097C32.9 50.6579 33.4671 50.3144 34.0394 49.9269C34.1144 49.8761 34.2729 49.77 34.3916 49.6911C34.8385 49.394 35.7142 48.738 36.0826 48.4242C36.1682 48.3514 36.3384 48.207 36.461 48.1033C37.1362 47.5322 38.6017 46.0584 38.6381 45.914C38.681 45.7434 38.5854 45.7097 38.3915 45.8272C38.2212 45.9305 37.3412 46.3625 37.0936 46.4644C36.9802 46.511 36.8805 46.5605 36.8719 46.5743C36.8633 46.5881 36.835 46.5994 36.8088 46.5994C36.7827 46.5994 36.6846 46.6322 36.5908 46.6722C36.1714 46.8511 35.3294 47.156 35.0315 47.2369C34.9183 47.2676 34.8099 47.3025 34.7908 47.3142C34.7716 47.3261 34.6868 47.353 34.6024 47.374C34.5179 47.395 34.3874 47.4322 34.3123 47.4566C33.9365 47.5789 33.7645 47.6276 33.7078 47.6276C33.6734 47.6276 33.5668 47.6535 33.4709 47.6853C33.3749 47.717 33.2356 47.7516 33.1614 47.7622C33.0871 47.7728 33.011 47.7941 32.9922 47.8097C32.9734 47.8252 32.8578 47.8521 32.7353 47.8695C32.6127 47.8868 32.4978 47.9126 32.4798 47.9268C32.4619 47.9411 32.3653 47.9622 32.2652 47.9738C32.1651 47.9854 31.974 48.0197 31.8406 48.05C31.7071 48.0803 31.4956 48.1212 31.3705 48.1409C31.2454 48.1605 31.0748 48.1889 30.9914 48.2038C30.908 48.2187 30.7237 48.2455 30.582 48.2632C30.4402 48.281 30.2355 48.3091 30.127 48.3257C30.0186 48.3422 29.7866 48.3688 29.6115 48.3847C29.4363 48.4005 29.2248 48.4213 29.1414 48.4307C28.9031 48.4578 28.5568 48.4802 27.5246 48.5354C26.8524 48.5714 25.1842 48.5811 24.6528 48.5522C24.4693 48.5422 24.0872 48.5192 23.8036 48.5012C23.52 48.4832 23.2402 48.4687 23.1819 48.4691C23.1235 48.4695 22.9753 48.4504 22.8526 48.4267C22.7299 48.403 22.5383 48.3836 22.4268 48.3836C22.3153 48.3836 22.148 48.3638 22.055 48.3396C21.962 48.3155 21.7442 48.2812 21.5709 48.2636C21.3977 48.2459 21.1898 48.2115 21.1089 48.1871C21.028 48.1627 20.871 48.1348 20.7601 48.1252C20.5751 48.1092 20.2206 48.0378 19.9231 47.9566C19.7849 47.9189 19.1441 47.7865 18.9207 47.7496C18.8373 47.7358 18.7077 47.7034 18.6326 47.6776C18.5576 47.6519 18.387 47.6014 18.2535 47.5654C17.9874 47.4937 17.5804 47.3767 17.3437 47.3039C16.5567 47.0619 16.3089 46.9824 16.176 46.9296C16.101 46.8998 15.8485 46.8075 15.615 46.7246C15.3814 46.6416 15.1494 46.5524 15.0994 46.5263C15.0493 46.5002 14.9727 46.4788 14.9291 46.4786C14.8855 46.4785 14.8156 46.4517 14.7739 46.4189C14.7321 46.3862 14.6109 46.3266 14.5044 46.2865C14.1466 46.1516 13.9788 46.0803 13.674 45.9333C13.5071 45.853 13.3176 45.771 13.2528 45.7511C13.188 45.7313 13.0871 45.6827 13.0287 45.6432C12.9702 45.6036 12.9124 45.5713 12.9001 45.5713C12.872 45.5713 11.9008 45.0989 11.5965 44.9372C11.4714 44.8707 11.3076 44.7888 11.2325 44.7551C11.1575 44.7215 11.0415 44.6598 10.9747 44.618C10.908 44.5763 10.7374 44.4861 10.5956 44.4178C10.4538 44.3494 10.317 44.2754 10.2915 44.2533C10.2435 44.2119 9.95953 44.0509 9.56447 43.8412C9.43937 43.7749 9.21418 43.6445 9.06405 43.5516C8.81093 43.3949 8.62896 43.2893 8.19858 43.0492C8.10623 42.9977 7.99704 42.9315 7.95595 42.9021C7.84464 42.8224 7.17873 42.3974 6.89058 42.222C6.7305 42.1246 6.34412 41.8867 6.17786 41.7831C6.13058 41.7536 6.02552 41.6822 5.9444 41.6243C5.80088 41.522 5.67814 41.494 5.59717 41.5452Z" fill="white"/>
</svg>
