<svg width="390" height="68" viewBox="0 0 390 68" fill="none" xmlns="http://www.w3.org/2000/svg">
<g filter="url(#filter0_d_18_43)">
<g clip-path="url(#clip0_18_43)">
<path d="M43.9457 36.1135H59.3362V38.9597H53.2846V54.9593H49.957V38.9597H43.9323V36.1135H43.9457ZM58.6787 41.3137H61.5234V43.9471H61.577C61.671 43.5747 61.8454 43.2156 62.1003 42.8698C62.3553 42.524 62.6639 42.1915 63.0262 41.9122C63.3885 41.6196 63.791 41.3935 64.2338 41.2073C64.6766 41.0344 65.1328 40.9413 65.589 40.9413C65.9379 40.9413 66.1928 40.9546 66.327 40.9679C66.4612 40.9812 66.5954 41.0078 66.743 41.0211V43.9205C66.5283 43.8806 66.3136 43.854 66.0855 43.8274C65.8574 43.8008 65.6427 43.7875 65.428 43.7875C64.9181 43.7875 64.4351 43.8939 63.9789 44.0934C63.5226 44.2929 63.1335 44.5988 62.7981 44.9845C62.4626 45.3835 62.1943 45.8623 61.993 46.4475C61.7917 47.0326 61.6978 47.6976 61.6978 48.4557V54.946H58.6653V41.3137H58.6787ZM80.6844 54.9593H77.7056V53.0575H77.6519C77.2762 53.749 76.726 54.2943 75.988 54.7066C75.25 55.1189 74.4986 55.3317 73.7338 55.3317C71.9224 55.3317 70.6074 54.8928 69.8023 54.0017C68.9972 53.1106 68.5947 51.7674 68.5947 49.9719V41.3137H71.6272V49.6793C71.6272 50.8763 71.8553 51.7275 72.3249 52.2196C72.7811 52.7117 73.4386 52.9644 74.2705 52.9644C74.9146 52.9644 75.4379 52.8713 75.8673 52.6718C76.2967 52.4723 76.6455 52.2196 76.9005 51.8871C77.1688 51.5679 77.3567 51.1689 77.4774 50.7167C77.5982 50.2645 77.6519 49.7724 77.6519 49.2404V41.327H80.6844V54.9593ZM85.8503 50.5837C85.9443 51.4615 86.2797 52.0733 86.8567 52.4324C87.4471 52.7782 88.1448 52.9644 88.9633 52.9644C89.2451 52.9644 89.5671 52.9378 89.9294 52.8979C90.2917 52.858 90.6406 52.7649 90.9492 52.6452C91.2712 52.5255 91.5262 52.3393 91.7409 52.0999C91.9421 51.8605 92.0361 51.5546 92.0226 51.1689C92.0092 50.7832 91.8616 50.464 91.5933 50.2246C91.3249 49.9719 90.9895 49.7857 90.5735 49.6261C90.1575 49.4798 89.6879 49.3468 89.1512 49.2404C88.6144 49.134 88.0777 49.0143 87.5276 48.8946C86.964 48.7749 86.4139 48.6153 85.8906 48.4424C85.3673 48.2695 84.8976 48.0301 84.4817 47.7242C84.0657 47.4316 83.7303 47.0459 83.4887 46.5805C83.2338 46.115 83.113 45.5431 83.113 44.8515C83.113 44.1067 83.3009 43.4949 83.6632 42.9895C84.0255 42.4841 84.4951 42.0851 85.0452 41.7792C85.6088 41.4733 86.226 41.2605 86.9104 41.1275C87.5947 41.0078 88.2522 40.9413 88.8694 40.9413C89.5806 40.9413 90.2649 41.0211 90.9089 41.1674C91.553 41.3137 92.1434 41.5531 92.6667 41.8989C93.19 42.2314 93.6194 42.6703 93.9683 43.2023C94.3171 43.7343 94.5318 44.386 94.6258 45.1441H91.4591C91.3115 44.4259 90.9895 43.9338 90.4661 43.6944C89.9428 43.4417 89.339 43.322 88.6681 43.322C88.4534 43.322 88.1985 43.3353 87.9033 43.3752C87.6081 43.4151 87.3397 43.4816 87.0714 43.5747C86.8164 43.6678 86.6017 43.8141 86.4139 44.0003C86.2395 44.1865 86.1455 44.4259 86.1455 44.7318C86.1455 45.1042 86.2797 45.3968 86.5346 45.6229C86.7896 45.849 87.125 46.0352 87.541 46.1948C87.957 46.3411 88.4266 46.4741 88.9633 46.5805C89.5 46.6869 90.0502 46.8066 90.6137 46.9262C91.1639 47.0459 91.7006 47.2055 92.2373 47.3784C92.7741 47.5513 93.2437 47.7907 93.6597 48.0966C94.0756 48.4025 94.4111 48.7749 94.666 49.2271C94.9209 49.6793 95.0551 50.2512 95.0551 50.9162C95.0551 51.7275 94.8673 52.4058 94.4916 52.9777C94.1159 53.5362 93.6328 54.0017 93.0424 54.3475C92.452 54.6933 91.7811 54.9593 91.0565 55.1189C90.332 55.2785 89.6074 55.3583 88.8962 55.3583C88.0241 55.3583 87.219 55.2652 86.481 55.0657C85.743 54.8662 85.0989 54.5736 84.5622 54.1879C84.0255 53.7889 83.5961 53.2968 83.2875 52.7117C82.9789 52.1265 82.8178 51.4216 82.791 50.6103H85.8503V50.5837ZM95.8602 41.3137H98.1547V37.2174H101.187V41.3137H103.924V43.5614H101.187V50.8497C101.187 51.1689 101.201 51.4349 101.227 51.6743C101.254 51.9004 101.321 52.0999 101.415 52.2595C101.509 52.4191 101.657 52.5388 101.858 52.6186C102.059 52.6984 102.314 52.7383 102.663 52.7383C102.878 52.7383 103.093 52.7383 103.307 52.725C103.522 52.7117 103.737 52.6851 103.951 52.6319V54.9593C103.616 54.9992 103.28 55.0258 102.972 55.0657C102.65 55.1056 102.328 55.1189 101.992 55.1189C101.187 55.1189 100.543 55.0391 100.06 54.8928C99.577 54.7465 99.1879 54.5204 98.9195 54.2278C98.6378 53.9352 98.4633 53.5761 98.356 53.1372C98.2621 52.6984 98.195 52.193 98.1815 51.6344V43.588H95.887V41.3137H95.8602ZM106.071 41.3137H108.943V43.1624H108.997C109.426 42.3644 110.016 41.8058 110.781 41.46C111.546 41.1142 112.364 40.9413 113.263 40.9413C114.35 40.9413 115.29 41.1275 116.095 41.5132C116.9 41.8856 117.571 42.4043 118.107 43.0693C118.644 43.7343 119.033 44.5057 119.302 45.3835C119.57 46.2613 119.704 47.2055 119.704 48.203C119.704 49.1207 119.583 50.0118 119.342 50.863C119.1 51.7275 118.738 52.4856 118.255 53.1505C117.772 53.8155 117.155 54.3342 116.403 54.7332C115.652 55.1322 114.78 55.3317 113.76 55.3317C113.317 55.3317 112.874 55.2918 112.432 55.212C111.989 55.1322 111.559 54.9992 111.157 54.8263C110.754 54.6534 110.365 54.4273 110.03 54.148C109.681 53.8687 109.399 53.5495 109.158 53.1904H109.104V59.9999H106.071V41.3137V41.3137ZM116.672 48.1498C116.672 47.538 116.591 46.9396 116.43 46.3544C116.269 45.7692 116.028 45.2638 115.706 44.8116C115.384 44.3594 114.981 44.0003 114.511 43.7343C114.028 43.4683 113.478 43.322 112.861 43.322C111.586 43.322 110.62 43.7609 109.976 44.6387C109.332 45.5165 109.01 46.6869 109.01 48.1498C109.01 48.8414 109.09 49.4798 109.265 50.065C109.439 50.6502 109.681 51.1556 110.03 51.5812C110.365 52.0068 110.768 52.3393 111.237 52.5787C111.707 52.8314 112.257 52.9511 112.874 52.9511C113.572 52.9511 114.149 52.8048 114.632 52.5255C115.115 52.2462 115.504 51.8738 115.813 51.4349C116.122 50.9827 116.35 50.4773 116.484 49.9054C116.605 49.3335 116.672 48.7483 116.672 48.1498V48.1498ZM122.025 36.1135H125.058V38.9597H122.025V36.1135ZM122.025 41.3137H125.058V54.9593H122.025V41.3137ZM127.768 36.1135H130.801V54.9593H127.768V36.1135ZM140.1 55.3317C138.999 55.3317 138.02 55.1455 137.161 54.7864C136.302 54.4273 135.578 53.9219 134.974 53.2968C134.384 52.6585 133.927 51.9004 133.619 51.0226C133.31 50.1448 133.149 49.1739 133.149 48.1232C133.149 47.0858 133.31 46.1283 133.619 45.2505C133.927 44.3727 134.384 43.6146 134.974 42.9762C135.564 42.3378 136.302 41.8457 137.161 41.4866C138.02 41.1275 138.999 40.9413 140.1 40.9413C141.2 40.9413 142.179 41.1275 143.038 41.4866C143.897 41.8457 144.622 42.3511 145.225 42.9762C145.816 43.6146 146.272 44.3727 146.581 45.2505C146.889 46.1283 147.05 47.0858 147.05 48.1232C147.05 49.1739 146.889 50.1448 146.581 51.0226C146.272 51.9004 145.816 52.6585 145.225 53.2968C144.635 53.9352 143.897 54.4273 143.038 54.7864C142.179 55.1455 141.2 55.3317 140.1 55.3317V55.3317ZM140.1 52.9511C140.771 52.9511 141.361 52.8048 141.857 52.5255C142.354 52.2462 142.756 51.8738 143.078 51.4216C143.4 50.9694 143.629 50.4507 143.79 49.8788C143.937 49.3069 144.018 48.7217 144.018 48.1232C144.018 47.538 143.937 46.9661 143.79 46.381C143.642 45.7958 143.4 45.2904 143.078 44.8382C142.756 44.386 142.354 44.0269 141.857 43.7476C141.361 43.4683 140.771 43.322 140.1 43.322C139.429 43.322 138.838 43.4683 138.342 43.7476C137.845 44.0269 137.443 44.3993 137.121 44.8382C136.799 45.2904 136.571 45.7958 136.41 46.381C136.262 46.9661 136.182 47.538 136.182 48.1232C136.182 48.7217 136.262 49.3069 136.41 49.8788C136.557 50.4507 136.799 50.9694 137.121 51.4216C137.443 51.8738 137.845 52.2462 138.342 52.5255C138.838 52.8181 139.429 52.9511 140.1 52.9511V52.9511ZM147.936 41.3137H150.23V37.2174H153.263V41.3137H156V43.5614H153.263V50.8497C153.263 51.1689 153.276 51.4349 153.303 51.6743C153.33 51.9004 153.397 52.0999 153.491 52.2595C153.585 52.4191 153.732 52.5388 153.934 52.6186C154.135 52.6984 154.39 52.7383 154.739 52.7383C154.953 52.7383 155.168 52.7383 155.383 52.725C155.597 52.7117 155.812 52.6851 156.027 52.6319V54.9593C155.691 54.9992 155.356 55.0258 155.047 55.0657C154.725 55.1056 154.403 55.1189 154.068 55.1189C153.263 55.1189 152.619 55.0391 152.136 54.8928C151.653 54.7465 151.263 54.5204 150.995 54.2278C150.713 53.9352 150.539 53.5761 150.432 53.1372C150.338 52.6984 150.271 52.193 150.257 51.6344V43.588H147.963V41.3137H147.936Z" fill="white"/>
<path d="M40.4032 36.1136H26.5021L22.2083 23L17.9011 36.1136L4 36.1003L15.2578 44.2132L10.9506 57.3134L22.2083 49.2139L33.4527 57.3134L29.1589 44.2132L40.4032 36.1136Z" fill="white"/>
<path d="M30.125 47.179L29.1589 44.2131L22.2084 49.2139L30.125 47.179Z" fill="#E0E0E0"/>
</g>
<path d="M5.624 13C5.53067 13 5.456 12.972 5.4 12.916C5.344 12.86 5.316 12.7853 5.316 12.692V3.522C5.316 3.41933 5.344 3.34 5.4 3.284C5.456 3.228 5.53067 3.2 5.624 3.2H8.886C9.866 3.2 10.6453 3.43333 11.224 3.9C11.812 4.36667 12.106 5.076 12.106 6.028C12.106 6.77467 11.9193 7.372 11.546 7.82C11.1727 8.268 10.6547 8.57133 9.992 8.73L12.246 12.566C12.274 12.622 12.288 12.6733 12.288 12.72C12.288 12.7947 12.26 12.86 12.204 12.916C12.148 12.972 12.0827 13 12.008 13H11.84C11.6907 13 11.5787 12.9627 11.504 12.888C11.4293 12.804 11.364 12.7153 11.308 12.622L9.082 8.856H6.198V12.692C6.198 12.7853 6.17 12.86 6.114 12.916C6.058 12.972 5.97867 13 5.876 13H5.624ZM6.198 8.016H8.816C9.628 8.016 10.23 7.85267 10.622 7.526C11.0233 7.19 11.224 6.69067 11.224 6.028C11.224 5.36533 11.0233 4.87067 10.622 4.544C10.23 4.208 9.628 4.04 8.816 4.04H6.198V8.016ZM16.0491 13.14C15.6011 13.14 15.1857 13.0467 14.8031 12.86C14.4297 12.6733 14.1264 12.426 13.8931 12.118C13.6597 11.8007 13.5431 11.446 13.5431 11.054C13.5431 10.4193 13.7997 9.91067 14.3131 9.528C14.8264 9.14533 15.4937 8.898 16.3151 8.786L18.5271 8.478V7.988C18.5271 7.49333 18.3731 7.106 18.0651 6.826C17.7664 6.53667 17.2857 6.392 16.6231 6.392C16.1377 6.392 15.7457 6.49 15.4471 6.686C15.1484 6.87267 14.9431 7.12 14.8311 7.428C14.7844 7.568 14.6957 7.638 14.5651 7.638H14.3411C14.2291 7.638 14.1497 7.61 14.1031 7.554C14.0564 7.48867 14.0331 7.414 14.0331 7.33C14.0331 7.19933 14.0797 7.036 14.1731 6.84C14.2757 6.644 14.4297 6.45267 14.6351 6.266C14.8404 6.07 15.1064 5.90667 15.4331 5.776C15.7597 5.64533 16.1564 5.58 16.6231 5.58C17.1737 5.58 17.6264 5.65467 17.9811 5.804C18.3451 5.95333 18.6251 6.14933 18.8211 6.392C19.0264 6.62533 19.1711 6.88667 19.2551 7.176C19.3391 7.46533 19.3811 7.75 19.3811 8.03V12.692C19.3811 12.7853 19.3531 12.86 19.2971 12.916C19.2411 12.972 19.1664 13 19.0731 13H18.8351C18.7417 13 18.6671 12.972 18.6111 12.916C18.5551 12.86 18.5271 12.7853 18.5271 12.692V12.034C18.4151 12.202 18.2564 12.37 18.0511 12.538C17.8457 12.706 17.5797 12.8507 17.2531 12.972C16.9357 13.084 16.5344 13.14 16.0491 13.14ZM16.1891 12.328C16.6184 12.328 17.0104 12.2347 17.3651 12.048C17.7197 11.8613 17.9997 11.5767 18.2051 11.194C18.4197 10.802 18.5271 10.312 18.5271 9.724V9.248L16.7211 9.5C15.9557 9.60267 15.3771 9.78 14.9851 10.032C14.5931 10.284 14.3971 10.6013 14.3971 10.984C14.3971 11.292 14.4857 11.544 14.6631 11.74C14.8404 11.936 15.0644 12.0853 15.3351 12.188C15.6151 12.2813 15.8997 12.328 16.1891 12.328ZM23.9766 13C23.4912 13 23.1086 12.8973 22.8286 12.692C22.5486 12.4867 22.3526 12.2067 22.2406 11.852C22.1286 11.4973 22.0726 11.1007 22.0726 10.662V6.532H20.9806C20.8872 6.532 20.8126 6.504 20.7566 6.448C20.7006 6.392 20.6726 6.31733 20.6726 6.224V6.028C20.6726 5.93467 20.7006 5.86 20.7566 5.804C20.8126 5.748 20.8872 5.72 20.9806 5.72H22.0726V3.368C22.0726 3.27467 22.1006 3.2 22.1566 3.144C22.2126 3.088 22.2872 3.06 22.3806 3.06H22.6186C22.7119 3.06 22.7866 3.088 22.8426 3.144C22.8986 3.2 22.9266 3.27467 22.9266 3.368V5.72H24.6626C24.7559 5.72 24.8306 5.748 24.8866 5.804C24.9426 5.86 24.9706 5.93467 24.9706 6.028V6.224C24.9706 6.31733 24.9426 6.392 24.8866 6.448C24.8306 6.504 24.7559 6.532 24.6626 6.532H22.9266V10.606C22.9266 11.1007 23.0059 11.488 23.1646 11.768C23.3326 12.048 23.6266 12.188 24.0466 12.188H24.8026C24.8959 12.188 24.9706 12.216 25.0266 12.272C25.0826 12.328 25.1106 12.4027 25.1106 12.496V12.692C25.1106 12.7853 25.0826 12.86 25.0266 12.916C24.9706 12.972 24.8959 13 24.8026 13H23.9766ZM29.2598 13.14C28.3545 13.14 27.6358 12.846 27.1038 12.258C26.5718 11.6607 26.2685 10.8813 26.1938 9.92C26.1845 9.78 26.1798 9.59333 26.1798 9.36C26.1798 9.12667 26.1845 8.94 26.1938 8.8C26.2405 8.16533 26.3898 7.60533 26.6418 7.12C26.8938 6.63467 27.2392 6.25667 27.6778 5.986C28.1258 5.71533 28.6532 5.58 29.2598 5.58C29.9132 5.58 30.4685 5.72467 30.9258 6.014C31.3832 6.30333 31.7332 6.71867 31.9758 7.26C32.2278 7.80133 32.3538 8.44533 32.3538 9.192V9.402C32.3538 9.49533 32.3212 9.57 32.2558 9.626C32.1998 9.682 32.1252 9.71 32.0318 9.71H27.0478C27.0478 9.71 27.0478 9.72867 27.0478 9.766C27.0478 9.80333 27.0478 9.83133 27.0478 9.85C27.0665 10.27 27.1645 10.6713 27.3418 11.054C27.5192 11.4273 27.7712 11.7353 28.0978 11.978C28.4245 12.2113 28.8118 12.328 29.2598 12.328C29.6612 12.328 29.9925 12.2673 30.2538 12.146C30.5245 12.0247 30.7392 11.894 30.8978 11.754C31.0565 11.6047 31.1592 11.4927 31.2058 11.418C31.2898 11.2967 31.3552 11.2267 31.4018 11.208C31.4485 11.18 31.5232 11.166 31.6258 11.166H31.8498C31.9338 11.166 32.0038 11.194 32.0598 11.25C32.1252 11.2967 32.1532 11.362 32.1438 11.446C32.1345 11.5767 32.0598 11.74 31.9198 11.936C31.7892 12.1227 31.5978 12.3093 31.3458 12.496C31.1032 12.6827 30.8045 12.8367 30.4498 12.958C30.0952 13.0793 29.6985 13.14 29.2598 13.14ZM27.0478 8.926H31.4998V8.87C31.4998 8.40333 31.4112 7.98333 31.2338 7.61C31.0565 7.23667 30.7998 6.94267 30.4638 6.728C30.1278 6.504 29.7265 6.392 29.2598 6.392C28.7932 6.392 28.3918 6.504 28.0558 6.728C27.7292 6.94267 27.4772 7.23667 27.2998 7.61C27.1318 7.98333 27.0478 8.40333 27.0478 8.87V8.926ZM36.8324 13.14C36.2911 13.14 35.8291 13.042 35.4464 12.846C35.0731 12.65 34.7697 12.3887 34.5364 12.062C34.3031 11.7353 34.1304 11.3713 34.0184 10.97C33.9157 10.5687 33.8551 10.1627 33.8364 9.752C33.8271 9.612 33.8224 9.48133 33.8224 9.36C33.8224 9.23867 33.8271 9.108 33.8364 8.968C33.8551 8.55733 33.9157 8.15133 34.0184 7.75C34.1304 7.34867 34.3031 6.98467 34.5364 6.658C34.7697 6.33133 35.0731 6.07 35.4464 5.874C35.8291 5.678 36.2911 5.58 36.8324 5.58C37.4111 5.58 37.8871 5.68733 38.2604 5.902C38.6431 6.11667 38.9511 6.378 39.1844 6.686V3.368C39.1844 3.27467 39.2124 3.2 39.2684 3.144C39.3244 3.088 39.3991 3.06 39.4924 3.06H39.7304C39.8237 3.06 39.8984 3.088 39.9544 3.144C40.0104 3.2 40.0384 3.27467 40.0384 3.368V12.692C40.0384 12.7853 40.0104 12.86 39.9544 12.916C39.8984 12.972 39.8237 13 39.7304 13H39.4924C39.3991 13 39.3244 12.972 39.2684 12.916C39.2124 12.86 39.1844 12.7853 39.1844 12.692V12.034C38.9511 12.3513 38.6431 12.6173 38.2604 12.832C37.8871 13.0373 37.4111 13.14 36.8324 13.14ZM36.9164 12.328C37.4484 12.328 37.8777 12.202 38.2044 11.95C38.5311 11.698 38.7737 11.3853 38.9324 11.012C39.0911 10.6293 39.1751 10.2467 39.1844 9.864C39.1937 9.724 39.1984 9.542 39.1984 9.318C39.1984 9.094 39.1937 8.912 39.1844 8.772C39.1751 8.39867 39.0864 8.03 38.9184 7.666C38.7597 7.302 38.5171 6.99867 38.1904 6.756C37.8637 6.51333 37.4391 6.392 36.9164 6.392C36.3751 6.392 35.9411 6.51333 35.6144 6.756C35.2971 6.99867 35.0684 7.316 34.9284 7.708C34.7884 8.1 34.7091 8.52 34.6904 8.968C34.6811 9.22933 34.6811 9.49067 34.6904 9.752C34.7091 10.2 34.7884 10.62 34.9284 11.012C35.0684 11.404 35.2971 11.7213 35.6144 11.964C35.9411 12.2067 36.3751 12.328 36.9164 12.328ZM46.4209 13C46.3275 13 46.2529 12.972 46.1969 12.916C46.1409 12.86 46.1129 12.7853 46.1129 12.692V3.522C46.1129 3.41933 46.1409 3.34 46.1969 3.284C46.2529 3.228 46.3275 3.2 46.4209 3.2H51.8809C51.9835 3.2 52.0629 3.228 52.1189 3.284C52.1749 3.34 52.2029 3.41933 52.2029 3.522V3.732C52.2029 3.82533 52.1749 3.9 52.1189 3.956C52.0629 4.012 51.9835 4.04 51.8809 4.04H46.9949V7.61H51.5729C51.6755 7.61 51.7549 7.638 51.8109 7.694C51.8669 7.75 51.8949 7.82933 51.8949 7.932V8.142C51.8949 8.23533 51.8669 8.31 51.8109 8.366C51.7549 8.422 51.6755 8.45 51.5729 8.45H46.9949V12.16H51.9929C52.0955 12.16 52.1749 12.188 52.2309 12.244C52.2869 12.3 52.3149 12.3793 52.3149 12.482V12.692C52.3149 12.7853 52.2869 12.86 52.2309 12.916C52.1749 12.972 52.0955 13 51.9929 13H46.4209ZM53.852 13C53.7774 13 53.712 12.972 53.656 12.916C53.6 12.86 53.572 12.7947 53.572 12.72C53.572 12.6827 53.5767 12.6453 53.586 12.608C53.6047 12.5613 53.6374 12.5053 53.684 12.44L56.148 9.276L53.81 6.28C53.7634 6.21467 53.7307 6.16333 53.712 6.126C53.7027 6.07933 53.698 6.03733 53.698 6C53.698 5.92533 53.726 5.86 53.782 5.804C53.838 5.748 53.9034 5.72 53.978 5.72H54.272C54.3654 5.72 54.4354 5.74333 54.482 5.79C54.538 5.83667 54.5847 5.88333 54.622 5.93L56.722 8.632L58.822 5.944C58.8687 5.89733 58.9154 5.85067 58.962 5.804C59.0087 5.748 59.0787 5.72 59.172 5.72H59.452C59.5267 5.72 59.592 5.748 59.648 5.804C59.704 5.86 59.732 5.92533 59.732 6C59.732 6.03733 59.7227 6.07933 59.704 6.126C59.6947 6.16333 59.6667 6.21467 59.62 6.28L57.254 9.318L59.718 12.44C59.7647 12.5053 59.7927 12.5613 59.802 12.608C59.8207 12.6453 59.83 12.6827 59.83 12.72C59.83 12.7947 59.802 12.86 59.746 12.916C59.69 12.972 59.6247 13 59.55 13H59.256C59.1627 13 59.088 12.9767 59.032 12.93C58.9854 12.8833 58.9434 12.8367 58.906 12.79L56.694 9.962L54.482 12.79C54.4447 12.8367 54.398 12.8833 54.342 12.93C54.2954 12.9767 54.2254 13 54.132 13H53.852ZM64.0561 13.14C63.4027 13.14 62.8474 13.014 62.3901 12.762C61.9327 12.5007 61.5827 12.1273 61.3401 11.642C61.1067 11.1567 60.9807 10.5827 60.9621 9.92C60.9527 9.78 60.9481 9.59333 60.9481 9.36C60.9481 9.12667 60.9527 8.94 60.9621 8.8C60.9807 8.128 61.1067 7.554 61.3401 7.078C61.5827 6.59267 61.9327 6.224 62.3901 5.972C62.8474 5.71067 63.4027 5.58 64.0561 5.58C64.5507 5.58 64.9754 5.65 65.3301 5.79C65.6941 5.92067 65.9927 6.098 66.2261 6.322C66.4594 6.53667 66.6367 6.77467 66.7581 7.036C66.8794 7.29733 66.9447 7.554 66.9541 7.806C66.9634 7.89933 66.9354 7.974 66.8701 8.03C66.8047 8.086 66.7301 8.114 66.6461 8.114H66.4501C66.3567 8.114 66.2867 8.09533 66.2401 8.058C66.2027 8.01133 66.1607 7.932 66.1141 7.82C65.9181 7.288 65.6474 6.91933 65.3021 6.714C64.9661 6.49933 64.5507 6.392 64.0561 6.392C63.4214 6.392 62.8941 6.588 62.4741 6.98C62.0634 7.36267 61.8441 7.99267 61.8161 8.87C61.7974 9.19667 61.7974 9.52333 61.8161 9.85C61.8441 10.7273 62.0634 11.362 62.4741 11.754C62.8941 12.1367 63.4214 12.328 64.0561 12.328C64.5507 12.328 64.9661 12.2253 65.3021 12.02C65.6474 11.8053 65.9181 11.432 66.1141 10.9C66.1607 10.788 66.2027 10.7133 66.2401 10.676C66.2867 10.6293 66.3567 10.606 66.4501 10.606H66.6461C66.7301 10.606 66.8047 10.634 66.8701 10.69C66.9354 10.746 66.9634 10.8207 66.9541 10.914C66.9447 11.1193 66.9027 11.3247 66.8281 11.53C66.7534 11.7353 66.6367 11.936 66.4781 12.132C66.3287 12.328 66.1421 12.5007 65.9181 12.65C65.6941 12.7993 65.4234 12.916 65.1061 13C64.7981 13.0933 64.4481 13.14 64.0561 13.14ZM71.5059 13.14C70.6006 13.14 69.8819 12.846 69.3499 12.258C68.8179 11.6607 68.5146 10.8813 68.4399 9.92C68.4306 9.78 68.4259 9.59333 68.4259 9.36C68.4259 9.12667 68.4306 8.94 68.4399 8.8C68.4866 8.16533 68.6359 7.60533 68.8879 7.12C69.1399 6.63467 69.4853 6.25667 69.9239 5.986C70.3719 5.71533 70.8993 5.58 71.5059 5.58C72.1593 5.58 72.7146 5.72467 73.1719 6.014C73.6293 6.30333 73.9793 6.71867 74.2219 7.26C74.4739 7.80133 74.5999 8.44533 74.5999 9.192V9.402C74.5999 9.49533 74.5673 9.57 74.5019 9.626C74.4459 9.682 74.3713 9.71 74.2779 9.71H69.2939C69.2939 9.71 69.2939 9.72867 69.2939 9.766C69.2939 9.80333 69.2939 9.83133 69.2939 9.85C69.3126 10.27 69.4106 10.6713 69.5879 11.054C69.7653 11.4273 70.0173 11.7353 70.3439 11.978C70.6706 12.2113 71.0579 12.328 71.5059 12.328C71.9073 12.328 72.2386 12.2673 72.4999 12.146C72.7706 12.0247 72.9853 11.894 73.1439 11.754C73.3026 11.6047 73.4053 11.4927 73.4519 11.418C73.5359 11.2967 73.6013 11.2267 73.6479 11.208C73.6946 11.18 73.7693 11.166 73.8719 11.166H74.0959C74.1799 11.166 74.2499 11.194 74.3059 11.25C74.3713 11.2967 74.3993 11.362 74.3899 11.446C74.3806 11.5767 74.3059 11.74 74.1659 11.936C74.0353 12.1227 73.8439 12.3093 73.5919 12.496C73.3493 12.6827 73.0506 12.8367 72.6959 12.958C72.3413 13.0793 71.9446 13.14 71.5059 13.14ZM69.2939 8.926H73.7459V8.87C73.7459 8.40333 73.6573 7.98333 73.4799 7.61C73.3026 7.23667 73.0459 6.94267 72.7099 6.728C72.3739 6.504 71.9726 6.392 71.5059 6.392C71.0393 6.392 70.6379 6.504 70.3019 6.728C69.9753 6.94267 69.7233 7.23667 69.5459 7.61C69.3779 7.98333 69.2939 8.40333 69.2939 8.87V8.926ZM76.7685 13C76.6752 13 76.6005 12.972 76.5445 12.916C76.4885 12.86 76.4605 12.7853 76.4605 12.692V3.368C76.4605 3.27467 76.4885 3.2 76.5445 3.144C76.6005 3.088 76.6752 3.06 76.7685 3.06H77.0065C77.0998 3.06 77.1745 3.088 77.2305 3.144C77.2865 3.2 77.3145 3.27467 77.3145 3.368V12.692C77.3145 12.7853 77.2865 12.86 77.2305 12.916C77.1745 12.972 77.0998 13 77.0065 13H76.7685ZM79.913 13C79.8197 13 79.745 12.972 79.689 12.916C79.633 12.86 79.605 12.7853 79.605 12.692V3.368C79.605 3.27467 79.633 3.2 79.689 3.144C79.745 3.088 79.8197 3.06 79.913 3.06H80.151C80.2444 3.06 80.319 3.088 80.375 3.144C80.431 3.2 80.459 3.27467 80.459 3.368V12.692C80.459 12.7853 80.431 12.86 80.375 12.916C80.319 12.972 80.2444 13 80.151 13H79.913ZM85.4376 13.14C84.5322 13.14 83.8136 12.846 83.2816 12.258C82.7496 11.6607 82.4462 10.8813 82.3716 9.92C82.3622 9.78 82.3576 9.59333 82.3576 9.36C82.3576 9.12667 82.3622 8.94 82.3716 8.8C82.4182 8.16533 82.5676 7.60533 82.8196 7.12C83.0716 6.63467 83.4169 6.25667 83.8556 5.986C84.3036 5.71533 84.8309 5.58 85.4376 5.58C86.0909 5.58 86.6462 5.72467 87.1036 6.014C87.5609 6.30333 87.9109 6.71867 88.1536 7.26C88.4056 7.80133 88.5316 8.44533 88.5316 9.192V9.402C88.5316 9.49533 88.4989 9.57 88.4336 9.626C88.3776 9.682 88.3029 9.71 88.2096 9.71H83.2256C83.2256 9.71 83.2256 9.72867 83.2256 9.766C83.2256 9.80333 83.2256 9.83133 83.2256 9.85C83.2442 10.27 83.3422 10.6713 83.5196 11.054C83.6969 11.4273 83.9489 11.7353 84.2756 11.978C84.6022 12.2113 84.9896 12.328 85.4376 12.328C85.8389 12.328 86.1702 12.2673 86.4316 12.146C86.7022 12.0247 86.9169 11.894 87.0756 11.754C87.2342 11.6047 87.3369 11.4927 87.3836 11.418C87.4676 11.2967 87.5329 11.2267 87.5796 11.208C87.6262 11.18 87.7009 11.166 87.8036 11.166H88.0276C88.1116 11.166 88.1816 11.194 88.2376 11.25C88.3029 11.2967 88.3309 11.362 88.3216 11.446C88.3122 11.5767 88.2376 11.74 88.0976 11.936C87.9669 12.1227 87.7756 12.3093 87.5236 12.496C87.2809 12.6827 86.9822 12.8367 86.6276 12.958C86.2729 13.0793 85.8762 13.14 85.4376 13.14ZM83.2256 8.926H87.6776V8.87C87.6776 8.40333 87.5889 7.98333 87.4116 7.61C87.2342 7.23667 86.9776 6.94267 86.6416 6.728C86.3056 6.504 85.9042 6.392 85.4376 6.392C84.9709 6.392 84.5696 6.504 84.2336 6.728C83.9069 6.94267 83.6549 7.23667 83.4776 7.61C83.3096 7.98333 83.2256 8.40333 83.2256 8.87V8.926ZM90.6861 13C90.5928 13 90.5181 12.972 90.4621 12.916C90.4061 12.86 90.3781 12.7853 90.3781 12.692V6.028C90.3781 5.93467 90.4061 5.86 90.4621 5.804C90.5181 5.748 90.5928 5.72 90.6861 5.72H90.9241C91.0175 5.72 91.0921 5.748 91.1481 5.804C91.2041 5.86 91.2321 5.93467 91.2321 6.028V6.686C91.4841 6.35933 91.7875 6.09333 92.1421 5.888C92.5061 5.68267 92.9868 5.58 93.5841 5.58C94.2188 5.58 94.7461 5.72 95.1661 6C95.5955 6.27067 95.9128 6.644 96.1181 7.12C96.3328 7.58667 96.4401 8.11867 96.4401 8.716V12.692C96.4401 12.7853 96.4121 12.86 96.3561 12.916C96.3001 12.972 96.2255 13 96.1321 13H95.8941C95.8008 13 95.7261 12.972 95.6701 12.916C95.6141 12.86 95.5861 12.7853 95.5861 12.692V8.786C95.5861 8.03933 95.4041 7.456 95.0401 7.036C94.6761 6.60667 94.1441 6.392 93.4441 6.392C92.7815 6.392 92.2448 6.60667 91.8341 7.036C91.4328 7.456 91.2321 8.03933 91.2321 8.786V12.692C91.2321 12.7853 91.2041 12.86 91.1481 12.916C91.0921 12.972 91.0175 13 90.9241 13H90.6861ZM100.977 13C100.491 13 100.109 12.8973 99.8286 12.692C99.5486 12.4867 99.3526 12.2067 99.2406 11.852C99.1286 11.4973 99.0726 11.1007 99.0726 10.662V6.532H97.9806C97.8872 6.532 97.8126 6.504 97.7566 6.448C97.7006 6.392 97.6726 6.31733 97.6726 6.224V6.028C97.6726 5.93467 97.7006 5.86 97.7566 5.804C97.8126 5.748 97.8872 5.72 97.9806 5.72H99.0726V3.368C99.0726 3.27467 99.1006 3.2 99.1566 3.144C99.2126 3.088 99.2872 3.06 99.3806 3.06H99.6186C99.7119 3.06 99.7866 3.088 99.8426 3.144C99.8986 3.2 99.9266 3.27467 99.9266 3.368V5.72H101.663C101.756 5.72 101.831 5.748 101.887 5.804C101.943 5.86 101.971 5.93467 101.971 6.028V6.224C101.971 6.31733 101.943 6.392 101.887 6.448C101.831 6.504 101.756 6.532 101.663 6.532H99.9266V10.606C99.9266 11.1007 100.006 11.488 100.165 11.768C100.333 12.048 100.627 12.188 101.047 12.188H101.803C101.896 12.188 101.971 12.216 102.027 12.272C102.083 12.328 102.111 12.4027 102.111 12.496V12.692C102.111 12.7853 102.083 12.86 102.027 12.916C101.971 12.972 101.896 13 101.803 13H100.977ZM109.939 13.14C109.267 13.14 108.703 13 108.245 12.72C107.797 12.44 107.452 12.0573 107.209 11.572C106.976 11.0867 106.85 10.5453 106.831 9.948C106.822 9.808 106.817 9.612 106.817 9.36C106.817 9.108 106.822 8.912 106.831 8.772C106.85 8.16533 106.976 7.624 107.209 7.148C107.452 6.66267 107.797 6.28 108.245 6C108.703 5.72 109.267 5.58 109.939 5.58C110.611 5.58 111.171 5.72 111.619 6C112.077 6.28 112.422 6.66267 112.655 7.148C112.898 7.624 113.029 8.16533 113.047 8.772C113.057 8.912 113.061 9.108 113.061 9.36C113.061 9.612 113.057 9.808 113.047 9.948C113.029 10.5453 112.898 11.0867 112.655 11.572C112.422 12.0573 112.077 12.44 111.619 12.72C111.171 13 110.611 13.14 109.939 13.14ZM109.939 12.328C110.593 12.328 111.125 12.118 111.535 11.698C111.946 11.278 112.165 10.6713 112.193 9.878C112.203 9.738 112.207 9.56533 112.207 9.36C112.207 9.15467 112.203 8.982 112.193 8.842C112.165 8.03933 111.946 7.43267 111.535 7.022C111.125 6.602 110.593 6.392 109.939 6.392C109.286 6.392 108.754 6.602 108.343 7.022C107.933 7.43267 107.713 8.03933 107.685 8.842C107.676 8.982 107.671 9.15467 107.671 9.36C107.671 9.56533 107.676 9.738 107.685 9.878C107.713 10.6713 107.933 11.278 108.343 11.698C108.754 12.118 109.286 12.328 109.939 12.328ZM115.282 13C115.189 13 115.114 12.972 115.058 12.916C115.002 12.86 114.974 12.7853 114.974 12.692V6.028C114.974 5.93467 115.002 5.86 115.058 5.804C115.114 5.748 115.189 5.72 115.282 5.72H115.52C115.613 5.72 115.688 5.748 115.744 5.804C115.8 5.86 115.828 5.93467 115.828 6.028V6.686C116.08 6.35933 116.383 6.09333 116.738 5.888C117.102 5.68267 117.583 5.58 118.18 5.58C118.815 5.58 119.342 5.72 119.762 6C120.191 6.27067 120.509 6.644 120.714 7.12C120.929 7.58667 121.036 8.11867 121.036 8.716V12.692C121.036 12.7853 121.008 12.86 120.952 12.916C120.896 12.972 120.821 13 120.728 13H120.49C120.397 13 120.322 12.972 120.266 12.916C120.21 12.86 120.182 12.7853 120.182 12.692V8.786C120.182 8.03933 120 7.456 119.636 7.036C119.272 6.60667 118.74 6.392 118.04 6.392C117.377 6.392 116.841 6.60667 116.43 7.036C116.029 7.456 115.828 8.03933 115.828 8.786V12.692C115.828 12.7853 115.8 12.86 115.744 12.916C115.688 12.972 115.613 13 115.52 13H115.282Z" fill="white" fill-opacity="0.6"/>
<path fill-rule="evenodd" clip-rule="evenodd" d="M295.596 31.6773C296.404 29.0758 300.276 23.8244 301.844 23.2046C302.865 22.8011 303.227 22.9302 304.569 24.1772C305.723 25.2499 305.906 25.6069 305.934 26.8403C305.962 28.0899 305.886 28.2536 305.318 28.1709C303.002 27.8347 302.328 27.7206 301.889 27.99C301.685 28.1155 301.532 28.3243 301.288 28.6325C300.551 29.5651 297.931 34.7804 297.559 36.0571C297.359 36.744 297.389 36.7476 304.312 36.8673C308.136 36.9332 311.369 37.0913 311.496 37.2185C311.841 37.5623 310.997 38.4336 310.32 38.4336C309.995 38.4336 309.638 38.5824 309.525 38.7641C309.214 39.2654 309.689 41.016 310.136 41.016C310.352 41.016 311.683 40.2897 313.094 39.402C316.074 37.5275 317.574 37.2802 318.162 38.5659C318.643 39.6173 318.189 40.2106 314.854 42.8896C313.373 44.0785 312.105 45.2319 312.035 45.453C311.965 45.6741 312.367 46.3129 312.929 46.8727L313.95 47.8905L314.523 46.955C315.285 45.7086 316.13 45.0369 316.474 45.4036C316.991 45.9566 315.858 48.7259 314.557 50.0881C313.465 51.2315 313.154 51.391 312.379 51.2015C311.881 51.0798 310.955 50.3848 310.321 49.6575C309.239 48.416 309.107 48.3556 308.179 48.6775C307.636 48.8663 306.504 49.5439 305.663 50.1834C304.822 50.8225 303.796 51.3458 303.383 51.3458C301.699 51.3458 302.234 49.4658 304.659 46.8565C306.992 44.3474 307.287 43.2582 306.03 41.8027L305.285 40.9395L303.635 42.592C301.536 44.6941 300.269 44.8355 301.315 42.8508C301.519 42.4632 302.262 41.4557 302.965 40.6125L304.244 39.0792H303.385C301.673 39.0792 297.848 39.7923 297.138 40.2435C296.281 40.7884 296.127 41.1371 292.994 49.6549C290.293 56.9965 289.879 57.9136 288.695 59.1738C287.363 60.5916 285.631 60.1487 284.579 58.1212C283.834 56.6856 283.953 56.1879 285.043 56.1879C285.668 56.1879 286.208 55.9135 286.627 55.3831C287.258 54.5845 290.066 47.3027 291.037 43.9516C291.562 42.1384 291.356 41.3388 290.366 41.3388C289.568 41.3388 289.149 39.9172 289.648 38.9036C290.111 37.9629 290.508 37.6598 291.928 37.1595C292.779 36.8592 295.034 33.4895 295.596 31.6773ZM330.213 50.5414C329.262 50.5414 328.462 50.3881 327.81 50.0816C327.177 49.757 326.64 49.3333 326.2 48.8104V49.5677C326.2 49.766 326.13 49.9373 325.989 50.0816C325.866 50.2078 325.707 50.2709 325.514 50.2709H321.792C321.598 50.2709 321.431 50.2078 321.29 50.0816C321.167 49.9373 321.105 49.766 321.105 49.5677V31.7709C321.105 31.5725 321.167 31.4103 321.29 31.284C321.431 31.1398 321.598 31.0677 321.792 31.0677H325.857C326.033 31.0677 326.191 31.1398 326.332 31.284C326.473 31.4103 326.543 31.5725 326.543 31.7709V37.3696C326.966 36.9368 327.476 36.5942 328.074 36.3418C328.69 36.0713 329.403 35.9361 330.213 35.9361C331.04 35.9361 331.788 36.0803 332.457 36.3688C333.125 36.6393 333.706 37.036 334.199 37.5589C334.692 38.0818 335.079 38.7399 335.36 39.5333C335.642 40.3087 335.8 41.2012 335.836 42.2109C335.853 42.5896 335.862 42.9232 335.862 43.2117C335.862 43.5002 335.853 43.8428 335.836 44.2395C335.783 45.3033 335.616 46.2319 335.334 47.0253C335.052 47.8186 334.665 48.4768 334.172 48.9997C333.68 49.5226 333.099 49.9103 332.43 50.1627C331.779 50.4151 331.04 50.5414 330.213 50.5414ZM328.418 46.3221C328.875 46.3221 329.227 46.2319 329.474 46.0516C329.738 45.8532 329.922 45.5918 330.028 45.2672C330.151 44.9246 330.23 44.537 330.265 44.1042C330.318 43.5272 330.318 42.9502 330.265 42.3732C330.23 41.9405 330.151 41.5618 330.028 41.2373C329.922 40.8947 329.738 40.6332 329.474 40.4529C329.227 40.2546 328.875 40.1554 328.418 40.1554C327.978 40.1554 327.626 40.2455 327.362 40.4259C327.098 40.6062 326.895 40.8406 326.755 41.1291C326.631 41.4176 326.561 41.7511 326.543 42.1298C326.526 42.5085 326.517 42.842 326.517 43.1305C326.517 43.419 326.526 43.7616 326.543 44.1583C326.561 44.555 326.623 44.9156 326.728 45.2402C326.851 45.5647 327.045 45.8262 327.309 46.0245C327.59 46.2229 327.96 46.3221 328.418 46.3221ZM345.061 50.5414C343.513 50.5414 342.202 50.3069 341.128 49.8381C340.072 49.3693 339.263 48.6841 338.699 47.7826C338.136 46.863 337.819 45.7631 337.749 44.4829C337.731 44.1042 337.723 43.6895 337.723 43.2387C337.723 42.7879 337.731 42.3732 337.749 41.9946C337.819 40.6963 338.154 39.5964 338.752 38.6949C339.351 37.7933 340.178 37.1081 341.234 36.6393C342.307 36.1705 343.583 35.9361 345.061 35.9361C346.54 35.9361 347.807 36.1705 348.863 36.6393C349.936 37.1081 350.772 37.7933 351.371 38.6949C351.969 39.5964 352.303 40.6963 352.374 41.9946C352.409 42.3732 352.427 42.7879 352.427 43.2387C352.427 43.6895 352.409 44.1042 352.374 44.4829C352.303 45.7631 351.987 46.863 351.423 47.7826C350.86 48.6841 350.042 49.3693 348.968 49.8381C347.912 50.3069 346.61 50.5414 345.061 50.5414ZM345.061 46.7278C345.713 46.7278 346.161 46.5294 346.408 46.1327C346.654 45.736 346.795 45.141 346.83 44.3476C346.848 44.0772 346.856 43.7075 346.856 43.2387C346.856 42.7699 346.848 42.4003 346.83 42.1298C346.795 41.3545 346.654 40.7684 346.408 40.3718C346.161 39.957 345.713 39.7497 345.061 39.7497C344.428 39.7497 343.988 39.957 343.741 40.3718C343.495 40.7684 343.345 41.3545 343.293 42.1298C343.275 42.4003 343.266 42.7699 343.266 43.2387C343.266 43.7075 343.275 44.0772 343.293 44.3476C343.345 45.141 343.495 45.736 343.741 46.1327C343.988 46.5294 344.428 46.7278 345.061 46.7278ZM357.653 49.8381C358.726 50.3069 360.037 50.5414 361.586 50.5414C363.135 50.5414 364.437 50.3069 365.493 49.8381C366.567 49.3693 367.385 48.6841 367.948 47.7826C368.511 46.863 368.828 45.7631 368.898 44.4829C368.934 44.1042 368.951 43.6895 368.951 43.2387C368.951 42.7879 368.934 42.3732 368.898 41.9946C368.828 40.6963 368.494 39.5964 367.895 38.6949C367.297 37.7933 366.461 37.1081 365.387 36.6393C364.332 36.1705 363.064 35.9361 361.586 35.9361C360.108 35.9361 358.832 36.1705 357.758 36.6393C356.702 37.1081 355.875 37.7933 355.277 38.6949C354.679 39.5964 354.344 40.6963 354.274 41.9946C354.256 42.3732 354.247 42.7879 354.247 43.2387C354.247 43.6895 354.256 44.1042 354.274 44.4829C354.344 45.7631 354.661 46.863 355.224 47.7826C355.787 48.6841 356.597 49.3693 357.653 49.8381ZM362.932 46.1327C362.686 46.5294 362.237 46.7278 361.586 46.7278C360.953 46.7278 360.513 46.5294 360.266 46.1327C360.02 45.736 359.87 45.141 359.817 44.3476C359.8 44.0772 359.791 43.7075 359.791 43.2387C359.791 42.7699 359.8 42.4003 359.817 42.1298C359.87 41.3545 360.02 40.7684 360.266 40.3718C360.513 39.957 360.953 39.7497 361.586 39.7497C362.237 39.7497 362.686 39.957 362.932 40.3718C363.179 40.7684 363.32 41.3545 363.355 42.1298C363.372 42.4003 363.381 42.7699 363.381 43.2387C363.381 43.7075 363.372 44.0772 363.355 44.3476C363.32 45.141 363.179 45.736 362.932 46.1327ZM371.907 50.2709C371.714 50.2709 371.546 50.2078 371.406 50.0816C371.283 49.9373 371.221 49.766 371.221 49.5677V31.7709C371.221 31.5725 371.283 31.4103 371.406 31.284C371.546 31.1398 371.714 31.0677 371.907 31.0677H375.735C375.929 31.0677 376.087 31.1398 376.21 31.284C376.351 31.4103 376.421 31.5725 376.421 31.7709V40.6963L379.431 36.6664C379.501 36.5762 379.598 36.477 379.721 36.3688C379.844 36.2607 380.02 36.2066 380.249 36.2066H384.684C384.86 36.2066 385.001 36.2697 385.106 36.3959C385.23 36.5041 385.291 36.6483 385.291 36.8286C385.291 36.9008 385.274 36.9819 385.238 37.0721C385.221 37.1622 385.186 37.2253 385.133 37.2614L380.936 42.5355L385.793 49.2431C385.881 49.3874 385.925 49.5226 385.925 49.6488C385.925 49.8291 385.863 49.9824 385.74 50.1086C385.634 50.2168 385.494 50.2709 385.318 50.2709H380.724C380.46 50.2709 380.267 50.2168 380.144 50.1086C380.038 49.9824 379.941 49.8832 379.853 49.8111L376.421 44.9427V49.5677C376.421 49.766 376.351 49.9373 376.21 50.0816C376.087 50.2078 375.929 50.2709 375.735 50.2709H371.907ZM251.634 50.2367C251.455 50.2367 251.301 50.1817 251.171 50.0718C251.057 49.9461 251 49.7968 251 49.624V38.5951C251 38.4223 251.057 38.2809 251.171 38.1709C251.301 38.0452 251.455 37.9824 251.634 37.9824H254.972C255.151 37.9824 255.297 38.0452 255.411 38.1709C255.541 38.2809 255.606 38.4223 255.606 38.5951V39.3728C255.914 38.9957 256.361 38.6422 256.946 38.3123C257.531 37.9667 258.221 37.7781 259.017 37.7467C260.918 37.6996 262.202 38.3594 262.868 39.7263C263.241 39.1607 263.769 38.6894 264.452 38.3123C265.15 37.9352 265.89 37.7467 266.669 37.7467C267.514 37.7467 268.27 37.9352 268.936 38.3123C269.618 38.6736 270.162 39.2392 270.569 40.0091C270.975 40.7632 271.178 41.7529 271.178 42.9784V49.624C271.178 49.7968 271.113 49.9461 270.983 50.0718C270.869 50.1817 270.723 50.2367 270.544 50.2367H266.986C266.808 50.2367 266.653 50.1817 266.523 50.0718C266.41 49.9461 266.353 49.7968 266.353 49.624V43.1198C266.353 42.7113 266.288 42.3892 266.158 42.1536C266.028 41.9022 265.857 41.7215 265.646 41.6116C265.451 41.4859 265.215 41.423 264.939 41.423C264.679 41.423 264.444 41.4859 264.233 41.6116C264.021 41.7215 263.851 41.9022 263.721 42.1536C263.607 42.3892 263.55 42.7113 263.55 43.1198V49.624C263.55 49.7968 263.485 49.9461 263.355 50.0718C263.241 50.1817 263.095 50.2367 262.917 50.2367H259.359C259.18 50.2367 259.026 50.1817 258.896 50.0718C258.782 49.9461 258.725 49.7968 258.725 49.624V43.1198C258.725 42.7113 258.66 42.3892 258.53 42.1536C258.4 41.9022 258.23 41.7215 258.018 41.6116C257.823 41.4859 257.588 41.423 257.312 41.423C257.052 41.423 256.816 41.4859 256.605 41.6116C256.394 41.7372 256.223 41.9179 256.093 42.1536C255.963 42.3892 255.898 42.7113 255.898 43.1198V49.624C255.898 49.7968 255.833 49.9461 255.703 50.0718C255.59 50.1817 255.443 50.2367 255.265 50.2367H251.634ZM275.545 54.7143C275.399 54.7143 275.269 54.6672 275.155 54.5729C275.058 54.4786 275.009 54.3608 275.009 54.2194V54.1016C275.025 54.0544 275.042 53.9994 275.058 53.9366L277.008 49.4826L272.304 38.7601C272.272 38.6658 272.256 38.5872 272.256 38.5244C272.288 38.383 272.353 38.2573 272.45 38.1473C272.564 38.0374 272.694 37.9824 272.84 37.9824H276.276C276.52 37.9824 276.691 38.0452 276.788 38.1709C276.902 38.2809 276.983 38.3909 277.032 38.5008L279.42 44.628L281.881 38.5008C281.946 38.3751 282.036 38.2573 282.149 38.1473C282.263 38.0374 282.434 37.9824 282.661 37.9824H286.073C286.203 37.9824 286.325 38.0374 286.438 38.1473C286.552 38.2416 286.609 38.3516 286.609 38.4773C286.609 38.5715 286.593 38.6658 286.56 38.7601L279.688 54.1958C279.623 54.3215 279.526 54.4393 279.396 54.5493C279.282 54.6593 279.111 54.7143 278.884 54.7143H275.545Z" fill="white"/>
<path d="M252.624 13C252.531 13 252.456 12.972 252.4 12.916C252.344 12.86 252.316 12.7853 252.316 12.692V3.522C252.316 3.41933 252.344 3.34 252.4 3.284C252.456 3.228 252.531 3.2 252.624 3.2H255.886C256.866 3.2 257.645 3.43333 258.224 3.9C258.812 4.36667 259.106 5.076 259.106 6.028C259.106 6.77467 258.919 7.372 258.546 7.82C258.173 8.268 257.655 8.57133 256.992 8.73L259.246 12.566C259.274 12.622 259.288 12.6733 259.288 12.72C259.288 12.7947 259.26 12.86 259.204 12.916C259.148 12.972 259.083 13 259.008 13H258.84C258.691 13 258.579 12.9627 258.504 12.888C258.429 12.804 258.364 12.7153 258.308 12.622L256.082 8.856H253.198V12.692C253.198 12.7853 253.17 12.86 253.114 12.916C253.058 12.972 252.979 13 252.876 13H252.624ZM253.198 8.016H255.816C256.628 8.016 257.23 7.85267 257.622 7.526C258.023 7.19 258.224 6.69067 258.224 6.028C258.224 5.36533 258.023 4.87067 257.622 4.544C257.23 4.208 256.628 4.04 255.816 4.04H253.198V8.016ZM263.049 13.14C262.601 13.14 262.186 13.0467 261.803 12.86C261.43 12.6733 261.126 12.426 260.893 12.118C260.66 11.8007 260.543 11.446 260.543 11.054C260.543 10.4193 260.8 9.91067 261.313 9.528C261.826 9.14533 262.494 8.898 263.315 8.786L265.527 8.478V7.988C265.527 7.49333 265.373 7.106 265.065 6.826C264.766 6.53667 264.286 6.392 263.623 6.392C263.138 6.392 262.746 6.49 262.447 6.686C262.148 6.87267 261.943 7.12 261.831 7.428C261.784 7.568 261.696 7.638 261.565 7.638H261.341C261.229 7.638 261.15 7.61 261.103 7.554C261.056 7.48867 261.033 7.414 261.033 7.33C261.033 7.19933 261.08 7.036 261.173 6.84C261.276 6.644 261.43 6.45267 261.635 6.266C261.84 6.07 262.106 5.90667 262.433 5.776C262.76 5.64533 263.156 5.58 263.623 5.58C264.174 5.58 264.626 5.65467 264.981 5.804C265.345 5.95333 265.625 6.14933 265.821 6.392C266.026 6.62533 266.171 6.88667 266.255 7.176C266.339 7.46533 266.381 7.75 266.381 8.03V12.692C266.381 12.7853 266.353 12.86 266.297 12.916C266.241 12.972 266.166 13 266.073 13H265.835C265.742 13 265.667 12.972 265.611 12.916C265.555 12.86 265.527 12.7853 265.527 12.692V12.034C265.415 12.202 265.256 12.37 265.051 12.538C264.846 12.706 264.58 12.8507 264.253 12.972C263.936 13.084 263.534 13.14 263.049 13.14ZM263.189 12.328C263.618 12.328 264.01 12.2347 264.365 12.048C264.72 11.8613 265 11.5767 265.205 11.194C265.42 10.802 265.527 10.312 265.527 9.724V9.248L263.721 9.5C262.956 9.60267 262.377 9.78 261.985 10.032C261.593 10.284 261.397 10.6013 261.397 10.984C261.397 11.292 261.486 11.544 261.663 11.74C261.84 11.936 262.064 12.0853 262.335 12.188C262.615 12.2813 262.9 12.328 263.189 12.328ZM270.977 13C270.491 13 270.109 12.8973 269.829 12.692C269.549 12.4867 269.353 12.2067 269.241 11.852C269.129 11.4973 269.073 11.1007 269.073 10.662V6.532H267.981C267.887 6.532 267.813 6.504 267.757 6.448C267.701 6.392 267.673 6.31733 267.673 6.224V6.028C267.673 5.93467 267.701 5.86 267.757 5.804C267.813 5.748 267.887 5.72 267.981 5.72H269.073V3.368C269.073 3.27467 269.101 3.2 269.157 3.144C269.213 3.088 269.287 3.06 269.381 3.06H269.619C269.712 3.06 269.787 3.088 269.843 3.144C269.899 3.2 269.927 3.27467 269.927 3.368V5.72H271.663C271.756 5.72 271.831 5.748 271.887 5.804C271.943 5.86 271.971 5.93467 271.971 6.028V6.224C271.971 6.31733 271.943 6.392 271.887 6.448C271.831 6.504 271.756 6.532 271.663 6.532H269.927V10.606C269.927 11.1007 270.006 11.488 270.165 11.768C270.333 12.048 270.627 12.188 271.047 12.188H271.803C271.896 12.188 271.971 12.216 272.027 12.272C272.083 12.328 272.111 12.4027 272.111 12.496V12.692C272.111 12.7853 272.083 12.86 272.027 12.916C271.971 12.972 271.896 13 271.803 13H270.977ZM276.26 13.14C275.354 13.14 274.636 12.846 274.104 12.258C273.572 11.6607 273.268 10.8813 273.194 9.92C273.184 9.78 273.18 9.59333 273.18 9.36C273.18 9.12667 273.184 8.94 273.194 8.8C273.24 8.16533 273.39 7.60533 273.642 7.12C273.894 6.63467 274.239 6.25667 274.678 5.986C275.126 5.71533 275.653 5.58 276.26 5.58C276.913 5.58 277.468 5.72467 277.926 6.014C278.383 6.30333 278.733 6.71867 278.976 7.26C279.228 7.80133 279.354 8.44533 279.354 9.192V9.402C279.354 9.49533 279.321 9.57 279.256 9.626C279.2 9.682 279.125 9.71 279.032 9.71H274.048C274.048 9.71 274.048 9.72867 274.048 9.766C274.048 9.80333 274.048 9.83133 274.048 9.85C274.066 10.27 274.164 10.6713 274.342 11.054C274.519 11.4273 274.771 11.7353 275.098 11.978C275.424 12.2113 275.812 12.328 276.26 12.328C276.661 12.328 276.992 12.2673 277.254 12.146C277.524 12.0247 277.739 11.894 277.898 11.754C278.056 11.6047 278.159 11.4927 278.206 11.418C278.29 11.2967 278.355 11.2267 278.402 11.208C278.448 11.18 278.523 11.166 278.626 11.166H278.85C278.934 11.166 279.004 11.194 279.06 11.25C279.125 11.2967 279.153 11.362 279.144 11.446C279.134 11.5767 279.06 11.74 278.92 11.936C278.789 12.1227 278.598 12.3093 278.346 12.496C278.103 12.6827 277.804 12.8367 277.45 12.958C277.095 13.0793 276.698 13.14 276.26 13.14ZM274.048 8.926H278.5V8.87C278.5 8.40333 278.411 7.98333 278.234 7.61C278.056 7.23667 277.8 6.94267 277.464 6.728C277.128 6.504 276.726 6.392 276.26 6.392C275.793 6.392 275.392 6.504 275.056 6.728C274.729 6.94267 274.477 7.23667 274.3 7.61C274.132 7.98333 274.048 8.40333 274.048 8.87V8.926ZM283.832 13.14C283.291 13.14 282.829 13.042 282.446 12.846C282.073 12.65 281.77 12.3887 281.536 12.062C281.303 11.7353 281.13 11.3713 281.018 10.97C280.916 10.5687 280.855 10.1627 280.836 9.752C280.827 9.612 280.822 9.48133 280.822 9.36C280.822 9.23867 280.827 9.108 280.836 8.968C280.855 8.55733 280.916 8.15133 281.018 7.75C281.13 7.34867 281.303 6.98467 281.536 6.658C281.77 6.33133 282.073 6.07 282.446 5.874C282.829 5.678 283.291 5.58 283.832 5.58C284.411 5.58 284.887 5.68733 285.26 5.902C285.643 6.11667 285.951 6.378 286.184 6.686V3.368C286.184 3.27467 286.212 3.2 286.268 3.144C286.324 3.088 286.399 3.06 286.492 3.06H286.73C286.824 3.06 286.898 3.088 286.954 3.144C287.01 3.2 287.038 3.27467 287.038 3.368V12.692C287.038 12.7853 287.01 12.86 286.954 12.916C286.898 12.972 286.824 13 286.73 13H286.492C286.399 13 286.324 12.972 286.268 12.916C286.212 12.86 286.184 12.7853 286.184 12.692V12.034C285.951 12.3513 285.643 12.6173 285.26 12.832C284.887 13.0373 284.411 13.14 283.832 13.14ZM283.916 12.328C284.448 12.328 284.878 12.202 285.204 11.95C285.531 11.698 285.774 11.3853 285.932 11.012C286.091 10.6293 286.175 10.2467 286.184 9.864C286.194 9.724 286.198 9.542 286.198 9.318C286.198 9.094 286.194 8.912 286.184 8.772C286.175 8.39867 286.086 8.03 285.918 7.666C285.76 7.302 285.517 6.99867 285.19 6.756C284.864 6.51333 284.439 6.392 283.916 6.392C283.375 6.392 282.941 6.51333 282.614 6.756C282.297 6.99867 282.068 7.316 281.928 7.708C281.788 8.1 281.709 8.52 281.69 8.968C281.681 9.22933 281.681 9.49067 281.69 9.752C281.709 10.2 281.788 10.62 281.928 11.012C282.068 11.404 282.297 11.7213 282.614 11.964C282.941 12.2067 283.375 12.328 283.916 12.328ZM293.421 13C293.328 13 293.253 12.972 293.197 12.916C293.141 12.86 293.113 12.7853 293.113 12.692V3.522C293.113 3.41933 293.141 3.34 293.197 3.284C293.253 3.228 293.328 3.2 293.421 3.2H298.881C298.984 3.2 299.063 3.228 299.119 3.284C299.175 3.34 299.203 3.41933 299.203 3.522V3.732C299.203 3.82533 299.175 3.9 299.119 3.956C299.063 4.012 298.984 4.04 298.881 4.04H293.995V7.61H298.573C298.676 7.61 298.755 7.638 298.811 7.694C298.867 7.75 298.895 7.82933 298.895 7.932V8.142C298.895 8.23533 298.867 8.31 298.811 8.366C298.755 8.422 298.676 8.45 298.573 8.45H293.995V12.16H298.993C299.096 12.16 299.175 12.188 299.231 12.244C299.287 12.3 299.315 12.3793 299.315 12.482V12.692C299.315 12.7853 299.287 12.86 299.231 12.916C299.175 12.972 299.096 13 298.993 13H293.421ZM300.852 13C300.777 13 300.712 12.972 300.656 12.916C300.6 12.86 300.572 12.7947 300.572 12.72C300.572 12.6827 300.577 12.6453 300.586 12.608C300.605 12.5613 300.637 12.5053 300.684 12.44L303.148 9.276L300.81 6.28C300.763 6.21467 300.731 6.16333 300.712 6.126C300.703 6.07933 300.698 6.03733 300.698 6C300.698 5.92533 300.726 5.86 300.782 5.804C300.838 5.748 300.903 5.72 300.978 5.72H301.272C301.365 5.72 301.435 5.74333 301.482 5.79C301.538 5.83667 301.585 5.88333 301.622 5.93L303.722 8.632L305.822 5.944C305.869 5.89733 305.915 5.85067 305.962 5.804C306.009 5.748 306.079 5.72 306.172 5.72H306.452C306.527 5.72 306.592 5.748 306.648 5.804C306.704 5.86 306.732 5.92533 306.732 6C306.732 6.03733 306.723 6.07933 306.704 6.126C306.695 6.16333 306.667 6.21467 306.62 6.28L304.254 9.318L306.718 12.44C306.765 12.5053 306.793 12.5613 306.802 12.608C306.821 12.6453 306.83 12.6827 306.83 12.72C306.83 12.7947 306.802 12.86 306.746 12.916C306.69 12.972 306.625 13 306.55 13H306.256C306.163 13 306.088 12.9767 306.032 12.93C305.985 12.8833 305.943 12.8367 305.906 12.79L303.694 9.962L301.482 12.79C301.445 12.8367 301.398 12.8833 301.342 12.93C301.295 12.9767 301.225 13 301.132 13H300.852ZM311.056 13.14C310.403 13.14 309.847 13.014 309.39 12.762C308.933 12.5007 308.583 12.1273 308.34 11.642C308.107 11.1567 307.981 10.5827 307.962 9.92C307.953 9.78 307.948 9.59333 307.948 9.36C307.948 9.12667 307.953 8.94 307.962 8.8C307.981 8.128 308.107 7.554 308.34 7.078C308.583 6.59267 308.933 6.224 309.39 5.972C309.847 5.71067 310.403 5.58 311.056 5.58C311.551 5.58 311.975 5.65 312.33 5.79C312.694 5.92067 312.993 6.098 313.226 6.322C313.459 6.53667 313.637 6.77467 313.758 7.036C313.879 7.29733 313.945 7.554 313.954 7.806C313.963 7.89933 313.935 7.974 313.87 8.03C313.805 8.086 313.73 8.114 313.646 8.114H313.45C313.357 8.114 313.287 8.09533 313.24 8.058C313.203 8.01133 313.161 7.932 313.114 7.82C312.918 7.288 312.647 6.91933 312.302 6.714C311.966 6.49933 311.551 6.392 311.056 6.392C310.421 6.392 309.894 6.588 309.474 6.98C309.063 7.36267 308.844 7.99267 308.816 8.87C308.797 9.19667 308.797 9.52333 308.816 9.85C308.844 10.7273 309.063 11.362 309.474 11.754C309.894 12.1367 310.421 12.328 311.056 12.328C311.551 12.328 311.966 12.2253 312.302 12.02C312.647 11.8053 312.918 11.432 313.114 10.9C313.161 10.788 313.203 10.7133 313.24 10.676C313.287 10.6293 313.357 10.606 313.45 10.606H313.646C313.73 10.606 313.805 10.634 313.87 10.69C313.935 10.746 313.963 10.8207 313.954 10.914C313.945 11.1193 313.903 11.3247 313.828 11.53C313.753 11.7353 313.637 11.936 313.478 12.132C313.329 12.328 313.142 12.5007 312.918 12.65C312.694 12.7993 312.423 12.916 312.106 13C311.798 13.0933 311.448 13.14 311.056 13.14ZM318.506 13.14C317.601 13.14 316.882 12.846 316.35 12.258C315.818 11.6607 315.515 10.8813 315.44 9.92C315.431 9.78 315.426 9.59333 315.426 9.36C315.426 9.12667 315.431 8.94 315.44 8.8C315.487 8.16533 315.636 7.60533 315.888 7.12C316.14 6.63467 316.485 6.25667 316.924 5.986C317.372 5.71533 317.899 5.58 318.506 5.58C319.159 5.58 319.715 5.72467 320.172 6.014C320.629 6.30333 320.979 6.71867 321.222 7.26C321.474 7.80133 321.6 8.44533 321.6 9.192V9.402C321.6 9.49533 321.567 9.57 321.502 9.626C321.446 9.682 321.371 9.71 321.278 9.71H316.294C316.294 9.71 316.294 9.72867 316.294 9.766C316.294 9.80333 316.294 9.83133 316.294 9.85C316.313 10.27 316.411 10.6713 316.588 11.054C316.765 11.4273 317.017 11.7353 317.344 11.978C317.671 12.2113 318.058 12.328 318.506 12.328C318.907 12.328 319.239 12.2673 319.5 12.146C319.771 12.0247 319.985 11.894 320.144 11.754C320.303 11.6047 320.405 11.4927 320.452 11.418C320.536 11.2967 320.601 11.2267 320.648 11.208C320.695 11.18 320.769 11.166 320.872 11.166H321.096C321.18 11.166 321.25 11.194 321.306 11.25C321.371 11.2967 321.399 11.362 321.39 11.446C321.381 11.5767 321.306 11.74 321.166 11.936C321.035 12.1227 320.844 12.3093 320.592 12.496C320.349 12.6827 320.051 12.8367 319.696 12.958C319.341 13.0793 318.945 13.14 318.506 13.14ZM316.294 8.926H320.746V8.87C320.746 8.40333 320.657 7.98333 320.48 7.61C320.303 7.23667 320.046 6.94267 319.71 6.728C319.374 6.504 318.973 6.392 318.506 6.392C318.039 6.392 317.638 6.504 317.302 6.728C316.975 6.94267 316.723 7.23667 316.546 7.61C316.378 7.98333 316.294 8.40333 316.294 8.87V8.926ZM323.769 13C323.675 13 323.601 12.972 323.545 12.916C323.489 12.86 323.461 12.7853 323.461 12.692V3.368C323.461 3.27467 323.489 3.2 323.545 3.144C323.601 3.088 323.675 3.06 323.769 3.06H324.007C324.1 3.06 324.175 3.088 324.231 3.144C324.287 3.2 324.315 3.27467 324.315 3.368V12.692C324.315 12.7853 324.287 12.86 324.231 12.916C324.175 12.972 324.1 13 324.007 13H323.769ZM326.913 13C326.82 13 326.745 12.972 326.689 12.916C326.633 12.86 326.605 12.7853 326.605 12.692V3.368C326.605 3.27467 326.633 3.2 326.689 3.144C326.745 3.088 326.82 3.06 326.913 3.06H327.151C327.244 3.06 327.319 3.088 327.375 3.144C327.431 3.2 327.459 3.27467 327.459 3.368V12.692C327.459 12.7853 327.431 12.86 327.375 12.916C327.319 12.972 327.244 13 327.151 13H326.913ZM332.438 13.14C331.532 13.14 330.814 12.846 330.282 12.258C329.75 11.6607 329.446 10.8813 329.372 9.92C329.362 9.78 329.358 9.59333 329.358 9.36C329.358 9.12667 329.362 8.94 329.372 8.8C329.418 8.16533 329.568 7.60533 329.82 7.12C330.072 6.63467 330.417 6.25667 330.856 5.986C331.304 5.71533 331.831 5.58 332.438 5.58C333.091 5.58 333.646 5.72467 334.104 6.014C334.561 6.30333 334.911 6.71867 335.154 7.26C335.406 7.80133 335.532 8.44533 335.532 9.192V9.402C335.532 9.49533 335.499 9.57 335.434 9.626C335.378 9.682 335.303 9.71 335.21 9.71H330.226C330.226 9.71 330.226 9.72867 330.226 9.766C330.226 9.80333 330.226 9.83133 330.226 9.85C330.244 10.27 330.342 10.6713 330.52 11.054C330.697 11.4273 330.949 11.7353 331.276 11.978C331.602 12.2113 331.99 12.328 332.438 12.328C332.839 12.328 333.17 12.2673 333.432 12.146C333.702 12.0247 333.917 11.894 334.076 11.754C334.234 11.6047 334.337 11.4927 334.384 11.418C334.468 11.2967 334.533 11.2267 334.58 11.208C334.626 11.18 334.701 11.166 334.804 11.166H335.028C335.112 11.166 335.182 11.194 335.238 11.25C335.303 11.2967 335.331 11.362 335.322 11.446C335.312 11.5767 335.238 11.74 335.098 11.936C334.967 12.1227 334.776 12.3093 334.524 12.496C334.281 12.6827 333.982 12.8367 333.628 12.958C333.273 13.0793 332.876 13.14 332.438 13.14ZM330.226 8.926H334.678V8.87C334.678 8.40333 334.589 7.98333 334.412 7.61C334.234 7.23667 333.978 6.94267 333.642 6.728C333.306 6.504 332.904 6.392 332.438 6.392C331.971 6.392 331.57 6.504 331.234 6.728C330.907 6.94267 330.655 7.23667 330.478 7.61C330.31 7.98333 330.226 8.40333 330.226 8.87V8.926ZM337.686 13C337.593 13 337.518 12.972 337.462 12.916C337.406 12.86 337.378 12.7853 337.378 12.692V6.028C337.378 5.93467 337.406 5.86 337.462 5.804C337.518 5.748 337.593 5.72 337.686 5.72H337.924C338.017 5.72 338.092 5.748 338.148 5.804C338.204 5.86 338.232 5.93467 338.232 6.028V6.686C338.484 6.35933 338.787 6.09333 339.142 5.888C339.506 5.68267 339.987 5.58 340.584 5.58C341.219 5.58 341.746 5.72 342.166 6C342.595 6.27067 342.913 6.644 343.118 7.12C343.333 7.58667 343.44 8.11867 343.44 8.716V12.692C343.44 12.7853 343.412 12.86 343.356 12.916C343.3 12.972 343.225 13 343.132 13H342.894C342.801 13 342.726 12.972 342.67 12.916C342.614 12.86 342.586 12.7853 342.586 12.692V8.786C342.586 8.03933 342.404 7.456 342.04 7.036C341.676 6.60667 341.144 6.392 340.444 6.392C339.781 6.392 339.245 6.60667 338.834 7.036C338.433 7.456 338.232 8.03933 338.232 8.786V12.692C338.232 12.7853 338.204 12.86 338.148 12.916C338.092 12.972 338.017 13 337.924 13H337.686ZM347.977 13C347.491 13 347.109 12.8973 346.829 12.692C346.549 12.4867 346.353 12.2067 346.241 11.852C346.129 11.4973 346.073 11.1007 346.073 10.662V6.532H344.981C344.887 6.532 344.813 6.504 344.757 6.448C344.701 6.392 344.673 6.31733 344.673 6.224V6.028C344.673 5.93467 344.701 5.86 344.757 5.804C344.813 5.748 344.887 5.72 344.981 5.72H346.073V3.368C346.073 3.27467 346.101 3.2 346.157 3.144C346.213 3.088 346.287 3.06 346.381 3.06H346.619C346.712 3.06 346.787 3.088 346.843 3.144C346.899 3.2 346.927 3.27467 346.927 3.368V5.72H348.663C348.756 5.72 348.831 5.748 348.887 5.804C348.943 5.86 348.971 5.93467 348.971 6.028V6.224C348.971 6.31733 348.943 6.392 348.887 6.448C348.831 6.504 348.756 6.532 348.663 6.532H346.927V10.606C346.927 11.1007 347.006 11.488 347.165 11.768C347.333 12.048 347.627 12.188 348.047 12.188H348.803C348.896 12.188 348.971 12.216 349.027 12.272C349.083 12.328 349.111 12.4027 349.111 12.496V12.692C349.111 12.7853 349.083 12.86 349.027 12.916C348.971 12.972 348.896 13 348.803 13H347.977ZM356.939 13.14C356.267 13.14 355.703 13 355.245 12.72C354.797 12.44 354.452 12.0573 354.209 11.572C353.976 11.0867 353.85 10.5453 353.831 9.948C353.822 9.808 353.817 9.612 353.817 9.36C353.817 9.108 353.822 8.912 353.831 8.772C353.85 8.16533 353.976 7.624 354.209 7.148C354.452 6.66267 354.797 6.28 355.245 6C355.703 5.72 356.267 5.58 356.939 5.58C357.611 5.58 358.171 5.72 358.619 6C359.077 6.28 359.422 6.66267 359.655 7.148C359.898 7.624 360.029 8.16533 360.047 8.772C360.057 8.912 360.061 9.108 360.061 9.36C360.061 9.612 360.057 9.808 360.047 9.948C360.029 10.5453 359.898 11.0867 359.655 11.572C359.422 12.0573 359.077 12.44 358.619 12.72C358.171 13 357.611 13.14 356.939 13.14ZM356.939 12.328C357.593 12.328 358.125 12.118 358.535 11.698C358.946 11.278 359.165 10.6713 359.193 9.878C359.203 9.738 359.207 9.56533 359.207 9.36C359.207 9.15467 359.203 8.982 359.193 8.842C359.165 8.03933 358.946 7.43267 358.535 7.022C358.125 6.602 357.593 6.392 356.939 6.392C356.286 6.392 355.754 6.602 355.343 7.022C354.933 7.43267 354.713 8.03933 354.685 8.842C354.676 8.982 354.671 9.15467 354.671 9.36C354.671 9.56533 354.676 9.738 354.685 9.878C354.713 10.6713 354.933 11.278 355.343 11.698C355.754 12.118 356.286 12.328 356.939 12.328ZM362.282 13C362.189 13 362.114 12.972 362.058 12.916C362.002 12.86 361.974 12.7853 361.974 12.692V6.028C361.974 5.93467 362.002 5.86 362.058 5.804C362.114 5.748 362.189 5.72 362.282 5.72H362.52C362.613 5.72 362.688 5.748 362.744 5.804C362.8 5.86 362.828 5.93467 362.828 6.028V6.686C363.08 6.35933 363.383 6.09333 363.738 5.888C364.102 5.68267 364.583 5.58 365.18 5.58C365.815 5.58 366.342 5.72 366.762 6C367.191 6.27067 367.509 6.644 367.714 7.12C367.929 7.58667 368.036 8.11867 368.036 8.716V12.692C368.036 12.7853 368.008 12.86 367.952 12.916C367.896 12.972 367.821 13 367.728 13H367.49C367.397 13 367.322 12.972 367.266 12.916C367.21 12.86 367.182 12.7853 367.182 12.692V8.786C367.182 8.03933 367 7.456 366.636 7.036C366.272 6.60667 365.74 6.392 365.04 6.392C364.377 6.392 363.841 6.60667 363.43 7.036C363.029 7.456 362.828 8.03933 362.828 8.786V12.692C362.828 12.7853 362.8 12.86 362.744 12.916C362.688 12.972 362.613 13 362.52 13H362.282Z" fill="white" fill-opacity="0.6"/>
<line x1="199.5" y1="0.5" x2="199.5" y2="56.5" stroke="white" stroke-opacity="0.3" stroke-linecap="round"/>
</g>
<defs>
<filter id="filter0_d_18_43" x="0" y="0" width="389.925" height="68" filterUnits="userSpaceOnUse" color-interpolation-filters="sRGB">
<feFlood flood-opacity="0" result="BackgroundImageFix"/>
<feColorMatrix in="SourceAlpha" type="matrix" values="0 0 0 0 0 0 0 0 0 0 0 0 0 0 0 0 0 0 127 0" result="hardAlpha"/>
<feOffset dy="4"/>
<feGaussianBlur stdDeviation="2"/>
<feComposite in2="hardAlpha" operator="out"/>
<feColorMatrix type="matrix" values="0 0 0 0 0 0 0 0 0 0 0 0 0 0 0 0 0 0 0.25 0"/>
<feBlend mode="normal" in2="BackgroundImageFix" result="effect1_dropShadow_18_43"/>
<feBlend mode="normal" in="SourceGraphic" in2="effect1_dropShadow_18_43" result="shape"/>
</filter>
<clipPath id="clip0_18_43">
<rect width="152" height="37" fill="white" transform="translate(4 23)"/>
</clipPath>
</defs>
</svg>
