<svg width="41" height="40" viewBox="0 0 41 40" fill="none" xmlns="http://www.w3.org/2000/svg">
<path d="M18.3105 29.2369C18.2422 29.2369 18.1053 29.2369 18.037 29.1687C17.4896 29.0317 17.1474 28.4843 17.2844 27.9373L21.6633 11.5163C21.8003 10.9688 22.3477 10.6267 22.8946 10.7636C23.4421 10.9006 23.7843 11.448 23.6473 11.9949L19.2684 28.416C19.2001 28.963 18.7214 29.2369 18.3105 29.2369H18.3105Z" fill="#1E4DD8" stroke="#1E4DD8"/>
<path d="M26.2645 29.2368C24.2118 29.2368 22.5012 27.6632 22.5012 25.6788V23.489C22.5012 21.5733 24.2118 19.931 26.2645 19.931C28.3173 19.931 30.0278 21.5046 30.0278 23.489V25.6788C30.0278 27.6627 28.3173 29.2368 26.2645 29.2368ZM26.2645 22.0524C25.3066 22.0524 24.554 22.7369 24.554 23.5577V25.7474C24.554 26.5683 25.3066 27.2527 26.2645 27.2527C27.2224 27.2527 27.975 26.5683 27.975 25.7474V23.5577C27.975 22.7363 27.2224 22.0524 26.2645 22.0524Z" fill="#1E4DD8" stroke="#1E4DD8"/>
<path d="M14.7356 20C12.6828 20 10.9723 18.4264 10.9723 16.4419V14.2522C10.9723 12.3364 12.6828 10.6942 14.7356 10.6942C16.7883 10.6942 18.4989 12.2678 18.4989 14.2522V16.4419C18.4989 18.4264 16.7883 20 14.7356 20ZM14.7356 12.8156C13.7777 12.8156 13.025 13.5 13.025 14.3209V16.5106C13.025 17.3315 13.7777 18.0159 14.7356 18.0159C15.6934 18.0159 16.4461 17.3315 16.4461 16.5106V14.3209C16.4461 13.5 15.6934 12.8156 14.7356 12.8156Z" fill="#1E4DD8" stroke="#1E4DD8"/>
<path d="M20.5 39.5C9.75765 39.5 1 30.7421 1 20C1 9.2579 9.7579 0.5 20.5 0.5C31.2421 0.5 40 9.2579 40 20C40 30.7421 31.2421 39.5 20.5 39.5ZM20.5 2.55263C10.8525 2.55263 3.05263 10.3526 3.05263 20C3.05263 29.6474 10.8526 37.4474 20.5 37.4474C30.1474 37.4474 37.9474 29.6474 37.9474 20C37.9474 10.3526 30.1474 2.55263 20.5 2.55263Z" fill="#1E4DD8" stroke="#1E4DD8"/>
</svg>
